<svg width="768" height="768" viewBox="0 0 768 768" fill="none"
    xmlns="http://www.w3.org/2000/svg">
    <defs>
        <linearGradient id="bg" x1="0" y1="0" x2="1" y2="1">
            <stop offset="0" stop-color="#070629"/>
            <stop offset="1" stop-color="#3D32D8"/>
        </linearGradient>
    </defs>

    <rect width="768" height="768" fill="url(#bg)"/>

    <circle cx="384" cy="318" r="240" fill="#E8E7FF"/>

    <circle cx="610" cy="83" r="35" fill="#F8C31C"/>
    <circle cx="650" cy="158" r="17" fill="#8A8FD4"/>
    <circle cx="626" cy="222" r="12" fill="#FFFFFF"/>
    <circle cx="137" cy="423" r="28" fill="#FFD24A"/>
    <circle cx="592" cy="514" r="19" fill="#FFD24A"/>
    <circle cx="218" cy="590" r="16" fill="#9EA0D6"/>

    <rect x="264" y="92" width="240" height="432" rx="44" fill="#FBFAF2" stroke="#5D3A36" stroke-width="8"/>
    <rect x="293" y="122" width="184" height="352" rx="20" fill="#C2DBEE" stroke="#5D3A36" stroke-width="8"/>
    <rect x="287" y="142" width="196" height="20" rx="10" fill="#FBFAF2"/>

    <rect x="321" y="191" width="43" height="43" rx="10" fill="#D0DC8B" stroke="#5D3A36" stroke-width="6"/>
    <rect x="386" y="191" width="43" height="43" rx="10" fill="#91B6DE" stroke="#5D3A36" stroke-width="6"/>
    <rect x="451" y="191" width="43" height="43" rx="10" fill="#F0BD17" stroke="#5D3A36" stroke-width="6"/>

    <rect x="321" y="254" width="43" height="43" rx="10" fill="#EB764F" stroke="#5D3A36" stroke-width="6"/>
    <rect x="386" y="254" width="43" height="43" rx="10" fill="#F44B64" stroke="#5D3A36" stroke-width="6"/>
    <rect x="451" y="254" width="43" height="43" rx="10" fill="#11A7B4" stroke="#5D3A36" stroke-width="6"/>

    <rect x="294" y="175" width="4" height="128" rx="2" fill="#5D3A36"/>
    <rect x="468" y="175" width="4" height="128" rx="2" fill="#5D3A36"/>
    <rect x="294" y="332" width="4" height="84" rx="2" fill="#5D3A36"/>

    <rect x="492" y="138" width="12" height="64" rx="6" fill="#5D3A36"/>
    <rect x="492" y="212" width="12" height="20" rx="6" fill="#5D3A36"/>

    <circle cx="384" cy="506" r="18" fill="#FBFAF2" stroke="#5D3A36" stroke-width="8"/>

    <text x="384" y="650" fill="#FFFFFF" font-size="58" font-family="Segoe UI, Arial, sans-serif" text-anchor="middle" letter-spacing="1">SMART LEARN+</text>
    <text x="384" y="694" fill="#FFFFFF" font-size="24" font-family="Segoe UI, Arial, sans-serif" text-anchor="middle" letter-spacing="4">ADAPTIVE LEARNING PLATFORM</text>
</svg>
