<?xml version="1.0" encoding="utf-8"?>
<!-- Generator: Adobe Illustrator 24.1.3, SVG Export Plug-In . SVG Version: 6.00 Build 0)  -->
<svg version="1.1" xmlns="http://www.w3.org/2000/svg" xmlns:xlink="http://www.w3.org/1999/xlink" x="0px" y="0px"
	 viewBox="0 0 1616.4 1724.99" style="enable-background:new 0 0 1616.4 1724.99;" xml:space="preserve">
<style type="text/css">
	.st0{fill:#1D1F25;}
	.st1{fill:#E0ECDE;}
	.st2{display:none;}
	.st3{display:inline;fill:#FFFFFF;}
	.st4{fill:#CDCFD0;}
	.st5{fill:#2B3C46;}
	.st6{fill:#5A5D5F;}
	.st7{fill:#9CA5AD;}
	.st8{fill:#727274;}
	.st9{fill:#757277;}
	.st10{opacity:0.1;fill:#B0B6BF;}
	.st11{fill:#65656A;}
	.st12{fill:#98A4AF;}
	.st13{fill:#74777E;}
	.st14{fill:#99A6B0;}
	.st15{opacity:0.5;fill:#B0B6BF;}
	.st16{fill:#9BA6AF;}
	.st17{fill:#D99827;}
	.st18{fill:#BD881B;}
	.st19{fill:#F5C338;}
	.st20{fill:#98A1AA;}
	.st21{fill:#5B5B5C;}
	.st22{fill:#293A40;}
	.st23{fill:#122227;}
	.st24{fill:#7ACEF4;}
	.st25{fill:#16262B;}
	.st26{fill:#B0B6BF;}
	.st27{opacity:0.67;fill:#EF9B36;}
	.st28{fill:#777875;}
	.st29{fill:#9BA4B2;}
	.st30{fill:#2C3948;}
	.st31{fill:#838F94;}
	.st32{fill:#AE4C48;}
	.st33{fill:#747B53;}
	.st34{fill:#C1A977;}
	.st35{fill:#737678;}
	.st36{fill:#FAC73B;}
	.st37{fill:#EEF0F8;}
	.st38{fill:#242E2B;}
</style>
<g id="Layer_3">
	<rect x="0" y="1644.29" class="st0" width="1616.4" height="80.95"/>
	<g>
		<g>
			<g>
				<path class="st1" d="M496.18,1664.98h6.94c5.46,0,9.95,1.44,13.48,4.27c3.56,2.85,5.33,6.92,5.33,12.21
					c0,5.44-1.76,9.6-5.29,12.49c-3.54,2.9-8.08,4.33-13.67,4.33h-6.81V1664.98z M500.36,1694.49h1.47c2.16,0,4.21-0.21,6.14-0.64
					c1.93-0.43,3.61-1.15,5.05-2.16c1.43-1.03,2.58-2.36,3.45-3.98c0.85-1.63,1.29-3.65,1.29-6.07c0-2.39-0.42-4.43-1.27-6.12
					c-0.85-1.7-2.02-3.02-3.54-3.97c-1.5-0.96-3.18-1.67-5-2.11c-1.83-0.46-3.87-0.67-6.12-0.67h-1.47V1694.49z"/>
				<path class="st1" d="M528.09,1688.61c0.06,1.84,0.66,3.46,1.77,4.82c1.16,1.36,2.66,2.02,4.49,2.02c1.46,0,2.64-0.33,3.59-1
					c0.93-0.68,1.82-1.67,2.65-3.01l3.39,1.9c-0.98,1.76-2.33,3.13-4.04,4.16c-1.71,0.99-3.58,1.48-5.62,1.48
					c-3.12,0-5.61-1.02-7.48-3.09c-1.84-2.12-2.77-4.68-2.77-7.78c0-3.24,0.88-5.93,2.64-8.02c1.72-2.08,4.22-3.08,7.52-3.08
					c3.21,0,5.61,1.01,7.25,3.08c1.66,2.05,2.49,4.7,2.49,7.91v0.62H528.09z M539.96,1685.62c-0.25-1.6-0.84-2.87-1.85-3.78
					c-0.99-0.93-2.29-1.4-3.89-1.4c-0.76,0-1.49,0.1-2.16,0.37c-0.67,0.27-1.26,0.64-1.78,1.09c-0.51,0.48-0.95,1.03-1.3,1.66
					c-0.34,0.65-0.56,1.32-0.67,2.06H539.96z"/>
				<path class="st1" d="M555.76,1682.35c-0.61-1.22-1.49-1.82-2.67-1.82c-0.56,0-1.07,0.2-1.51,0.59
					c-0.45,0.41-0.67,0.89-0.67,1.44c0,0.53,0.17,1,0.51,1.36c0.33,0.37,0.8,0.71,1.4,1.03c0.39,0.17,0.68,0.33,0.89,0.4
					c0.2,0.12,0.54,0.28,1.02,0.49c0.23,0.1,0.45,0.21,0.62,0.26c0.17,0.05,0.31,0.11,0.41,0.17c1.47,0.68,2.66,1.45,3.52,2.35
					c0.85,0.87,1.29,2.07,1.29,3.53c0,1.95-0.72,3.59-2.14,4.89c-1.39,1.31-3.08,1.95-5.02,1.95c-0.81,0-1.58-0.11-2.32-0.33
					c-0.73-0.21-1.43-0.52-2.08-0.92c-0.64-0.4-1.19-0.89-1.69-1.46c-0.49-0.59-0.87-1.23-1.14-1.91l3.42-1.54
					c0.98,1.76,2.24,2.63,3.8,2.63c0.63,0,1.2-0.16,1.71-0.5c0.54-0.34,0.94-0.76,1.19-1.27c0.25-0.54,0.31-1.08,0.16-1.7
					c-0.15-0.58-0.6-1.16-1.37-1.69l-3.93-2.07c-0.67-0.35-1.26-0.7-1.77-1.06c-0.5-0.36-0.92-0.73-1.24-1.12
					c-0.33-0.41-0.57-0.84-0.75-1.31c-0.16-0.5-0.24-1.06-0.24-1.71c0-1.68,0.59-3.1,1.78-4.25c1.19-1.17,2.63-1.75,4.36-1.75
					c2.61,0,4.51,1.18,5.69,3.61L555.76,1682.35z"/>
				<path class="st1" d="M570.12,1668.16c0,0.74-0.26,1.37-0.8,1.89c-0.54,0.54-1.19,0.79-1.95,0.79c-0.78,0-1.42-0.26-1.96-0.79
					c-0.53-0.52-0.8-1.16-0.8-1.89c0-0.78,0.26-1.43,0.8-1.97c0.54-0.54,1.18-0.79,1.96-0.79c0.76,0,1.42,0.25,1.95,0.79
					C569.86,1666.73,570.12,1667.38,570.12,1668.16z M569.38,1698.27h-4.02v-20.66h4.02V1698.27z"/>
				<path class="st1" d="M595.27,1697.9c0,3.87-0.74,6.9-2.22,9.06c-1.49,2.11-4.13,3.16-7.93,3.16c-2.94,0-5.34-0.84-7.21-2.51
					c-1.84-1.67-2.79-3.95-2.84-6.85h3.99c0,1.86,0.58,3.28,1.71,4.32c1.16,1,2.66,1.51,4.53,1.51c2.28,0,3.85-0.66,4.7-2
					c0.84-1.33,1.26-3.18,1.26-5.61v-3.94h-0.09c-0.82,1.26-1.86,2.22-3.09,2.91c-1.23,0.69-2.56,1.03-3.97,1.03
					c-3.09,0-5.53-1.07-7.31-3.21c-1.77-2.16-2.65-4.79-2.65-7.95c0-2.99,0.89-5.5,2.7-7.58c1.81-2.16,4.17-3.22,7.09-3.22
					c3.04,0,5.48,1.39,7.23,4.12h0.09v-3.51h4.01V1697.9z M584.73,1695.45c2.1,0,3.74-0.72,4.92-2.15c1.21-1.48,1.83-3.27,1.83-5.35
					c0-2.07-0.62-3.81-1.83-5.27c-1.18-1.42-2.82-2.16-4.92-2.16c-2,0-3.6,0.74-4.82,2.22c-1.19,1.44-1.79,3.17-1.79,5.2
					c0,2.07,0.6,3.84,1.79,5.29C581.14,1694.73,582.74,1695.45,584.73,1695.45z"/>
				<path class="st1" d="M604.48,1680.38h0.09c0.58-1.11,1.45-1.92,2.57-2.51c1.14-0.6,2.36-0.87,3.7-0.87
					c1.36,0,2.5,0.19,3.47,0.61c0.94,0.4,1.71,0.99,2.28,1.76c0.58,0.77,1,1.7,1.25,2.8c0.25,1.1,0.38,2.37,0.38,3.77v12.33h-4
					v-11.83c0-2.04-0.3-3.52-0.89-4.46c-0.6-0.98-1.83-1.46-3.69-1.46c-0.69,0-1.27,0.07-1.73,0.2c-0.48,0.12-0.9,0.31-1.25,0.57
					c-0.36,0.25-0.65,0.54-0.89,0.86c-0.23,0.33-0.46,0.68-0.66,1.08c-0.09,0.18-0.17,0.47-0.26,0.79
					c-0.06,0.32-0.13,0.65-0.19,0.98c-0.06,0.34-0.11,0.68-0.14,1.03c-0.03,0.35-0.04,0.61-0.04,0.81v1.93v9.5h-4.01v-20.66h4.01
					V1680.38z"/>
				<path class="st1" d="M636.29,1659.95h4v21.1h0.09c1.84-2.71,4.26-4.04,7.25-4.04c2.9,0,5.26,1.06,7.08,3.22
					c1.81,2.08,2.71,4.6,2.71,7.58c0,3.16-0.9,5.8-2.67,7.95c-1.79,2.15-4.22,3.21-7.3,3.21c-1.42,0-2.75-0.33-3.99-1.03
					c-1.22-0.69-2.26-1.65-3.09-2.91h-0.09v3.23h-4V1659.95z M646.66,1695.45c2.1,0,3.74-0.72,4.93-2.15
					c1.21-1.48,1.82-3.27,1.82-5.35c0-2.07-0.61-3.81-1.82-5.27c-1.19-1.42-2.83-2.16-4.93-2.16c-1.99,0-3.6,0.74-4.81,2.22
					c-1.18,1.44-1.79,3.17-1.79,5.2c0,2.07,0.6,3.84,1.79,5.29C643.06,1694.73,644.67,1695.45,646.66,1695.45z"/>
				<path class="st1" d="M657.99,1677.61h4.67l7.03,13.11l6.55-13.11h4.49l-16.87,32.5h-4.54l8.2-15.38L657.99,1677.61z"/>
				<path class="st1" d="M700.93,1689.92l-3.82,8.36h-4.5l16.01-34.7l16.03,34.7h-4.49l-3.84-8.36H700.93z M708.62,1672.66
					l-5.96,13.49h11.92L708.62,1672.66z"/>
				<path class="st1" d="M731.18,1698.27h-4v-38.33h4V1698.27z"/>
				<path class="st1" d="M741.05,1698.27h-3.99v-38.33h3.99V1698.27z"/>
				<path class="st1" d="M756.27,1682.48v3.3h-9.72v-3.3H756.27z"/>
				<path class="st1" d="M771.85,1663.96c-1.25-0.58-2.15-0.82-2.67-0.82c-0.86,0-1.49,0.24-1.87,0.81c-0.39,0.54-0.64,1.21-0.8,2
					c-0.08,0.59-0.14,1.06-0.17,1.41c-0.01,0.32-0.02,0.81-0.02,1.38v8.89h5.53v3.71h-5.53v16.95h-3.99v-16.95h-1.83v-3.71h1.83
					v-10.07c0-5.42,2.23-8.13,6.71-8.13c0.99,0,1.91,0.17,2.81,0.53V1663.96z"/>
				<path class="st1" d="M778.03,1680.97h0.12c0.52-1.24,1.25-2.22,2.24-2.91c0.98-0.73,2.14-1.06,3.46-1.06c1.1,0,2.2,0.32,3.3,1
					l-1.82,3.63c-0.64-0.56-1.47-0.84-2.45-0.84c-2.04,0-3.41,0.83-4.09,2.46c-0.3,0.78-0.51,1.56-0.61,2.29
					c-0.09,0.74-0.14,1.6-0.14,2.56v10.16h-4v-20.66h4V1680.97z"/>
				<path class="st1" d="M791.78,1688.61c0.06,1.84,0.64,3.46,1.77,4.82c1.17,1.36,2.65,2.02,4.5,2.02c1.46,0,2.65-0.33,3.59-1
					c0.93-0.68,1.81-1.67,2.65-3.01l3.38,1.9c-0.98,1.76-2.31,3.13-4.03,4.16c-1.7,0.99-3.57,1.48-5.63,1.48
					c-3.1,0-5.6-1.02-7.47-3.09c-1.83-2.12-2.76-4.68-2.76-7.78c0-3.24,0.87-5.93,2.64-8.02c1.71-2.08,4.21-3.08,7.5-3.08
					c3.22,0,5.64,1.01,7.27,3.08c1.67,2.05,2.48,4.7,2.48,7.91v0.62H791.78z M803.66,1685.62c-0.24-1.6-0.85-2.87-1.85-3.78
					c-0.99-0.93-2.29-1.4-3.9-1.4c-0.76,0-1.49,0.1-2.14,0.37c-0.67,0.27-1.26,0.64-1.79,1.09c-0.52,0.48-0.95,1.03-1.29,1.66
					c-0.32,0.65-0.57,1.32-0.69,2.06H803.66z"/>
				<path class="st1" d="M813.49,1688.61c0.07,1.84,0.66,3.46,1.79,4.82c1.15,1.36,2.64,2.02,4.48,2.02c1.46,0,2.65-0.33,3.59-1
					c0.94-0.68,1.83-1.67,2.65-3.01l3.37,1.9c-0.97,1.76-2.31,3.13-4.01,4.16c-1.7,0.99-3.59,1.48-5.64,1.48
					c-3.11,0-5.6-1.02-7.47-3.09c-1.83-2.12-2.76-4.68-2.76-7.78c0-3.24,0.87-5.93,2.63-8.02c1.72-2.08,4.22-3.08,7.53-3.08
					c3.19,0,5.61,1.01,7.24,3.08c1.66,2.05,2.48,4.7,2.48,7.91v0.62H813.49z M825.38,1685.62c-0.24-1.6-0.87-2.87-1.85-3.78
					c-1-0.93-2.31-1.4-3.88-1.4c-0.79,0-1.5,0.1-2.17,0.37c-0.67,0.27-1.27,0.64-1.78,1.09c-0.52,0.48-0.97,1.03-1.29,1.66
					c-0.35,0.65-0.58,1.32-0.69,2.06H825.38z"/>
				<path class="st1" d="M842.32,1682.48v3.3h-9.73v-3.3H842.32z"/>
				<path class="st1" d="M863.1,1695.04h-0.07c-0.84,1.26-1.86,2.22-3.11,2.91c-1.23,0.69-2.56,1.03-3.97,1.03
					c-3.11,0-5.53-1.07-7.3-3.21c-1.79-2.16-2.68-4.79-2.68-7.95c0-2.99,0.89-5.5,2.71-7.58c1.82-2.16,4.16-3.22,7.09-3.22
					c2.99,0,5.41,1.33,7.26,4.04h0.07v-21.1h3.99v38.33h-3.99V1695.04z M856.55,1695.45c2.12,0,3.78-0.72,4.96-2.15
					c1.21-1.48,1.82-3.27,1.82-5.35c0-2.07-0.62-3.81-1.82-5.27c-1.18-1.42-2.83-2.16-4.96-2.16c-1.97,0-3.57,0.74-4.79,2.22
					c-1.19,1.44-1.79,3.17-1.79,5.2c0,2.07,0.6,3.84,1.79,5.29C852.97,1694.73,854.58,1695.45,856.55,1695.45z"/>
				<path class="st1" d="M873.64,1680.17c2.17-2.1,4.81-3.16,7.93-3.16c3.1,0,5.75,1.06,7.87,3.16c2.17,2.13,3.25,4.74,3.25,7.83
					c0,3.09-1.08,5.7-3.25,7.82c-2.11,2.12-4.76,3.16-7.87,3.16c-3.12,0-5.77-1.04-7.93-3.16c-2.12-2.12-3.19-4.73-3.19-7.82
					C870.45,1684.9,871.51,1682.29,873.64,1680.17z M874.43,1688c0,1.91,0.71,3.6,2.1,5.08c1.36,1.41,3.04,2.11,5.03,2.11
					c1.94,0,3.63-0.7,5.02-2.11c1.41-1.47,2.11-3.16,2.11-5.08c0-1.95-0.7-3.64-2.11-5.08c-1.39-1.42-3.09-2.12-5.02-2.12
					c-1.99,0-3.67,0.7-5.03,2.12C875.14,1684.36,874.43,1686.05,874.43,1688z"/>
				<path class="st1" d="M903.45,1690.77l6.14-14.31l6.1,14.31l6.05-13.16h4.55l-10.59,21.37l-6.1-13.81l-6.14,13.81l-10.58-21.37
					h4.54L903.45,1690.77z"/>
				<path class="st1" d="M932.28,1680.38h0.08c0.59-1.11,1.46-1.92,2.6-2.51c1.11-0.6,2.36-0.87,3.68-0.87
					c1.37,0,2.53,0.19,3.46,0.61c0.95,0.4,1.71,0.99,2.28,1.76c0.61,0.77,1.02,1.7,1.27,2.8c0.26,1.1,0.36,2.37,0.36,3.77v12.33h-4
					v-11.83c0-2.04-0.28-3.52-0.88-4.46c-0.61-0.98-1.83-1.46-3.71-1.46c-0.68,0-1.25,0.07-1.74,0.2c-0.46,0.12-0.88,0.31-1.23,0.57
					c-0.35,0.25-0.66,0.54-0.9,0.86c-0.24,0.33-0.44,0.68-0.67,1.08c-0.07,0.18-0.16,0.47-0.22,0.79c-0.08,0.32-0.14,0.65-0.22,0.98
					c-0.04,0.34-0.09,0.68-0.14,1.03c-0.01,0.35-0.04,0.61-0.04,0.81v1.93v9.5h-4.01v-20.66h4.01V1680.38z"/>
				<path class="st1" d="M955.73,1698.27h-4v-38.33h4V1698.27z"/>
				<path class="st1" d="M962.76,1680.17c2.17-2.1,4.81-3.16,7.92-3.16c3.1,0,5.74,1.06,7.87,3.16c2.15,2.13,3.24,4.74,3.24,7.83
					c0,3.09-1.08,5.7-3.24,7.82c-2.13,2.12-4.78,3.16-7.87,3.16c-3.11,0-5.75-1.04-7.92-3.16c-2.14-2.12-3.21-4.73-3.21-7.82
					C959.55,1684.9,960.62,1682.29,962.76,1680.17z M963.56,1688c0,1.91,0.7,3.6,2.09,5.08c1.36,1.41,3.04,2.11,5.03,2.11
					c1.97,0,3.63-0.7,5.01-2.11c1.41-1.47,2.11-3.16,2.11-5.08c0-1.95-0.7-3.64-2.11-5.08c-1.38-1.42-3.05-2.12-5.01-2.12
					c-1.99,0-3.67,0.7-5.03,2.12C964.26,1684.36,963.56,1686.05,963.56,1688z"/>
				<path class="st1" d="M1004.98,1698.27h-4v-3.23h-0.09c-1.77,2.63-4.14,3.94-7.07,3.94c-3.06,0-5.49-1.07-7.31-3.21
					c-1.77-2.16-2.64-4.79-2.64-7.95c0-2.99,0.9-5.5,2.7-7.58c1.81-2.16,4.19-3.22,7.11-3.22c2.97,0,5.39,1.33,7.21,4.04h0.09v-3.43
					h4V1698.27z M994.44,1695.45c2.1,0,3.75-0.72,4.95-2.15c1.2-1.48,1.81-3.27,1.81-5.35c0-2.07-0.61-3.81-1.81-5.27
					c-1.2-1.42-2.85-2.16-4.95-2.16c-1.98,0-3.6,0.74-4.8,2.22c-1.19,1.44-1.78,3.17-1.78,5.2c0,2.07,0.59,3.84,1.78,5.29
					C990.84,1694.73,992.46,1695.45,994.44,1695.45z"/>
				<path class="st1" d="M1025.72,1695.04h-0.1c-0.83,1.26-1.86,2.22-3.09,2.91c-1.22,0.69-2.55,1.03-3.98,1.03
					c-3.09,0-5.51-1.07-7.3-3.21c-1.78-2.16-2.66-4.79-2.66-7.95c0-2.99,0.89-5.5,2.72-7.58c1.81-2.16,4.15-3.22,7.06-3.22
					c3,0,5.41,1.33,7.26,4.04h0.1v-21.1h4v38.33h-4V1695.04z M1019.18,1695.45c2.1,0,3.75-0.72,4.93-2.15
					c1.22-1.48,1.81-3.27,1.81-5.35c0-2.07-0.59-3.81-1.81-5.27c-1.18-1.42-2.83-2.16-4.93-2.16c-2,0-3.59,0.74-4.82,2.22
					c-1.17,1.44-1.76,3.17-1.76,5.2c0,2.07,0.59,3.84,1.76,5.29C1015.6,1694.73,1017.18,1695.45,1019.18,1695.45z"/>
				<path class="st1" d="M1041.19,1696.43c0,0.71-0.23,1.32-0.74,1.81c-0.51,0.49-1.13,0.74-1.83,0.74c-0.7,0-1.34-0.25-1.83-0.74
					c-0.49-0.49-0.76-1.11-0.76-1.81c0-0.68,0.27-1.28,0.76-1.81c0.49-0.49,1.13-0.74,1.83-0.74c0.71,0,1.33,0.26,1.83,0.74
					C1040.96,1695.14,1041.19,1695.75,1041.19,1696.43z"/>
				<path class="st1" d="M1063.08,1683.49c-1.65-1.86-3.65-2.8-5.96-2.8c-1.93,0-3.56,0.75-4.93,2.19c-1.34,1.46-2,3.17-2,5.07
					c0,2.16,0.66,3.89,2,5.25c1.39,1.38,3.11,2.1,5.18,2.1c2.14,0,4.06-0.93,5.71-2.76v5.08c-1.72,0.92-3.63,1.36-5.73,1.36
					c-3.08,0-5.73-1.03-7.92-3.14c-2.17-2.07-3.24-4.63-3.24-7.73c0-3.17,1.08-5.82,3.24-7.95c2.17-2.1,4.86-3.16,8.13-3.16
					c2.14,0,4,0.44,5.52,1.36V1683.49z"/>
				<path class="st1" d="M1068.74,1680.17c2.17-2.1,4.81-3.16,7.92-3.16c3.12,0,5.75,1.06,7.88,3.16c2.15,2.13,3.23,4.74,3.23,7.83
					c0,3.09-1.07,5.7-3.23,7.82c-2.13,2.12-4.76,3.16-7.88,3.16c-3.11,0-5.75-1.04-7.92-3.16c-2.13-2.12-3.21-4.73-3.21-7.82
					C1065.53,1684.9,1066.61,1682.29,1068.74,1680.17z M1069.54,1688c0,1.91,0.67,3.6,2.08,5.08c1.36,1.41,3.04,2.11,5.03,2.11
					c1.95,0,3.63-0.7,5.03-2.11c1.38-1.47,2.08-3.16,2.08-5.08c0-1.95-0.7-3.64-2.08-5.08c-1.39-1.42-3.08-2.12-5.03-2.12
					c-2,0-3.67,0.7-5.03,2.12C1070.22,1684.36,1069.54,1686.05,1069.54,1688z"/>
				<path class="st1" d="M1095.3,1680.23h0.1c0.57-0.96,1.36-1.73,2.37-2.35c0.99-0.58,2.04-0.87,3.14-0.87c2.6,0,4.6,1.21,6,3.64
					c0.65-1.11,1.56-2.01,2.69-2.67c1.13-0.66,2.39-0.98,3.71-0.98c4.61,0,6.9,2.96,6.9,8.91v12.35h-4v-11.7
					c0-0.52-0.03-1.07-0.07-1.57c-0.05-0.51-0.12-1.01-0.25-1.51c-0.12-0.47-0.29-0.91-0.55-1.34c-0.23-0.4-0.55-0.77-0.96-1.11
					c-0.53-0.35-1.22-0.52-2.05-0.52c-0.84,0-1.55,0.17-2.12,0.52c-0.57,0.34-1.02,0.76-1.32,1.23c-0.33,0.47-0.57,1.12-0.74,1.83
					c-0.16,0.72-0.29,1.4-0.33,2c-0.03,0.58-0.06,1.26-0.06,2.01v10.16h-4.02v-10.95c0-0.71,0-1.28-0.04-1.75
					c-0.03-0.49-0.11-1.07-0.27-1.8c-0.14-0.76-0.33-1.3-0.58-1.67c-0.24-0.4-0.6-0.78-1.11-1.1c-0.51-0.32-1.12-0.48-1.83-0.48
					c-2.05,0-3.36,0.89-3.95,2.66c-0.27,0.82-0.45,1.61-0.55,2.32c-0.08,0.75-0.13,1.62-0.13,2.61v10.16h-4v-20.66h4V1680.23z"/>
			</g>
			<g>
				<g>
					<path class="st1" d="M402.86,1686.1c18.89,0,37.77,0,56.67,0c1.72,0,1.72-2.65,0-2.65c-18.89,0-37.78,0-56.67,0
						C401.14,1683.45,401.14,1686.1,402.86,1686.1L402.86,1686.1z"/>
				</g>
				<g>
					<path class="st1" d="M1156.88,1686.1c18.88,0,37.77,0,56.65,0c1.73,0,1.73-2.65,0-2.65c-18.88,0-37.77,0-56.65,0
						C1155.17,1683.45,1155.17,1686.1,1156.88,1686.1L1156.88,1686.1z"/>
				</g>
			</g>
		</g>
	</g>
</g>
<g id="Layer_1" class="st2">
	<rect class="st3" width="1616.4" height="1644.29"/>
</g>
<g id="Layer_4">
	<ellipse class="st4" cx="782.16" cy="1380.63" rx="654.83" ry="154.05"/>
	<g>
		<g>
			<path class="st5" d="M1134.02,867.5c0,0-20.93-13.32-45.95-7.5c-25.03,5.83-164.46,39.9-174.46,63.11
				c-9.99,23.2-88.66,231.32-71.53,281.55c17.11,50.22,87.44,69.29,156.83,89.6c69.39,20.29,158.14,54.79,239.77,15.86
				c81.63-38.92,175.62-75.49,167.51-128.23c-8.11-52.75-16.75-78.39-71.59-129.09C1279.76,1002.08,1134.02,867.5,1134.02,867.5z"/>
			<g>
				<path class="st6" d="M1166.76,1131.38l184.47-62.5c-5.04-5.11-10.5-10.42-16.63-16.08c-11.13-10.3-26.04-24.07-42.68-39.45
					l-176.14,58.07L1166.76,1131.38z"/>
				<path class="st6" d="M1220.17,1243.91c3.05,4.92,7.75,34.43-14.55,52.02c-22.29,17.6-30.86,27.4-72.02,30.8c0,0,0,0,0,0.01
					c34.98,3.13,70.66-0.21,105.08-16.63c81.63-38.92,175.62-75.49,167.51-128.23c-0.53-3.4-1.05-6.67-1.59-9.86
					C1358.61,1188.59,1217.61,1239.79,1220.17,1243.91z"/>
				<path class="st6" d="M1400.94,1153.38c-6.05-26.38-15.59-46.8-38.3-72.34l-183.17,72.08c0,0,32.11,51.08,37.01,67.58
					L1400.94,1153.38z"/>
				<path class="st6" d="M955.44,920.78c27.62,13.69,27.62,13.69,27.62,13.69l161.81-56.94c-6.85-6.32-10.85-10.02-10.85-10.02
					s-20.93-13.32-45.95-7.5c-22.87,5.33-141.17,34.22-169.07,56.88C930.31,914.94,943.58,914.91,955.44,920.78z"/>
				<path class="st6" d="M1046.04,1002.73l53.55,53.97l177.71-56.86c-18.02-16.65-37.29-34.45-55.7-51.45L1046.04,1002.73z"/>
				<path class="st6" d="M1031.59,990.79l176.64-54.75c-18.34-16.94-35.13-32.45-48.12-44.44l-173.65,54.67L1031.59,990.79z"/>
			</g>
			<g>
				<path class="st7" d="M1003.13,1144.73c7.81,49.12-13.49,93.34-47.59,98.77c-34.09,5.43-68.07-30-75.89-79.12
					c-7.82-49.12,13.48-93.35,47.58-98.77C961.33,1060.18,995.31,1095.6,1003.13,1144.73z"/>
				<path class="st8" d="M979.95,1147.21c6.13,38.49-7.87,72.72-31.27,76.44c-23.39,3.73-47.32-24.46-53.44-62.96
					c-6.13-38.5,7.86-72.72,31.26-76.45C949.89,1080.52,973.82,1108.71,979.95,1147.21z"/>
			</g>
			<g>
				<path class="st7" d="M1166.39,1220.22c5.08,31.94-10.8,61.02-35.48,64.95c-24.68,3.93-48.81-18.79-53.89-50.73
					c-5.09-31.96,10.8-61.03,35.48-64.96C1137.18,1165.55,1161.3,1188.26,1166.39,1220.22z"/>
				<path class="st8" d="M1149.63,1222.09c3.99,25.04-6.51,47.52-23.45,50.21c-16.93,2.69-33.89-15.42-37.87-40.45
					c-3.98-25.04,6.51-47.51,23.44-50.2C1128.68,1178.95,1145.64,1197.06,1149.63,1222.09z"/>
			</g>
			<path class="st9" d="M994.1,994.32c4.79,30.11-7.14,57.05-26.64,60.15c-19.51,3.11-39.2-18.79-43.99-48.91
				c-4.8-30.12,7.13-57.05,26.63-60.15C969.61,942.3,989.31,964.2,994.1,994.32z"/>
			<path class="st9" d="M1083,1083.44c4.06,25.51-7.61,48.58-26.06,51.51c-18.45,2.93-36.69-15.37-40.75-40.88
				c-4.06-25.51,7.6-48.57,26.05-51.5C1060.69,1039.63,1078.95,1057.93,1083,1083.44z"/>
			<path class="st6" d="M1185.72,1311.28c-56.18,18.15-156.81-20.29-209.75-36.43c-52.95-16.14-101.36-29.41-121.14-67.53
				c-19.78-38.12,38.87-201.09,59.08-261.85c20.2-60.76,86.88-50.96,86.88-50.96l-9.06-8.37c-37.94,11.91-73.26,25.72-78.11,36.98
				c-9.99,23.2-88.66,231.32-71.53,281.55c17.11,50.22,87.44,69.29,156.83,89.6c62.13,18.17,139.78,47.68,213.95,25.73
				C1211.65,1310.36,1204.33,1305.27,1185.72,1311.28z"/>
			<path class="st10" d="M1134.02,867.5c0,0-20.93-13.32-45.95-7.5c-15.71,3.66-76.47,18.44-122.02,34.68
				c24.1,2.14,56.86,15.12,89.46,59.69c63.25,86.46,170.4,196.89,196,253.55c20.82,46.09,73.78,42.54,143.7,10.38
				c8.74-11.35,12.99-23.39,10.99-36.43c-8.11-52.75-16.75-78.39-71.59-129.09C1279.76,1002.08,1134.02,867.5,1134.02,867.5z"/>
		</g>
		<g>
			<path class="st11" d="M472.96,493.28c0,0-32.67,19.49-36.05,62.12c-3.37,42.63,50.69,86.56,130.67,78.68
				c79.98-7.88,141.93-22.52,177.98,13.52c36.04,36.05,31.54-43.93,0-59.7c-31.54-15.77-116.02-20.28-162.21-4.51
				c-46.18,15.77-111.51,0-83.35-46.18C528.16,491.02,472.96,493.28,472.96,493.28z"/>
			<path class="st12" d="M510.13,411.05c0,0-48.43,11.26-57.45,54.07c-9.01,42.8,39.42,112.64,148.69,81.1
				C710.64,514.68,510.13,411.05,510.13,411.05z"/>
			<polygon class="st13" points="719.02,530.45 758.44,625.07 794.21,620.56 744.93,512.43 			"/>
			<polygon class="st14" points="800.23,471.85 863.17,606.56 776.49,615.08 730.69,512.91 			"/>
			<polygon class="st13" points="862.71,657.6 764.93,765.87 645.31,765.87 757.96,662.24 			"/>
			<path class="st15" d="M838.84,684.03c-20.31,5.99-57.08,17.8-67.91,27.71c-15.22,13.92-40.24,54.14-40.24,54.14h34.24
				L838.84,684.03z"/>
			<polygon class="st13" points="645.31,765.87 705.75,765.87 808.59,660 757.96,662.24 			"/>
			<path class="st11" d="M705.75,765.87l92.84-95.57c-13.11-2.48-28.11-5.02-41.56-7.2l-27.98,25.74
				c1.45,5.48,3.74,10.79,7.39,14.06c10.18,9.11,6.22,7.97-17.41,26.18c-15.58,12.01-28.43,27.56-35.41,36.8H705.75z"/>
			<path class="st16" d="M868.13,585.64c0,0,48.26,31.54,14.66,79.98l-117.86,31.54c0,0-30.63-2.25-28.38-33.8
				c2.25-31.54,3.81-42.34,28.38-52.14C789.49,601.41,868.13,585.64,868.13,585.64z"/>
			<path class="st13" d="M764.93,697.16l7.76-2.07c4.84-10.82,7.44-24.39,6.66-38.55c-1.27-22.98-15.46-34.06-26.32-39.31
				c-13.27,8.81-14.66,20.75-16.48,46.14C734.29,694.9,764.93,697.16,764.93,697.16z"/>
			<path class="st17" d="M1041.08,524.31c0,0-98.4,14.46-150.21,0.73c-51.81-13.74-84.48-46.41-84.48-46.41s-60.82,59.7-93.49,67.59
				c-32.67,7.89-130.66,19.15-171.21-7.88c-40.55-27.04-70.97-95.75-40.55-144.18c30.41-48.44,140.8-102.51,241.05-123.91
				c100.25-21.4,102.97-40.29,114.89,18.02C869,346.58,1018.95,513.67,1041.08,524.31z"/>
			<g>
				<path class="st18" d="M712.89,546.22c25.58-6.17,68.3-44.01,85.69-60.19c-0.15-0.06-170.34-61.97-164.61-37.96
					c5.73,24.02,46.97,71.93-30.12,64.36c-56.77-5.58-97.19-44.59-114.57-64.77c3.2,36.51,25.51,72.75,52.4,90.68
					C582.23,565.37,680.23,554.1,712.89,546.22z"/>
				<path class="st18" d="M876.63,330.87L798.6,486.02c4.81-4.48,7.79-7.39,7.79-7.39s32.67,32.67,84.48,46.41
					c51.81,13.73,150.21-0.73,150.21-0.73C1023.11,515.66,920.81,403.82,876.63,330.87z"/>
			</g>
			<g>
				<path class="st19" d="M882.98,244.34c0,0-23.65,60.83-11.26,120.52c12.39,59.7,45.06,140.8,132.92,157.7
					c87.86,16.9,104.76-57.45,109.26-81.1c4.5-23.66,38.3-99.13-75.47-148.69C924.66,243.21,887.04,232.03,882.98,244.34z"/>
				<path class="st20" d="M891.99,263.49c0,0-20.7,58.89,0,129.54c20.71,70.65,81.1,98,117.15,108.13
					c36.04,10.14,78.85-24.78,86.73-64.21c7.89-39.42,18.02-91.24-45.06-118.27C987.74,291.65,895.47,250.79,891.99,263.49z"/>
				<path class="st21" d="M1050.82,318.68c-63.08-27.03-155.35-67.89-158.82-55.2c0,0-0.09,0.25-0.17,0.51
					c37.46,12.16,180.11,60.33,193.96,92.9c15.41,36.27,11.25,127.52-80.77,143.02c1.39,0.42,2.81,0.87,4.14,1.24
					c36.04,10.14,78.85-24.78,86.73-64.21C1103.76,397.53,1113.9,345.72,1050.82,318.68z"/>
				<path class="st21" d="M1046.01,378.79c0,38.26-31.01,69.28-69.28,69.28c-38.26,0-69.27-31.02-69.27-69.28
					c0-38.26,31.02-69.27,69.27-69.27C1014.99,309.52,1046.01,340.53,1046.01,378.79z"/>
				<path class="st22" d="M1030.69,378.79c0,32.29-26.17,58.46-58.46,58.46c-32.29,0-58.46-26.18-58.46-58.46
					c0-32.29,26.18-58.46,58.46-58.46C1004.52,320.33,1030.69,346.5,1030.69,378.79z"/>
				<path class="st23" d="M1009.27,378.79c0,20.45-16.58,37.03-37.03,37.03c-20.45,0-37.03-16.58-37.03-37.03
					c0-20.45,16.58-37.03,37.03-37.03C992.69,341.76,1009.27,358.34,1009.27,378.79z"/>
				<path class="st24" d="M958.41,335.47c-21.23,0-21.23,32.92,0,32.92C979.64,368.39,979.64,335.47,958.41,335.47z"/>
			</g>
			<g>
				<path class="st19" d="M852.41,242.68c0,0,23.65,60.83,11.26,120.52c-12.39,59.7-45.06,140.8-132.92,157.7
					c-87.86,16.9-108.63-57.45-113.14-81.1c-4.51-23.66-34.42-99.13,79.35-148.69C810.73,241.55,848.35,230.38,852.41,242.68z"/>
				<path class="st20" d="M843.4,261.83c0,0,20.7,58.89,0,129.54c-20.71,70.65-81.1,98-117.15,108.13
					c-36.04,10.14-78.85-24.78-86.73-64.2c-7.89-39.42-18.02-91.24,45.06-118.27C747.65,289.99,839.92,249.13,843.4,261.83z"/>
				<g>
					<path class="st21" d="M689.38,377.13c0,38.26,31.01,69.28,69.28,69.28c38.26,0,69.27-31.02,69.27-69.28
						c0-38.26-31.02-69.27-69.27-69.27C720.4,307.86,689.38,338.88,689.38,377.13z"/>
					<path class="st22" d="M704.7,377.13c0,32.29,26.17,58.46,58.46,58.46c32.29,0,58.46-26.18,58.46-58.46
						c0-32.29-26.18-58.46-58.46-58.46C730.87,318.67,704.7,344.85,704.7,377.13z"/>
					<path class="st25" d="M725.49,377.13c0,20.81,16.87,37.67,37.67,37.67s37.67-16.87,37.67-37.67
						c0-20.81-16.87-37.67-37.67-37.67S725.49,356.33,725.49,377.13z"/>
					<path class="st24" d="M776.98,333.81c21.23,0,21.23,32.92,0,32.92C755.75,366.73,755.75,333.81,776.98,333.81z"/>
				</g>
				<path class="st21" d="M843.4,391.37c20.7-70.65,0-129.54,0-129.54c-0.71-2.59-5.17-2.92-12.27-1.62
					c8.33,30.54,33.49,128.69-34.48,191.5c-57.49,53.12-123.3,37.68-155.56-10.24c10.84,36.8,51.01,67.65,85.16,58.04
					C762.29,489.36,822.69,462.02,843.4,391.37z"/>
			</g>
			<path class="st13" d="M583.35,583.39c-38.77,13.24-91.02,4.24-90.13-26.32c-15.65-2.27-29.25-0.82-27.74,11.68
				c3.41,28.3,47.56,41.95,143.86,39.68c81.01-1.91,126.08-8.45,115.98-27.51C686.39,571.21,621.71,570.29,583.35,583.39z"/>
			<path class="st26" d="M882.79,665.62c33.6-48.44-14.66-79.98-14.66-79.98s-78.64,15.77-103.2,25.58
				c-7.71,3.08-13.15,6.25-17.06,10.13c29.2-9.15,105.39-30.8,120.26-12.68c13.83,16.86,15.4,41.5,8.63,58.56L882.79,665.62z"/>
			<path class="st26" d="M498.49,512.43c-19.3-26.61-17.16-66.71-13.6-90.45c-13.26,8.16-27.68,21.69-32.19,43.14
				c-1.22,5.81-1.35,12.13-0.45,18.62C483.87,543.52,527.21,552.04,498.49,512.43z"/>
			<g>
				<path class="st22" d="M831.92,166.71c-6.71-4.57-13.48-8.38-20.35-11.2c-6.85-2.8-13.76-4.56-20.36-4.74
					c-6.6-0.21-12.85,1.01-18.76,3.5c-5.92,2.47-11.52,6.22-16.83,10.67c-5.32,4.46-10.31,9.67-15.13,15.21
					c-4.83,5.54-9.4,11.51-13.95,17.62c-4.56,6.11-9.01,12.44-13.52,18.85l-6.87,9.66c-2.36,3.22-4.67,6.49-7.26,9.67
					c0.47-4.05,1.15-8.05,2.04-11.99c0.83-3.96,1.91-7.84,3.03-11.73c2.31-7.75,5.26-15.3,8.72-22.7c3.5-7.38,7.6-14.56,12.5-21.37
					c4.9-6.8,10.53-13.27,17.27-18.91c6.71-5.61,14.57-10.48,23.5-13.26c8.87-2.83,18.73-3.28,27.67-1.1
					c8.96,2.17,16.87,6.6,23.29,12.15c3.21,2.8,6.11,5.84,8.63,9.14C828.06,159.46,830.3,162.94,831.92,166.71z"/>
			</g>
			<g>
				<path class="st22" d="M912.86,169.1c0.83-3.39,2.19-6.6,3.76-9.71c1.57-3.12,3.46-6.09,5.6-8.95
					c4.32-5.66,9.81-10.81,16.82-14.48c3.5-1.82,7.39-3.2,11.53-3.92c4.12-0.71,8.48-0.8,12.67-0.1c4.21,0.66,8.24,2.01,11.92,3.77
					c3.69,1.77,7.02,3.96,10.07,6.36c6.04,4.84,10.85,10.5,14.89,16.4c4.04,5.92,7.27,12.13,9.94,18.49
					c5.26,12.75,8.58,25.98,9.24,39.78c-2.27-2.65-4.25-5.39-6.26-8.08c-1.98-2.71-3.92-5.4-5.82-8.08
					c-3.8-5.36-7.49-10.66-11.24-15.76c-3.74-5.1-7.46-10.07-11.37-14.62c-3.9-4.55-7.94-8.73-12.15-12.12
					c-4.23-3.36-8.57-5.86-13.03-7.12c-2.24-0.64-4.53-0.97-6.93-0.98c-2.4-0.05-4.91,0.28-7.51,0.9c-5.22,1.2-10.63,3.76-16,6.93
					C923.59,161.03,918.31,164.87,912.86,169.1z"/>
			</g>
			<g>
				<path class="st22" d="M801.16,530.96c0.55-2.4,1.47-4.62,2.49-6.76c1.04-2.14,2.24-4.19,3.56-6.16
					c2.66-3.93,5.83-7.53,9.48-10.7c3.65-3.17,7.76-5.95,12.33-8.1c4.56-2.15,9.56-3.69,14.78-4.37c5.22-0.68,10.66-0.49,15.85,0.71
					c5.18,1.24,10.04,3.42,14.29,6.23c2.04,1.52,4.1,2.98,5.81,4.79c0.44,0.43,0.88,0.87,1.31,1.31c0.42,0.45,0.88,0.85,1.25,1.35
					c0.76,0.97,1.53,1.91,2.25,2.88c0.35,0.49,0.72,0.97,1.06,1.47c0.32,0.52,0.65,1.02,0.94,1.55c0.6,1.05,1.21,2.07,1.75,3.14
					c1.05,2.15,1.89,4.42,2.55,6.74c-2.37-0.79-4.44-1.75-6.5-2.62c-1.07-0.39-2.07-0.83-3.08-1.23c-0.51-0.2-0.99-0.43-1.47-0.64
					c-0.5-0.2-1.01-0.36-1.51-0.54l-2.9-1.1c-0.96-0.36-1.94-0.6-2.87-0.93c-1.85-0.7-3.75-1.06-5.52-1.61
					c-3.64-0.8-7.08-1.37-10.46-1.59c-3.39-0.18-6.72-0.01-10.1,0.41c-6.76,0.84-13.8,2.95-21.24,5.79
					c-3.71,1.43-7.55,2.99-11.5,4.69l-6.08,2.59C805.55,529.16,803.43,530.06,801.16,530.96z"/>
			</g>
		</g>
		<path class="st19" d="M1115.03,754.61H685.86c0,0-283.86,28.16-283.86,36.04c0,7.89,6.76,254.57,6.76,254.57l28.01,239.93
			c0,0,674.88-38.29,678.26-47.31C1118.4,1228.84,1122.91,760.24,1115.03,754.61z"/>
		<path class="st27" d="M1119.22,871.14h-52.81c0,0,32.9,291.3-401.14,336.39c-168.24,17.48-227.53,46.86-223.61,77.35
			c60.59-3.46,670.14-38.46,673.36-47.03C1117.33,1231.7,1120.15,1012.18,1119.22,871.14z"/>
		<g>
			<path class="st28" d="M1115.03,754.61H685.86c0,0-4.28,0.42-11.76,1.18l3.84,171.7c1.92,0.57,339.51-9.72,441.45-12.84
				C1119.26,827.74,1118.06,756.78,1115.03,754.61z"/>
			<path class="st29" d="M1034.49,917.23c34.68-1.05,64.51-1.97,84.9-2.59c-0.13-86.9-1.33-157.86-4.37-160.03h-83.77
				L1034.49,917.23z"/>
			<path class="st30" d="M923.53,920.58c42.27-1.27,84.07-2.53,119.95-3.62V754.61H923.53V920.58z"/>
			<path class="st29" d="M687.6,755.79l3.72,171.7c0.65,0.2,41.27-0.94,98-2.63l-3.81-170.25H699
				C699,754.61,694.85,755.03,687.6,755.79z"/>
			<rect x="796.15" y="837.6" class="st31" width="50.97" height="76.16"/>
			<rect x="811.93" y="861.17" class="st32" width="19.41" height="29"/>
			<path class="st33" d="M964.08,794.59c0,7.78-6.3,14.08-14.08,14.08c-7.78,0-14.08-6.31-14.08-14.08c0-7.78,6.3-14.08,14.08-14.08
				C957.78,780.51,964.08,786.82,964.08,794.59z"/>
			<path class="st34" d="M1031.67,787.55c0,3.89-4.66,7.04-10.42,7.04h-39.99c-5.75,0-10.42-3.15-10.42-7.04l0,0
				c0-3.89,4.66-7.04,10.42-7.04h39.99C1027.01,780.51,1031.67,783.66,1031.67,787.55L1031.67,787.55z"/>
			<path class="st34" d="M1031.67,808.68c0,3.89-4.66,7.04-10.42,7.04h-39.99c-5.75,0-10.42-3.15-10.42-7.04l0,0
				c0-3.89,4.66-7.04,10.42-7.04h39.99C1027.01,801.64,1031.67,804.79,1031.67,808.68L1031.67,808.68z"/>
			<path class="st34" d="M1031.67,829.44c0,3.89-4.66,7.04-10.42,7.04h-39.99c-5.75,0-10.42-3.15-10.42-7.04l0,0
				c0-3.89,4.66-7.04,10.42-7.04h39.99C1027.01,822.4,1031.67,825.56,1031.67,829.44L1031.67,829.44z"/>
			<path class="st34" d="M1031.67,852.05c0,3.89-4.66,7.04-10.42,7.04h-39.99c-5.75,0-10.42-3.15-10.42-7.04l0,0
				c0-3.89,4.66-7.04,10.42-7.04h39.99C1027.01,845.01,1031.67,848.16,1031.67,852.05L1031.67,852.05z"/>
			<path class="st34" d="M1031.67,873.18c0,3.89-4.66,7.04-10.42,7.04h-39.99c-5.75,0-10.42-3.15-10.42-7.04l0,0
				c0-3.89,4.66-7.04,10.42-7.04h39.99C1027.01,866.14,1031.67,869.29,1031.67,873.18L1031.67,873.18z"/>
			<path class="st34" d="M1031.67,893.94c0,3.89-4.66,7.04-10.42,7.04h-39.99c-5.75,0-10.42-3.15-10.42-7.04l0,0
				c0-3.89,4.66-7.04,10.42-7.04h39.99C1027.01,886.9,1031.67,890.05,1031.67,893.94L1031.67,893.94z"/>
			<g>
				<path class="st30" d="M830.41,788.13c0,1.84-0.71,3.33-1.58,3.33h-26.09c-0.87,0-1.58-1.49-1.58-3.33l0,0
					c0-1.84,0.71-3.33,1.58-3.33h26.09C829.7,784.8,830.41,786.29,830.41,788.13L830.41,788.13z"/>
				<path class="st30" d="M830.41,788.13c0,1.84-0.71,3.33-1.58,3.33h-26.09c-0.87,0-1.58-1.49-1.58-3.33l0,0
					c0-1.84,0.71-3.33,1.58-3.33h26.09C829.7,784.8,830.41,786.29,830.41,788.13L830.41,788.13z"/>
				<path class="st30" d="M871.84,788.13c0,1.84-0.71,3.33-1.58,3.33h-26.09c-0.87,0-1.58-1.49-1.58-3.33l0,0
					c0-1.84,0.71-3.33,1.58-3.33h26.09C871.13,784.8,871.84,786.29,871.84,788.13L871.84,788.13z"/>
				<path class="st30" d="M913.27,788.13c0,1.84-0.71,3.33-1.58,3.33H885.6c-0.87,0-1.58-1.49-1.58-3.33l0,0
					c0-1.84,0.7-3.33,1.58-3.33h26.09C912.56,784.8,913.27,786.29,913.27,788.13L913.27,788.13z"/>
				<path class="st30" d="M830.41,788.13c0,1.84-0.71,3.33-1.58,3.33h-26.09c-0.87,0-1.58-1.49-1.58-3.33l0,0
					c0-1.84,0.71-3.33,1.58-3.33h26.09C829.7,784.8,830.41,786.29,830.41,788.13L830.41,788.13z"/>
				<path class="st30" d="M830.41,788.13c0,1.84-0.71,3.33-1.58,3.33h-26.09c-0.87,0-1.58-1.49-1.58-3.33l0,0
					c0-1.84,0.71-3.33,1.58-3.33h26.09C829.7,784.8,830.41,786.29,830.41,788.13L830.41,788.13z"/>
				<path class="st30" d="M871.84,788.13c0,1.84-0.71,3.33-1.58,3.33h-26.09c-0.87,0-1.58-1.49-1.58-3.33l0,0
					c0-1.84,0.71-3.33,1.58-3.33h26.09C871.13,784.8,871.84,786.29,871.84,788.13L871.84,788.13z"/>
				<path class="st30" d="M913.27,788.13c0,1.84-0.71,3.33-1.58,3.33H885.6c-0.87,0-1.58-1.49-1.58-3.33l0,0
					c0-1.84,0.7-3.33,1.58-3.33h26.09C912.56,784.8,913.27,786.29,913.27,788.13L913.27,788.13z"/>
				<path class="st30" d="M830.41,799.36c0,1.84-0.71,3.33-1.58,3.33h-26.09c-0.87,0-1.58-1.49-1.58-3.33l0,0
					c0-1.84,0.71-3.33,1.58-3.33h26.09C829.7,796.02,830.41,797.51,830.41,799.36L830.41,799.36z"/>
				<path class="st30" d="M830.41,799.36c0,1.84-0.71,3.33-1.58,3.33h-26.09c-0.87,0-1.58-1.49-1.58-3.33l0,0
					c0-1.84,0.71-3.33,1.58-3.33h26.09C829.7,796.02,830.41,797.51,830.41,799.36L830.41,799.36z"/>
				<path class="st30" d="M871.84,799.36c0,1.84-0.71,3.33-1.58,3.33h-26.09c-0.87,0-1.58-1.49-1.58-3.33l0,0
					c0-1.84,0.71-3.33,1.58-3.33h26.09C871.13,796.02,871.84,797.51,871.84,799.36L871.84,799.36z"/>
				<path class="st30" d="M913.27,799.36c0,1.84-0.71,3.33-1.58,3.33H885.6c-0.87,0-1.58-1.49-1.58-3.33l0,0
					c0-1.84,0.7-3.33,1.58-3.33h26.09C912.56,796.02,913.27,797.51,913.27,799.36L913.27,799.36z"/>
				<path class="st30" d="M830.41,810.58c0,1.84-0.71,3.33-1.58,3.33h-26.09c-0.87,0-1.58-1.49-1.58-3.33l0,0
					c0-1.84,0.71-3.33,1.58-3.33h26.09C829.7,807.25,830.41,808.74,830.41,810.58L830.41,810.58z"/>
				<path class="st30" d="M830.41,810.58c0,1.84-0.71,3.33-1.58,3.33h-26.09c-0.87,0-1.58-1.49-1.58-3.33l0,0
					c0-1.84,0.71-3.33,1.58-3.33h26.09C829.7,807.25,830.41,808.74,830.41,810.58L830.41,810.58z"/>
				<path class="st30" d="M871.84,810.58c0,1.84-0.71,3.33-1.58,3.33h-26.09c-0.87,0-1.58-1.49-1.58-3.33l0,0
					c0-1.84,0.71-3.33,1.58-3.33h26.09C871.13,807.25,871.84,808.74,871.84,810.58L871.84,810.58z"/>
				<path class="st30" d="M913.27,810.58c0,1.84-0.71,3.33-1.58,3.33H885.6c-0.87,0-1.58-1.49-1.58-3.33l0,0
					c0-1.84,0.7-3.33,1.58-3.33h26.09C912.56,807.25,913.27,808.74,913.27,810.58L913.27,810.58z"/>
				<path class="st30" d="M830.41,821.81c0,1.84-0.71,3.33-1.58,3.33h-26.09c-0.87,0-1.58-1.49-1.58-3.33l0,0
					c0-1.84,0.71-3.33,1.58-3.33h26.09C829.7,818.48,830.41,819.97,830.41,821.81L830.41,821.81z"/>
				<path class="st30" d="M830.41,821.81c0,1.84-0.71,3.33-1.58,3.33h-26.09c-0.87,0-1.58-1.49-1.58-3.33l0,0
					c0-1.84,0.71-3.33,1.58-3.33h26.09C829.7,818.48,830.41,819.97,830.41,821.81L830.41,821.81z"/>
				<path class="st30" d="M871.84,821.81c0,1.84-0.71,3.33-1.58,3.33h-26.09c-0.87,0-1.58-1.49-1.58-3.33l0,0
					c0-1.84,0.71-3.33,1.58-3.33h26.09C871.13,818.48,871.84,819.97,871.84,821.81L871.84,821.81z"/>
				<path class="st30" d="M913.27,821.81c0,1.84-0.71,3.33-1.58,3.33H885.6c-0.87,0-1.58-1.49-1.58-3.33l0,0
					c0-1.84,0.7-3.33,1.58-3.33h26.09C912.56,818.48,913.27,819.97,913.27,821.81L913.27,821.81z"/>
			</g>
			<path class="st6" d="M1115.08,754.61H699c0,0-4.37,0.45-12.01,1.24v17.91l429.83-7.61
				C1116.33,759.2,1115.75,755.1,1115.08,754.61z"/>
		</g>
		<path class="st18" d="M687.74,754.61h-1.89c0,0-283.86,28.16-283.86,36.04c0,7.89,6.76,254.57,6.76,254.57l28.01,239.93
			c0,0,123.89-7.03,265.77-15.77C698.97,1155.74,689.47,848.54,687.74,754.61z"/>
		<path class="st17" d="M687.74,754.61h-1.89c0,0-283.86,28.16-283.86,36.04c0,0.24,0.01,0.72,0.02,1.39
			c70.32,20.5,216.98,62.69,288.6,79.1C689.27,821.92,688.21,780.27,687.74,754.61z"/>
		<g>
			<path class="st26" d="M1100.38,949.48l-94.62-30.41c0,0-3.38,192.62,0,196c3.38,3.37,37.73,11.26,37.73,11.26L1100.38,949.48z"/>
			<path class="st26" d="M1130.8,963l-61.95,170.09c0,0,40.75,18.02,47.97,15.77c7.22-2.25,110.85-156.57,110.85-156.57L1130.8,963z
				"/>
			<path class="st35" d="M1063.21,905.55c0,0-23.66,47.31-19.15,50.69c4.51,3.38,129.54,45.06,134.05,41.68
				c4.5-3.38,19.15-50.69,14.64-55.2c-4.5-4.51-25.91-13.51-25.91-13.51s4.51-40.55-28.16-48.44
				c-32.67-7.89-47.31,30.41-51.82,30.41C1082.36,911.18,1067.19,897.36,1063.21,905.55z"/>
			<path class="st12" d="M1004.39,1028.74c-0.31,43.97-0.17,84.79,1.37,86.33c3.38,3.37,37.73,11.26,37.73,11.26l22.93-71.28
				L1004.39,1028.74z"/>
			<path class="st12" d="M1091.65,1070.47l-22.81,62.61c0,0,40.75,18.02,47.97,15.77c2.82-0.88,20.37-25,40.7-54.03L1091.65,1070.47
				z"/>
		</g>
		<polygon class="st11" points="677.94,945.28 758.65,975.49 743.12,1019.88 665.28,996.59 		"/>
		<g>
			<path class="st26" d="M792.56,1027l94.62-30.41c0,0,3.38,192.62,0,195.99c-3.38,3.39-37.73,11.27-37.73,11.27L792.56,1027z"/>
			<path class="st26" d="M762.15,1040.52l61.95,170.09c0,0-40.75,18.02-47.97,15.77c-7.22-2.25-110.85-156.57-110.85-156.57
				L762.15,1040.52z"/>
			<path class="st35" d="M829.73,983.07c0,0,23.66,47.31,19.15,50.69c-4.5,3.38-129.54,45.05-134.05,41.68
				c-4.5-3.39-19.15-50.69-14.64-55.2c4.51-4.51,25.91-13.51,25.91-13.51s-4.51-40.55,28.16-48.44
				c32.67-7.89,47.31,30.41,51.82,30.41C810.58,988.7,825.75,974.88,829.73,983.07z"/>
			<path class="st12" d="M888.55,1106.27c0.31,43.97,0.17,84.78-1.37,86.32c-3.38,3.39-37.73,11.27-37.73,11.27l-22.93-71.28
				L888.55,1106.27z"/>
			<path class="st12" d="M801.29,1147.99l22.81,62.62c0,0-40.75,18.02-47.97,15.77c-2.82-0.88-20.37-24.99-40.7-54.03
				L801.29,1147.99z"/>
		</g>
		<g>
			<path class="st36" d="M350.19,807.55c3.27,0.82,355.51,99.12,352.35,104.76c-3.16,5.63-32.45,111.52-38.08,107.57
				c-5.63-3.94-352.57-90.67-352.57-100.81C311.89,908.93,343.29,805.81,350.19,807.55z"/>
			<path class="st35" d="M333.34,844.23c-3.44,9.94-6.94,20.8-10.09,31.12c20.8,8.58,63.25,25.97,67.48,26.82
				c5.63,1.13,6.76-22.53,11.26-26.69C405.38,872.36,357.56,853.5,333.34,844.23z"/>
			<path class="st37" d="M695.81,932.81c-41.06-12.28-256.12-76.29-259.04-71.19c-3.23,5.63-22.38,73.22-16.75,73.22
				c4.83,0,197.25,56.44,251.64,72.42C678.8,988.91,689.04,954.85,695.81,932.81z"/>
			<g>
				<path class="st38" d="M448.93,942.55c15.93,4.48,37.12,10.57,60.33,17.29l-21.09-86.89c-29.65-7.95-50.51-12.89-51.4-11.33
					c-0.36,0.63-0.93,2.07-1.63,4.06L448.93,942.55z"/>
				<path class="st38" d="M574.29,897.1c-16.07-4.63-32.22-9.24-47.53-13.54l21.08,87.48c16.59,4.83,33.27,9.69,49.04,14.31
					L574.29,897.1z"/>
				<path class="st38" d="M677.94,989.65l-22.1-68.72c-13.75-4.06-29.65-8.75-46.5-13.66l23.27,88.53
					c16.04,4.7,29.63,8.69,39.06,11.46C673.57,1002.35,675.71,996.29,677.94,989.65z"/>
			</g>
		</g>
		<g>
			<path class="st5" d="M570.96,1022.7c0,0-18.57-17.36-44.2-15.44c-25.64,1.92-168.69,14.31-182.21,36.84
				c-13.51,22.53-123.91,226.41-114.89,281.6c9.01,55.2,75.47,86.74,140.8,119.41c65.34,32.66,147.56,83.35,234.3,56.31
				c86.73-27.03,185.3-49.56,185.58-105.88c0.28-56.33-4.23-84.48-50.41-146.44C693.74,1187.15,570.96,1022.7,570.96,1022.7z"/>
			<g>
				<path class="st6" d="M561.82,1303.17l191.99-34.55c-4.17-6.16-8.73-12.6-13.89-19.52c-9.37-12.58-21.93-29.41-35.95-48.2
					l-183.08,31.3L561.82,1303.17z"/>
				<path class="st6" d="M596.88,1429.34c2.24,5.63,2.24,37.17-22.54,51.81c-24.78,14.64-34.79,23.43-75.97,20.17c0,0,0,0,0,0
					c34.04,9.06,69.81,11.51,106.39,0.11c86.73-27.03,185.3-49.56,185.58-105.88c0.01-3.63,0.01-7.13-0.02-10.54
					C742.3,1394.64,595.01,1424.62,596.88,1429.34z"/>
				<path class="st6" d="M789.63,1364.96c-1.83-28.5-8.04-51.36-26.45-81.75l-192.22,44.75c0,0,23.68,58.57,25.92,76.59
					L789.63,1364.96z"/>
				<path class="st6" d="M386.23,1048.6c25.13,18.85,25.13,18.85,25.13,18.85l168.75-32.51c-5.77-7.72-9.14-12.24-9.14-12.24
					s-18.57-17.36-44.2-15.44c-23.42,1.75-144.8,12.25-175.91,31.24C362.33,1038.35,375.45,1040.51,386.23,1048.6z"/>
				<path class="st6" d="M462.82,1149.05l44.4,65.14l184.44-29.79c-15.18-20.34-31.42-42.1-46.92-62.87L462.82,1149.05z"/>
				<path class="st6" d="M450.43,1134.21l183.05-27.76c-15.45-20.7-29.6-39.65-40.54-54.3l-180.09,28.18L450.43,1134.21z"/>
			</g>
			<g>
				<path class="st7" d="M398.12,1289.95c0,52.5-27.99,95.06-62.52,95.06c-34.52,0-62.51-42.56-62.51-95.06
					c0-52.51,27.99-95.07,62.51-95.07C370.13,1194.88,398.12,1237.44,398.12,1289.95z"/>
				<path class="st8" d="M374.84,1288.68c0,41.15-19.2,74.5-42.89,74.5c-23.69,0-42.89-33.36-42.89-74.5
					c0-41.14,19.2-74.49,42.89-74.49C355.64,1214.19,374.84,1247.54,374.84,1288.68z"/>
			</g>
			<g>
				<path class="st7" d="M547.49,1395.72c0,34.14-20.26,61.82-45.25,61.82c-24.99,0-45.25-27.68-45.25-61.82
					c0-34.15,20.26-61.83,45.25-61.83C527.24,1333.89,547.49,1361.57,547.49,1395.72z"/>
				<path class="st8" d="M530.64,1394.89c0,26.76-13.9,48.46-31.05,48.46c-17.15,0-31.04-21.7-31.04-48.46
					c0-26.76,13.9-48.44,31.04-48.44C516.74,1346.45,530.64,1368.14,530.64,1394.89z"/>
			</g>
			<path class="st9" d="M412.86,1131.67c0,32.18-16.02,58.28-35.77,58.28c-19.75,0-35.76-26.1-35.76-58.28
				c0-32.19,16.01-58.29,35.76-58.29C396.84,1073.38,412.86,1099.48,412.86,1131.67z"/>
			<path class="st9" d="M486.64,1239.32c0,27.26-15.15,49.36-33.83,49.36c-18.68,0-33.82-22.1-33.82-49.36
				c0-27.26,15.14-49.37,33.82-49.37C471.49,1189.95,486.64,1212.06,486.64,1239.32z"/>
			<path class="st6" d="M552.27,1493.85c-58.33,9.6-151.66-47.16-201.42-72.77c-49.75-25.61-95.48-47.47-109.02-90.48
				c-13.54-43.01,70-203.16,99.5-263.14c29.5-59.98,93.81-38.72,93.81-38.72l-7.63-10.22c-39.34,6.12-76.4,14.65-82.95,25.59
				c-13.51,22.53-123.91,226.41-114.89,281.6c9.01,55.2,75.47,86.74,140.8,119.41c58.5,29.24,130.55,72.9,207.25,62.31
				C578.02,1497.19,571.6,1490.66,552.27,1493.85z"/>
			<path class="st10" d="M570.96,1022.7c0,0-18.57-17.36-44.2-15.44c-16.09,1.21-78.42,6.54-125.96,15.91
				c23.47,6.23,53.77,25.19,78.97,77.06c48.88,100.61,137.33,233.5,153.71,296.81c13.32,51.49,66.18,56.59,140.28,34.65
				c10.42-10.37,16.51-22.22,16.58-36.14c0.28-56.33-4.23-84.48-50.41-146.44C693.74,1187.15,570.96,1022.7,570.96,1022.7z"/>
		</g>
	</g>
</g>
</svg>
