<?xml version="1.0" encoding="utf-8"?>
<!-- Generator: Adobe Illustrator 25.2.1, SVG Export Plug-In . SVG Version: 6.00 Build 0)  -->
<svg version="1.1" id="Layer_1" xmlns="http://www.w3.org/2000/svg" xmlns:xlink="http://www.w3.org/1999/xlink" x="0px" y="0px"
	 viewBox="0 0 1024 1093.94" style="enable-background:new 0 0 1024 1093.94;" xml:space="preserve">
<style type="text/css">
	.st0{fill:#FFFFFF;stroke:#231F20;stroke-miterlimit:10;}
	.st1{fill:#1C1E26;}
	.st2{fill:#DAE8D9;}
	.st3{fill:#DBD5D0;}
	.st4{fill:#231F20;}
	.st5{fill:#E82A3D;}
	.st6{fill:#F9C0B3;}
	.st7{fill:none;stroke:#231F20;stroke-width:2.1065;stroke-linecap:round;stroke-linejoin:round;stroke-miterlimit:10;}
	.st8{fill:#FFFFFF;}
	.st9{fill:#F5F5F5;}
	.st10{fill:#EB2D3F;}
	.st11{fill:#FFEB97;}
</style>
<rect x="-0.8" class="st0" width="1024" height="1093.94"/>
<rect y="1023.94" class="st1" width="1024" height="70"/>
<g>
	<g>
		<g>
			<path class="st2" d="M278.12,1043.38h5.2c4.09,0,7.46,1.08,10.11,3.2c2.67,2.14,4,5.19,4,9.15c0,4.08-1.32,7.2-3.96,9.36
				c-2.65,2.17-6.06,3.24-10.24,3.24h-5.1V1043.38z M281.25,1065.5h1.1c1.62,0,3.16-0.16,4.6-0.48c1.45-0.33,2.71-0.86,3.79-1.62
				c1.07-0.78,1.94-1.77,2.58-2.99c0.64-1.22,0.97-2.74,0.97-4.55c0-1.79-0.32-3.32-0.95-4.59c-0.63-1.28-1.51-2.26-2.66-2.97
				c-1.12-0.72-2.38-1.25-3.75-1.58c-1.37-0.35-2.9-0.5-4.59-0.5h-1.1V1065.5z"/>
			<path class="st2" d="M302.03,1061.1c0.04,1.38,0.49,2.59,1.33,3.61c0.87,1.02,1.99,1.51,3.36,1.51c1.09,0,1.98-0.25,2.69-0.75
				c0.7-0.51,1.36-1.25,1.98-2.26l2.54,1.43c-0.73,1.32-1.75,2.35-3.03,3.12c-1.28,0.74-2.68,1.11-4.21,1.11
				c-2.34,0-4.2-0.76-5.6-2.31c-1.38-1.59-2.07-3.51-2.07-5.83c0-2.43,0.66-4.45,1.98-6.01c1.29-1.56,3.17-2.31,5.64-2.31
				c2.41,0,4.21,0.75,5.44,2.31c1.24,1.54,1.87,3.52,1.87,5.93v0.46H302.03z M310.93,1058.85c-0.19-1.2-0.63-2.15-1.39-2.83
				c-0.75-0.7-1.72-1.05-2.92-1.05c-0.57,0-1.12,0.08-1.62,0.27c-0.51,0.2-0.94,0.48-1.33,0.82c-0.38,0.36-0.71,0.77-0.98,1.25
				c-0.25,0.49-0.42,0.99-0.5,1.55H310.93z"/>
			<path class="st2" d="M322.77,1056.4c-0.45-0.92-1.11-1.37-2-1.37c-0.42,0-0.8,0.15-1.13,0.45c-0.34,0.3-0.5,0.67-0.5,1.08
				c0,0.4,0.13,0.75,0.38,1.02c0.25,0.28,0.6,0.53,1.05,0.78c0.29,0.13,0.51,0.25,0.67,0.3c0.15,0.09,0.4,0.21,0.77,0.37
				c0.17,0.07,0.34,0.16,0.46,0.2c0.13,0.04,0.23,0.08,0.3,0.12c1.1,0.51,1.99,1.09,2.64,1.76c0.64,0.65,0.97,1.55,0.97,2.64
				c0,1.46-0.54,2.69-1.6,3.67c-1.04,0.98-2.31,1.46-3.77,1.46c-0.61,0-1.19-0.08-1.74-0.25c-0.55-0.15-1.07-0.39-1.56-0.69
				c-0.48-0.3-0.89-0.66-1.26-1.09c-0.37-0.44-0.65-0.92-0.85-1.43l2.57-1.15c0.73,1.32,1.68,1.97,2.84,1.97
				c0.47,0,0.9-0.12,1.29-0.38c0.41-0.25,0.71-0.57,0.89-0.95c0.19-0.4,0.23-0.81,0.12-1.28c-0.11-0.43-0.45-0.87-1.03-1.27
				l-2.95-1.55c-0.5-0.26-0.95-0.53-1.33-0.8c-0.38-0.27-0.69-0.55-0.93-0.84c-0.25-0.3-0.43-0.63-0.56-0.98
				c-0.12-0.38-0.18-0.79-0.18-1.28c0-1.26,0.44-2.32,1.34-3.19c0.89-0.88,1.97-1.31,3.26-1.31c1.96,0,3.38,0.88,4.27,2.71
				L322.77,1056.4z"/>
			<path class="st2" d="M333.54,1045.77c0,0.55-0.2,1.03-0.6,1.42c-0.4,0.4-0.89,0.6-1.46,0.6c-0.58,0-1.07-0.19-1.47-0.6
				c-0.4-0.39-0.6-0.87-0.6-1.42c0-0.58,0.2-1.07,0.6-1.48c0.4-0.41,0.89-0.6,1.47-0.6c0.57,0,1.06,0.19,1.46,0.6
				C333.34,1044.7,333.54,1045.18,333.54,1045.77z M332.98,1068.34h-3.01v-15.49h3.01V1068.34z"/>
			<path class="st2" d="M352.39,1068.06c0,2.9-0.55,5.17-1.67,6.79c-1.12,1.58-3.1,2.37-5.94,2.37c-2.2,0-4-0.63-5.4-1.88
				c-1.38-1.25-2.09-2.96-2.13-5.13h2.99c0,1.39,0.44,2.46,1.28,3.24c0.87,0.75,2,1.13,3.4,1.13c1.71,0,2.88-0.49,3.52-1.5
				c0.63-1,0.94-2.38,0.94-4.2v-2.95h-0.07c-0.62,0.95-1.39,1.67-2.31,2.18c-0.92,0.52-1.92,0.77-2.98,0.77
				c-2.32,0-4.15-0.8-5.48-2.41c-1.33-1.62-1.98-3.59-1.98-5.96c0-2.24,0.67-4.12,2.02-5.69c1.36-1.62,3.12-2.41,5.31-2.41
				c2.28,0,4.11,1.04,5.42,3.08h0.07v-2.63h3V1068.06z M344.49,1066.22c1.57,0,2.8-0.54,3.69-1.61c0.91-1.11,1.37-2.45,1.37-4.01
				c0-1.55-0.46-2.86-1.37-3.95c-0.88-1.07-2.12-1.62-3.69-1.62c-1.5,0-2.7,0.55-3.61,1.67c-0.89,1.08-1.34,2.38-1.34,3.9
				c0,1.56,0.45,2.88,1.34,3.97C341.8,1065.69,343,1066.22,344.49,1066.22z"/>
			<path class="st2" d="M359.29,1054.93h0.07c0.43-0.83,1.09-1.44,1.93-1.88c0.85-0.45,1.77-0.65,2.77-0.65
				c1.02,0,1.88,0.14,2.6,0.45c0.7,0.3,1.28,0.74,1.71,1.32c0.44,0.58,0.75,1.27,0.94,2.1c0.19,0.82,0.28,1.78,0.28,2.82v9.24h-3
				v-8.87c0-1.53-0.23-2.64-0.66-3.34c-0.45-0.73-1.37-1.1-2.77-1.1c-0.52,0-0.95,0.05-1.3,0.15c-0.36,0.09-0.67,0.23-0.94,0.42
				c-0.27,0.19-0.49,0.41-0.67,0.65c-0.17,0.25-0.35,0.51-0.5,0.81c-0.07,0.14-0.13,0.35-0.19,0.59c-0.05,0.24-0.1,0.49-0.14,0.73
				c-0.05,0.26-0.09,0.51-0.1,0.77c-0.02,0.26-0.03,0.46-0.03,0.61v1.45v7.12h-3v-15.49h3V1054.93z"/>
			<path class="st2" d="M383.14,1039.61h3v15.82h0.07c1.38-2.03,3.19-3.03,5.44-3.03c2.17,0,3.95,0.8,5.31,2.41
				c1.35,1.56,2.03,3.45,2.03,5.69c0,2.37-0.67,4.34-2,5.96c-1.34,1.61-3.17,2.41-5.47,2.41c-1.06,0-2.06-0.25-2.99-0.77
				c-0.92-0.51-1.69-1.23-2.31-2.18h-0.07v2.42h-3V1039.61z M390.91,1066.22c1.58,0,2.81-0.54,3.7-1.61
				c0.91-1.11,1.36-2.45,1.36-4.01c0-1.55-0.45-2.86-1.36-3.95c-0.89-1.07-2.12-1.62-3.7-1.62c-1.49,0-2.7,0.55-3.61,1.67
				c-0.89,1.08-1.34,2.38-1.34,3.9c0,1.56,0.45,2.88,1.34,3.97C388.21,1065.69,389.42,1066.22,390.91,1066.22z"/>
			<path class="st2" d="M399.41,1052.85h3.5l5.27,9.83l4.91-9.83h3.37l-12.65,24.37h-3.4l6.15-11.53L399.41,1052.85z"/>
			<path class="st2" d="M431.59,1062.08l-2.87,6.26h-3.37l12-26.01l12.01,26.01h-3.37l-2.88-6.26H431.59z M437.36,1049.14
				l-4.47,10.11h8.94L437.36,1049.14z"/>
			<path class="st2" d="M454.26,1068.34h-3v-28.73h3V1068.34z"/>
			<path class="st2" d="M461.66,1068.34h-2.99v-28.73h2.99V1068.34z"/>
			<path class="st2" d="M473.07,1056.5v2.47h-7.29v-2.47H473.07z"/>
			<path class="st2" d="M484.75,1042.62c-0.94-0.43-1.61-0.62-2-0.62c-0.64,0-1.12,0.18-1.4,0.6c-0.29,0.4-0.48,0.9-0.6,1.5
				c-0.06,0.45-0.1,0.79-0.12,1.05c-0.01,0.24-0.02,0.6-0.02,1.03v6.66h4.14v2.78h-4.14v12.71h-2.99v-12.71h-1.37v-2.78h1.37v-7.55
				c0-4.06,1.67-6.09,5.03-6.09c0.74,0,1.43,0.13,2.11,0.4V1042.62z"/>
			<path class="st2" d="M489.39,1055.37h0.09c0.39-0.93,0.94-1.66,1.68-2.18c0.74-0.55,1.6-0.79,2.59-0.79
				c0.83,0,1.65,0.24,2.47,0.75l-1.37,2.72c-0.48-0.42-1.1-0.63-1.83-0.63c-1.53,0-2.56,0.62-3.07,1.84
				c-0.22,0.58-0.38,1.17-0.46,1.72c-0.07,0.55-0.11,1.2-0.11,1.92v7.62h-3v-15.49h3V1055.37z"/>
			<path class="st2" d="M499.69,1061.1c0.05,1.38,0.48,2.59,1.33,3.61c0.88,1.02,1.99,1.51,3.37,1.51c1.09,0,1.99-0.25,2.69-0.75
				c0.7-0.51,1.36-1.25,1.98-2.26l2.53,1.43c-0.73,1.32-1.73,2.35-3.02,3.12c-1.27,0.74-2.68,1.11-4.22,1.11
				c-2.32,0-4.2-0.76-5.6-2.31c-1.37-1.59-2.07-3.51-2.07-5.83c0-2.43,0.65-4.45,1.98-6.01c1.28-1.56,3.16-2.31,5.62-2.31
				c2.42,0,4.23,0.75,5.45,2.31c1.25,1.54,1.86,3.52,1.86,5.93v0.46H499.69z M508.59,1058.85c-0.18-1.2-0.64-2.15-1.39-2.83
				c-0.74-0.7-1.72-1.05-2.92-1.05c-0.57,0-1.12,0.08-1.61,0.27c-0.5,0.2-0.95,0.48-1.34,0.82c-0.39,0.36-0.71,0.77-0.97,1.25
				c-0.24,0.49-0.43,0.99-0.52,1.55H508.59z"/>
			<path class="st2" d="M515.96,1061.1c0.05,1.38,0.5,2.59,1.34,3.61c0.86,1.02,1.98,1.51,3.36,1.51c1.1,0,1.99-0.25,2.69-0.75
				c0.7-0.51,1.37-1.25,1.98-2.26l2.53,1.43c-0.73,1.32-1.73,2.35-3,3.12c-1.28,0.74-2.69,1.11-4.23,1.11c-2.33,0-4.2-0.76-5.6-2.31
				c-1.38-1.59-2.07-3.51-2.07-5.83c0-2.43,0.65-4.45,1.97-6.01c1.29-1.56,3.16-2.31,5.65-2.31c2.39,0,4.21,0.75,5.42,2.31
				c1.25,1.54,1.86,3.52,1.86,5.93v0.46H515.96z M524.88,1058.85c-0.18-1.2-0.65-2.15-1.39-2.83c-0.75-0.7-1.73-1.05-2.91-1.05
				c-0.59,0-1.13,0.08-1.63,0.27c-0.5,0.2-0.95,0.48-1.33,0.82c-0.39,0.36-0.73,0.77-0.97,1.25c-0.26,0.49-0.43,0.99-0.52,1.55
				H524.88z"/>
			<path class="st2" d="M537.57,1056.5v2.47h-7.29v-2.47H537.57z"/>
			<path class="st2" d="M553.15,1065.92h-0.05c-0.63,0.95-1.4,1.67-2.33,2.18c-0.92,0.52-1.92,0.77-2.98,0.77
				c-2.33,0-4.14-0.8-5.47-2.41c-1.34-1.62-2-3.59-2-5.96c0-2.24,0.67-4.12,2.03-5.69c1.36-1.62,3.12-2.41,5.31-2.41
				c2.24,0,4.05,1,5.44,3.03h0.05v-15.82h3v28.73h-3V1065.92z M548.24,1066.22c1.59,0,2.83-0.54,3.71-1.61
				c0.9-1.11,1.37-2.45,1.37-4.01c0-1.55-0.46-2.86-1.37-3.95c-0.88-1.07-2.12-1.62-3.71-1.62c-1.48,0-2.68,0.55-3.59,1.67
				c-0.89,1.08-1.34,2.38-1.34,3.9c0,1.56,0.45,2.88,1.34,3.97C545.56,1065.69,546.76,1066.22,548.24,1066.22z"/>
			<path class="st2" d="M561.05,1054.77c1.62-1.58,3.61-2.37,5.94-2.37c2.33,0,4.31,0.79,5.9,2.37c1.63,1.59,2.44,3.55,2.44,5.87
				c0,2.32-0.81,4.27-2.44,5.86c-1.58,1.59-3.57,2.37-5.9,2.37c-2.34,0-4.32-0.78-5.94-2.37c-1.59-1.59-2.39-3.54-2.39-5.86
				C558.66,1058.32,559.46,1056.36,561.05,1054.77z M561.65,1060.64c0,1.43,0.53,2.7,1.58,3.81c1.02,1.06,2.28,1.58,3.77,1.58
				c1.45,0,2.72-0.53,3.76-1.58c1.05-1.1,1.58-2.37,1.58-3.81c0-1.46-0.52-2.73-1.58-3.81c-1.04-1.07-2.31-1.59-3.76-1.59
				c-1.49,0-2.75,0.52-3.77,1.59C562.18,1057.91,561.65,1059.18,561.65,1060.64z"/>
			<path class="st2" d="M583.4,1062.72l4.6-10.73l4.57,10.73l4.53-9.86h3.41l-7.94,16.02l-4.57-10.35l-4.6,10.35l-7.93-16.02h3.4
				L583.4,1062.72z"/>
			<path class="st2" d="M605.01,1054.93h0.06c0.44-0.83,1.1-1.44,1.95-1.88c0.83-0.45,1.77-0.65,2.76-0.65
				c1.03,0,1.89,0.14,2.6,0.45c0.71,0.3,1.29,0.74,1.71,1.32c0.46,0.58,0.76,1.27,0.95,2.1c0.19,0.82,0.27,1.78,0.27,2.82v9.24h-3
				v-8.87c0-1.53-0.21-2.64-0.66-3.34c-0.46-0.73-1.37-1.1-2.78-1.1c-0.51,0-0.94,0.05-1.31,0.15c-0.34,0.09-0.66,0.23-0.92,0.42
				c-0.27,0.19-0.5,0.41-0.67,0.65c-0.18,0.25-0.33,0.51-0.5,0.81c-0.05,0.14-0.12,0.35-0.17,0.59c-0.06,0.24-0.1,0.49-0.16,0.73
				c-0.03,0.26-0.07,0.51-0.1,0.77c-0.01,0.26-0.03,0.46-0.03,0.61v1.45v7.12h-3v-15.49h3V1054.93z"/>
			<path class="st2" d="M622.58,1068.34h-3v-28.73h3V1068.34z"/>
			<path class="st2" d="M627.85,1054.77c1.63-1.58,3.61-2.37,5.94-2.37c2.32,0,4.3,0.79,5.9,2.37c1.62,1.59,2.43,3.55,2.43,5.87
				c0,2.32-0.81,4.27-2.43,5.86c-1.6,1.59-3.58,2.37-5.9,2.37c-2.33,0-4.31-0.78-5.94-2.37c-1.61-1.59-2.4-3.54-2.4-5.86
				C625.45,1058.32,626.25,1056.36,627.85,1054.77z M628.46,1060.64c0,1.43,0.52,2.7,1.57,3.81c1.02,1.06,2.28,1.58,3.77,1.58
				c1.47,0,2.72-0.53,3.76-1.58c1.06-1.1,1.58-2.37,1.58-3.81c0-1.46-0.53-2.73-1.58-3.81c-1.04-1.07-2.28-1.59-3.76-1.59
				c-1.49,0-2.75,0.52-3.77,1.59C628.98,1057.91,628.46,1059.18,628.46,1060.64z"/>
			<path class="st2" d="M659.5,1068.34h-3v-2.42h-0.07c-1.33,1.98-3.1,2.95-5.3,2.95c-2.29,0-4.11-0.8-5.48-2.41
				c-1.33-1.62-1.98-3.59-1.98-5.96c0-2.24,0.68-4.12,2.02-5.69c1.36-1.62,3.14-2.41,5.33-2.41c2.23,0,4.04,1,5.41,3.03h0.07v-2.57
				h3V1068.34z M651.6,1066.22c1.57,0,2.81-0.54,3.71-1.61c0.9-1.11,1.35-2.45,1.35-4.01c0-1.55-0.45-2.86-1.35-3.95
				c-0.9-1.07-2.14-1.62-3.71-1.62c-1.49,0-2.7,0.55-3.6,1.67c-0.89,1.08-1.33,2.38-1.33,3.9c0,1.56,0.44,2.88,1.33,3.97
				C648.9,1065.69,650.11,1066.22,651.6,1066.22z"/>
			<path class="st2" d="M675.05,1065.92h-0.07c-0.62,0.95-1.4,1.67-2.32,2.18c-0.91,0.52-1.91,0.77-2.98,0.77
				c-2.32,0-4.13-0.8-5.47-2.41c-1.34-1.62-1.99-3.59-1.99-5.96c0-2.24,0.67-4.12,2.04-5.69c1.35-1.62,3.11-2.41,5.29-2.41
				c2.25,0,4.06,1,5.44,3.03h0.07v-15.82h3v28.73h-3V1065.92z M670.15,1066.22c1.58,0,2.81-0.54,3.7-1.61
				c0.92-1.11,1.36-2.45,1.36-4.01c0-1.55-0.45-2.86-1.36-3.95c-0.89-1.07-2.12-1.62-3.7-1.62c-1.5,0-2.69,0.55-3.61,1.67
				c-0.88,1.08-1.32,2.38-1.32,3.9c0,1.56,0.44,2.88,1.32,3.97C667.46,1065.69,668.65,1066.22,670.15,1066.22z"/>
			<path class="st2" d="M686.65,1066.96c0,0.53-0.18,0.99-0.56,1.36c-0.38,0.37-0.84,0.55-1.38,0.55c-0.52,0-1-0.19-1.37-0.55
				c-0.37-0.37-0.57-0.83-0.57-1.36c0-0.51,0.2-0.96,0.57-1.35c0.37-0.37,0.85-0.56,1.37-0.56c0.53,0,1,0.19,1.38,0.56
				C686.47,1065.99,686.65,1066.45,686.65,1066.96z"/>
			<path class="st2" d="M703.05,1057.26c-1.24-1.39-2.74-2.1-4.47-2.1c-1.45,0-2.67,0.56-3.69,1.64c-1.01,1.09-1.5,2.38-1.5,3.8
				c0,1.62,0.5,2.91,1.5,3.93c1.04,1.04,2.33,1.57,3.88,1.57c1.61,0,3.04-0.7,4.28-2.07v3.81c-1.29,0.69-2.72,1.02-4.29,1.02
				c-2.31,0-4.3-0.77-5.94-2.35c-1.62-1.55-2.43-3.47-2.43-5.79c0-2.38,0.81-4.36,2.43-5.96c1.62-1.58,3.65-2.37,6.1-2.37
				c1.61,0,2.99,0.33,4.14,1.02V1057.26z"/>
			<path class="st2" d="M707.3,1054.77c1.62-1.58,3.6-2.37,5.94-2.37c2.34,0,4.31,0.79,5.91,2.37c1.61,1.59,2.42,3.55,2.42,5.87
				c0,2.32-0.8,4.27-2.42,5.86c-1.6,1.59-3.57,2.37-5.91,2.37c-2.33,0-4.31-0.78-5.94-2.37c-1.6-1.59-2.41-3.54-2.41-5.86
				C704.89,1058.32,705.7,1056.36,707.3,1054.77z M707.9,1060.64c0,1.43,0.5,2.7,1.56,3.81c1.02,1.06,2.28,1.58,3.77,1.58
				c1.46,0,2.73-0.53,3.77-1.58c1.04-1.1,1.56-2.37,1.56-3.81c0-1.46-0.53-2.73-1.56-3.81c-1.04-1.07-2.31-1.59-3.77-1.59
				c-1.5,0-2.75,0.52-3.77,1.59C708.4,1057.91,707.9,1059.18,707.9,1060.64z"/>
			<path class="st2" d="M727.2,1054.81h0.08c0.43-0.72,1.02-1.29,1.78-1.76c0.74-0.43,1.53-0.65,2.35-0.65c1.95,0,3.45,0.9,4.5,2.73
				c0.48-0.83,1.17-1.5,2.02-2c0.84-0.5,1.79-0.73,2.78-0.73c3.46,0,5.17,2.22,5.17,6.68v9.26h-3v-8.77c0-0.39-0.02-0.8-0.05-1.18
				c-0.04-0.38-0.09-0.75-0.19-1.13c-0.09-0.35-0.22-0.68-0.41-1c-0.17-0.3-0.41-0.58-0.72-0.83c-0.4-0.26-0.91-0.39-1.53-0.39
				c-0.63,0-1.16,0.13-1.59,0.39c-0.43,0.25-0.76,0.57-0.99,0.92c-0.25,0.35-0.43,0.84-0.56,1.37c-0.12,0.54-0.21,1.05-0.25,1.5
				c-0.02,0.43-0.05,0.95-0.05,1.51v7.62h-3.01v-8.2c0-0.53,0-0.96-0.03-1.31c-0.02-0.37-0.09-0.8-0.2-1.35
				c-0.11-0.57-0.25-0.98-0.43-1.25c-0.18-0.3-0.45-0.58-0.83-0.83c-0.38-0.24-0.84-0.36-1.37-0.36c-1.54,0-2.52,0.67-2.96,1.99
				c-0.21,0.61-0.34,1.21-0.41,1.74c-0.06,0.56-0.09,1.21-0.09,1.96v7.62h-3v-15.49h3V1054.81z"/>
		</g>
		<g>
			<g>
				<path class="st2" d="M208.16,1059.22c14.16,0,28.32,0,42.48,0c1.29,0,1.29-1.99,0-1.99c-14.16,0-28.32,0-42.48,0
					C206.88,1057.23,206.88,1059.22,208.16,1059.22L208.16,1059.22z"/>
			</g>
			<g>
				<path class="st2" d="M773.36,1059.22c14.15,0,28.31,0,42.47,0c1.3,0,1.3-1.99,0-1.99c-14.15,0-28.32,0-42.47,0
					C772.08,1057.23,772.08,1059.22,773.36,1059.22L773.36,1059.22z"/>
			</g>
		</g>
	</g>
</g>
<g>
	<path class="st3" d="M700.15,693.64c0,0-6.22-26.48,19.18-42.22c0,0,7.15,26.12,33.99,0c26.83-26.12-9.66-45.43-25.04-34.7
		c0,0-44.82-17.25-42.44,45.39C688.2,724.75,700.15,693.64,700.15,693.64z"/>
	<g>
		<path class="st4" d="M699.84,693.62c-0.02,0.04-0.03-0.03-0.05-0.1l-0.06-0.19l-0.11-0.38c-0.07-0.25-0.14-0.51-0.2-0.76
			c-0.12-0.51-0.24-1.02-0.34-1.54c-0.2-1.03-0.35-2.07-0.46-3.12c-0.24-2.1-0.28-4.22-0.17-6.34c0.2-4.25,1.13-8.51,2.73-12.54
			c1.62-4.02,3.92-7.82,6.8-11.1c2.88-3.29,6.24-6.14,9.91-8.46c1.27-0.8,2.95-0.42,3.75,0.85c0.12,0.2,0.22,0.4,0.29,0.62
			l0.04,0.14c0.1,0.33,0.3,0.86,0.49,1.3c0.2,0.46,0.41,0.91,0.64,1.35c0.46,0.88,0.99,1.72,1.57,2.49
			c1.17,1.53,2.54,2.77,4.09,3.52c0.76,0.42,1.61,0.59,2.45,0.8c0.87,0.11,1.77,0.2,2.71,0.09c1.87-0.18,3.82-0.76,5.74-1.57
			c3.85-1.68,7.54-4.24,10.97-7.08c3.44-2.84,6.6-6.02,8.79-9.84c1.04-1.91,1.93-3.94,2.27-6.08c0.35-2.13,0.28-4.32-0.31-6.38
			c-0.58-2.06-1.59-4.01-2.98-5.66c-1.39-1.65-3.07-3.08-4.92-4.22c-3.69-2.29-8.01-3.59-12.27-3.77
			c-4.24-0.21-8.52,0.75-11.55,3.09c-0.59,0.45-1.33,0.56-1.99,0.36l-0.28-0.09c-1.06-0.33-2.35-0.65-3.56-0.87
			c-1.24-0.22-2.47-0.44-3.72-0.55c-2.49-0.26-4.98-0.27-7.4-0.01c-4.86,0.5-9.35,2.38-12.82,5.46c-3.51,3.08-5.88,7.38-7.53,12.01
			c-1.66,4.65-2.54,9.7-3.02,14.82c-0.48,5.15-0.58,10.3-0.45,15.65c0.13,5.31,0.21,10.63,0.58,15.9c0.18,2.63,0.37,5.27,0.72,7.85
			c0.34,2.58,0.71,5.19,1.48,7.55c0.39,1.15,0.88,2.31,1.5,2.97c0.15,0.21,0.3,0.24,0.44,0.37c0.14,0.03,0.27,0.13,0.45,0.09
			c0.34,0.01,0.82-0.19,1.27-0.54c0.93-0.67,1.76-1.7,2.49-2.77c0.38-0.53,0.73-1.09,1.07-1.65l0.49-0.86l0.24-0.44l0.12-0.22
			C699.79,693.67,699.82,693.57,699.84,693.62z M700.47,693.66c-0.04,0.2-0.07,0.26-0.1,0.34l-0.08,0.24l-0.16,0.48l-0.35,0.96
			c-0.25,0.64-0.5,1.27-0.81,1.89c-0.61,1.24-1.28,2.47-2.37,3.57c-0.53,0.54-1.25,1.08-2.24,1.27c-0.49,0.13-1.02,0.04-1.53-0.07
			c-0.45-0.18-0.94-0.38-1.26-0.68c-0.17-0.14-0.36-0.28-0.52-0.42l-0.4-0.46l-0.4-0.47l-0.31-0.48c-0.45-0.64-0.74-1.29-1.07-1.95
			c-1.19-2.63-1.91-5.29-2.53-7.97c-0.62-2.68-1.08-5.36-1.52-8.04c-0.78-5.37-1.36-10.75-1.74-16.13
			c-0.09-1.35-0.21-2.68-0.27-4.04l-0.17-4.11c-0.09-1.37-0.01-2.75-0.01-4.13c0.01-1.38,0.03-2.76,0.16-4.15
			c0.35-5.54,1.22-11.15,3.17-16.59c0.53-1.35,1-2.71,1.69-4.01c0.33-0.65,0.62-1.32,0.99-1.96l1.17-1.89
			c1.65-2.46,3.55-4.83,5.93-6.73c2.33-1.93,5-3.47,7.81-4.51c2.81-1.06,5.75-1.64,8.66-1.84c2.91-0.21,5.8-0.02,8.62,0.42
			c1.41,0.21,2.8,0.51,4.18,0.88c1.4,0.38,2.68,0.78,4.14,1.36l-2.27,0.28c2.24-1.47,4.77-2.29,7.27-2.68c2.5-0.39,5-0.34,7.41,0
			c4.83,0.68,9.39,2.55,13.29,5.33c1.94,1.4,3.74,3.02,5.19,4.95c1.43,1.93,2.6,4.1,3.21,6.46c0.61,2.35,0.71,4.81,0.35,7.2
			c-0.32,2.4-1.22,4.64-2.2,6.81c-2.15,4.25-5.19,7.96-8.45,11.3c-3.27,3.33-6.79,6.56-11.15,8.94c-2.18,1.18-4.58,2.17-7.26,2.54
			c-1.32,0.22-2.73,0.21-4.12,0.08c-1.39-0.2-2.8-0.55-4.08-1.18c-2.6-1.19-4.68-3.15-6.23-5.27c-0.77-1.08-1.43-2.2-1.99-3.36
			c-0.29-0.58-0.54-1.17-0.78-1.77c-0.24-0.63-0.44-1.16-0.66-1.93l4.09,1.61c-3.32,2.04-6.42,4.39-9.14,7.15
			c-2.67,2.79-5.01,5.92-6.76,9.42c-0.86,1.75-1.66,3.55-2.28,5.42c-0.63,1.87-1.1,3.8-1.49,5.76c-0.38,1.96-0.6,3.97-0.72,5.98
			c-0.07,1.01-0.07,2.02-0.07,3.04c0,0.51,0.02,1.02,0.04,1.53l0.05,0.76L700.47,693.66z"/>
	</g>
	<path class="st3" d="M842.93,501.85c-35.48-59.14-79.64-70.95-79.64-70.95c-28.39-106.43-93.72-74.53-93.72-74.53
		s-206.27,22.56-246.74,19.46c-40.47-3.1-76.78,63.46-76.78,63.46c-36.47,18.85-61.15,66.42-61.15,66.42
		c-2.57-6.59-8.15-6.62-8.15-6.62c9-23.74-18.96-61.47-37.72-43.47c-18.77,18,1.34,43.08,1.34,43.08
		c-13.4-7.85-20.55-2.63-20.55-2.63c-4.03-0.73-1.67-10.32-15.59-23.88c-6.96-6.78-13.46-6.12-18.22-3.77
		c-4.59,2.27-7.97,6.48-9.54,11.35c-14.27,44.07,17.98,67.21,39.11,79.69c21.91,12.94,31.37,27.38,31.37,27.38
		s-25.01,53.09,21.93,62.32c46.94,9.23,47.32-44.24,38.09-50.78c-9.23-6.54-20.14-1.39-20.14-1.39l0.39-6.93
		c36.78-0.87,30.39-38.45,30.39-38.45c41.42,4.54,90.5-41.38,90.5-41.38c-1.41,13.66,7.06,40.02,14.74,48.03
		c7.67,8.01,8.81,14.6,8.81,14.6c12.24,48.03,73.29,107.41,73.29,107.41c-32.23,15.82-69.15,40.43-75.89,63.58
		c-6.74,23.15,22.56,39.26,22.56,39.26s-48.93-13.77-73.15,2.53c-24.22,16.3-13.04,29.34-13.04,29.34
		c-2.56,35.86,30.49,35.62,30.49,35.62c21.88,28.9,57.12,4.6,57.12,4.6c111.73,8.28,113.28-48.43,98.27-54.58
		c-15-6.16-47.32-43.21-47.32-43.21c71.63-42.39,184.97,18.96,184.97,18.96c-14.1,34.19-44.05,32.07-58.86,44.41
		c-14.8,12.34,4.93,56.39,63.09,77.54c58.15,21.15,86.11,0.32,86.11,0.32c17.03,4.2,46.89-1.17,51.32-23.33
		c4.43-22.16-8.25-28.04-8.25-28.04c-15.3-53.16-84.41-32.6-84.41-32.6c-3.48-4.52-9.21-4.52-9.21-4.52s52.85-15.48,36.83-58.19
		c-16.01-42.7-72.27-60.95-72.27-60.95c-5.43-50.51-42.16-68.87-42.16-68.87c-0.42-11.27,11.24-34.36,11.24-34.36
		C794.04,628.8,878.41,560.99,842.93,501.85z M692.33,493.82c0,0,10.88,7.65,14.91,8.86c0,0-10.19,2.32-18.83,1.49
		C688.4,504.17,692.63,501.03,692.33,493.82z"/>
	<g>
		<g>
			<path class="st4" d="M842.75,501.96l-3.66-5.72l-1.83-2.86c-0.62-0.95-1.19-1.93-1.88-2.82l-3.99-5.5l-1.99-2.75
				c-0.68-0.91-1.42-1.76-2.13-2.64l-4.29-5.26c-0.69-0.9-1.48-1.71-2.24-2.55l-2.29-2.5c-2.98-3.42-6.31-6.48-9.53-9.66
				c-6.68-6.1-13.78-11.76-21.4-16.65l-2.87-1.82c-0.95-0.61-1.96-1.13-2.93-1.7c-0.99-0.55-1.96-1.13-2.95-1.67l-3.02-1.54
				c-4.05-1.99-8.21-3.83-12.51-5.13l-0.01,0c-0.1-0.03-0.17-0.11-0.2-0.21c-3.02-11.05-6.72-21.94-11.6-32.3
				c-4.82-10.37-11.08-20.12-18.99-28.35c-4.02-4.04-8.51-7.62-13.43-10.49c-4.91-2.86-10.26-4.96-15.81-6.16
				c-1.38-0.36-2.79-0.49-4.19-0.73c-1.41-0.19-2.82-0.29-4.24-0.39c-2.84-0.11-5.68-0.09-8.5,0.22c-5.62,0.59-11.27,1.91-16.38,4.2
				l-0.02,0.01c-0.06,0.03-0.13,0.05-0.2,0.05c-29.14,3.25-58.3,6.33-87.47,9.25c-29.18,2.9-58.37,5.66-87.61,7.97
				c-7.31,0.53-14.62,1.16-21.95,1.6l-10.98,0.71l-11,0.55l-5.5,0.27l-5.52,0.12c-3.68,0.06-7.35,0.24-11.07,0.06l-5.56-0.15
				l-2.64-0.05c-0.44-0.01-0.88-0.03-1.31-0.02l-1.31,0.11c-3.51,0.17-6.97,1.02-10.32,2.13l-2.5,0.9l-2.44,1.08
				c-0.82,0.34-1.61,0.76-2.4,1.18c-0.79,0.42-1.59,0.81-2.36,1.27c-3.09,1.81-6.08,3.81-8.92,6.01
				c-5.71,4.39-10.91,9.46-15.79,14.82c-4.86,5.39-9.38,11.09-13.6,17c-4.2,5.92-8.21,12.05-11.73,18.32
				c-0.18,0.32-0.44,0.57-0.74,0.73l-0.02,0.01c-6.56,3.56-12.75,7.82-18.5,12.66c-5.67,4.93-11.03,10.24-16,15.92
				c-4.93,5.71-9.57,11.69-13.88,17.89c-2.16,3.1-4.24,6.26-6.23,9.47c-2,3.19-3.93,6.48-5.69,9.75c-0.5,0.93-1.65,1.27-2.58,0.78
				c-0.38-0.2-0.66-0.51-0.82-0.87l-0.04-0.09c-0.17-0.36-0.32-0.73-0.49-1.08c-0.2-0.33-0.36-0.7-0.6-1
				c-0.41-0.65-0.94-1.19-1.49-1.68c-0.56-0.48-1.2-0.86-1.87-1.15c-0.33-0.15-0.68-0.25-1.03-0.35c-0.17-0.03-0.35-0.08-0.52-0.1
				c-0.15-0.03-0.38-0.04-0.41-0.05l-0.29-0.05c-1.03-0.17-1.72-1.15-1.55-2.18c0.02-0.11,0.05-0.23,0.09-0.33
				c0.8-2.2,1.29-4.52,1.5-6.89c0.22-2.37,0.07-4.78-0.23-7.17c-0.66-4.78-2.24-9.46-4.45-13.79c-2.23-4.32-5.11-8.35-8.64-11.6
				c-3.47-3.27-7.78-5.76-12.24-6.12c-2.22-0.18-4.43,0.24-6.43,1.2c-2.01,0.98-3.81,2.38-5.41,4.18c-3.23,3.47-5.42,7.8-6.01,12.46
				c-0.63,4.66,0.18,9.51,1.78,14.08c0.81,2.29,1.83,4.52,2.98,6.67c1.16,2.13,2.5,4.28,3.91,6.13c0.61,0.79,0.46,1.92-0.33,2.53
				c-0.58,0.45-1.35,0.48-1.96,0.15l-0.02-0.01l-2.28-1.24c-0.78-0.36-1.56-0.72-2.34-1.07c-1.59-0.6-3.2-1.18-4.84-1.45
				c-1.63-0.31-3.29-0.44-4.89-0.27c-0.79,0.1-1.59,0.22-2.33,0.45c-0.38,0.1-0.73,0.24-1.08,0.38c-0.16,0.08-0.35,0.15-0.49,0.23
				c-0.14,0.07-0.34,0.19-0.37,0.21l-0.15,0.09c-0.38,0.22-0.8,0.28-1.2,0.22c-0.9-0.14-1.83-0.73-2.35-1.35
				c-0.54-0.62-0.85-1.22-1.11-1.78c-0.5-1.11-0.84-2.12-1.2-3.11c-0.71-1.97-1.46-3.85-2.39-5.67c-1.84-3.63-4.25-6.96-7.03-10.01
				c-0.7-0.76-1.41-1.5-2.15-2.23c-0.73-0.7-1.45-1.38-2.23-1.97c-1.55-1.2-3.23-2.18-5.03-2.72c-1.79-0.53-3.67-0.67-5.52-0.32
				c-1.84,0.32-3.66,1.09-5.28,2.1c-3.25,2.07-5.75,5.33-7.05,9.02c-1.27,3.89-2.33,7.97-2.98,12.05
				c-1.24,8.18-0.85,16.62,1.68,24.48c2.48,7.87,6.96,15.05,12.56,21.2c5.61,6.17,12.22,11.42,19.24,16.05
				c3.51,2.35,7.12,4.43,10.78,6.73c3.6,2.32,7.15,4.76,10.49,7.45c3.36,2.68,6.58,5.52,9.61,8.57c3.03,3.07,5.89,6.23,8.42,9.87
				c0.24,0.34,0.27,0.77,0.11,1.13l-0.03,0.06c-2.98,6.74-5.11,14.03-6.11,21.37c-0.96,7.32-0.72,14.97,2.17,21.7
				c1.43,3.35,3.53,6.39,6.16,8.9c2.63,2.53,5.82,4.43,9.18,5.9c1.66,0.79,3.45,1.3,5.2,1.89c0.89,0.27,1.8,0.45,2.7,0.67
				c0.9,0.21,1.8,0.46,2.72,0.58l2.75,0.45c0.92,0.15,1.84,0.18,2.77,0.28l1.38,0.12c0.46,0.04,0.92,0.01,1.39,0.03
				c0.92-0.01,1.85,0.04,2.77-0.01c3.69-0.16,7.33-0.88,10.73-2.24c3.4-1.35,6.5-3.4,9.08-6c5.19-5.21,8.2-12.36,9.34-19.66
				c0.58-3.66,0.74-7.4,0.4-11.09c-0.19-1.84-0.49-3.66-0.97-5.43c-0.51-1.74-1.18-3.47-2.23-4.81c-0.24-0.37-0.57-0.59-0.86-0.87
				c-0.32-0.26-0.75-0.49-1.12-0.73c-0.74-0.52-1.59-0.84-2.4-1.24c-1.68-0.66-3.46-1.07-5.27-1.24c-3.61-0.3-7.38,0.38-10.69,1.76
				l-0.03,0.01c-0.38,0.16-0.82-0.02-0.98-0.4c-0.05-0.11-0.06-0.22-0.06-0.33l0.4-6.93c0.02-0.39,0.34-0.69,0.72-0.7
				c4.66-0.1,9.31-0.86,13.6-2.58c2.11-0.91,4.17-1.98,5.98-3.41c1.81-1.42,3.42-3.08,4.77-4.94c2.73-3.73,4.31-8.21,5.13-12.77
				c0.8-4.57,0.89-9.33,0.26-13.9l0-0.02c-0.05-0.37,0.21-0.71,0.58-0.76c0.05-0.01,0.11-0.01,0.16,0
				c8.37,0.85,16.87-0.24,24.99-2.52c4.08-1.1,8.06-2.53,11.98-4.14c3.92-1.59,7.75-3.4,11.5-5.37c7.52-3.9,14.72-8.43,21.65-13.31
				c6.91-4.91,13.61-10.16,19.87-15.84c0.27-0.25,0.69-0.23,0.94,0.04c0.13,0.14,0.18,0.32,0.17,0.5l0,0.01
				c-0.44,5.56,0.36,11.24,1.55,16.75c1.22,5.53,2.84,10.98,4.92,16.24c0.55,1.3,1.05,2.63,1.66,3.9l0.89,1.92l0.97,1.88
				c1.35,2.46,2.8,4.89,4.69,6.89c2,2.09,3.81,4.37,5.36,6.82c1.52,2.49,2.86,5.05,3.55,8.04l-0.01-0.06
				c1.37,5.25,3.23,10.37,5.37,15.37c2.13,5.01,4.59,9.87,7.25,14.63c2.64,4.77,5.48,9.43,8.47,13.99
				c2.98,4.57,6.09,9.05,9.33,13.45c6.44,8.81,13.33,17.3,20.48,25.56c7.16,8.24,14.58,16.28,22.33,23.94
				c0.36,0.35,0.36,0.93,0.01,1.29c-0.07,0.07-0.16,0.13-0.25,0.18c-11.16,5.53-22.05,11.63-32.46,18.46
				c-10.37,6.85-20.39,14.35-28.98,23.27c-4.23,4.48-8.18,9.3-11.01,14.7c-1.41,2.69-2.55,5.54-3.17,8.45
				c-0.64,2.92-0.65,5.94-0.12,8.86c0.53,2.93,1.6,5.77,3.08,8.39c1.47,2.63,3.28,5.09,5.33,7.34c4.08,4.5,9.01,8.39,14.22,11.44
				l0.01,0c0.61,0.36,0.81,1.14,0.46,1.74c-0.29,0.5-0.88,0.73-1.42,0.59c-8.84-2.3-17.97-3.86-27.09-4.71
				c-9.12-0.79-18.36-0.89-27.31,0.67c-4.46,0.8-8.83,2.03-12.88,3.91c-2,1-3.93,2.04-5.73,3.41l-2.74,2
				c-0.89,0.7-1.7,1.46-2.56,2.19c-3.3,2.99-6.21,6.48-7.7,10.47c-0.67,2-1.02,4.09-0.78,6.13c0.14,1.02,0.35,2.03,0.73,2.98
				c0.17,0.48,0.39,0.94,0.63,1.39c0.23,0.42,0.54,0.9,0.76,1.18l0.04,0.05c0.25,0.32,0.36,0.71,0.33,1.08
				c-0.3,4.32-0.09,8.66,0.89,12.79c0.2,1.05,0.57,2.04,0.88,3.05c0.4,0.97,0.73,1.98,1.23,2.9c0.9,1.89,2.05,3.66,3.42,5.23
				c2.71,3.18,6.25,5.61,10.16,7.23c1.95,0.81,4,1.43,6.08,1.89c2.06,0.44,4.26,0.73,6.25,0.77c0.54,0.01,1.01,0.26,1.33,0.65
				l0.01,0.01c1.6,1.99,3.25,3.94,5.18,5.58c1.87,1.71,3.97,3.13,6.18,4.31c2.2,1.21,4.59,2.06,7.03,2.64
				c2.44,0.58,4.96,0.9,7.5,0.89c5.07,0.02,10.17-0.96,15.04-2.61c2.44-0.82,4.83-1.8,7.16-2.93c2.31-1.11,4.64-2.38,6.69-3.75
				c0.35-0.23,0.75-0.33,1.14-0.31c8.43,0.5,16.87,0.95,25.3,0.7c8.42-0.2,16.84-0.71,25.12-2.07c8.27-1.33,16.45-3.32,24.15-6.42
				c7.63-3.18,14.9-7.46,20.38-13.46c2.7-3,4.93-6.42,6.35-10.12c1.36-3.7,1.96-7.72,1.32-11.49c-0.27-1.89-0.98-3.67-1.93-5.18
				l-0.36-0.56c-0.13-0.18-0.29-0.32-0.43-0.49c-0.28-0.33-0.56-0.66-0.9-0.89l-0.48-0.39c-0.16-0.14-0.35-0.19-0.52-0.3l-0.52-0.29
				l-0.74-0.37c-4.22-1.92-7.63-4.59-11.04-7.26c-6.72-5.43-12.9-11.34-18.91-17.4c-6-6.08-11.81-12.29-17.48-18.7l0-0.01
				c-0.74-0.83-0.66-2.11,0.17-2.84c0.1-0.09,0.22-0.17,0.33-0.24c7.13-4.12,14.7-7.38,22.54-9.81l5.93-1.64
				c1.99-0.49,4-0.85,6-1.28c2-0.46,4.02-0.72,6.05-1.01c2.02-0.28,4.04-0.62,6.08-0.75c8.13-0.89,16.3-0.88,24.43-0.51
				c2.03,0.13,4.07,0.17,6.09,0.39l6.07,0.58c4.03,0.52,8.07,0.99,12.06,1.71c16.03,2.63,31.72,6.92,47.05,12.14
				c7.66,2.62,15.23,5.52,22.69,8.66c7.47,3.16,14.81,6.48,22.07,10.29c1.02,0.53,1.44,1.75,1.01,2.79l-0.01,0.02
				c-2.3,5.48-5.21,10.8-9.05,15.46c-3.78,4.7-8.42,8.69-13.49,11.88c-5.06,3.21-10.52,5.62-15.93,7.76
				c-5.4,2.16-10.84,4.05-15.69,6.67c-0.6,0.33-1.21,0.66-1.78,1.02c-0.59,0.34-1.15,0.72-1.7,1.11c-0.57,0.37-1.07,0.8-1.6,1.2
				c-0.51,0.41-0.86,0.82-1.3,1.23c-1.53,1.78-2.41,4.13-2.7,6.67c-0.29,2.54-0.03,5.22,0.56,7.85c0.58,2.64,1.49,5.24,2.65,7.75
				c0.52,1.28,1.22,2.49,1.84,3.73c0.72,1.19,1.35,2.44,2.14,3.59l1.14,1.76l1.22,1.71c0.79,1.16,1.69,2.24,2.55,3.35
				c3.52,4.39,7.52,8.41,11.8,12.11c8.56,7.42,18.3,13.46,28.56,18.37c5.12,2.47,10.41,4.62,15.81,6.46l8.13,2.69l8.26,2.2
				c11.06,2.65,22.42,4.14,33.72,3.71c5.63-0.33,11.24-1.01,16.69-2.36l4.04-1.15c1.31-0.48,2.65-0.89,3.93-1.42
				c1.28-0.54,2.56-1.06,3.78-1.7c0.63-0.29,1.21-0.63,1.8-0.96c0.3-0.16,0.59-0.33,0.86-0.51c0.28-0.17,0.57-0.36,0.77-0.5
				l0.01-0.01c0.54-0.39,1.2-0.5,1.8-0.36c7.18,1.7,14.93,1.6,22.27,0.17c7.31-1.46,14.48-4.42,19.69-9.47
				c1.29-1.26,2.43-2.66,3.42-4.14c0.99-1.49,1.75-3.11,2.39-4.78c0.61-1.69,0.99-3.41,1.26-5.29c0.36-1.84,0.45-3.69,0.58-5.53
				c0.11-3.67-0.33-7.35-1.67-10.61l-0.51-1.22l-0.63-1.15c-0.19-0.39-0.45-0.74-0.69-1.1c-0.24-0.36-0.48-0.72-0.77-1.04
				c-0.53-0.67-1.13-1.3-1.76-1.85c-0.31-0.29-0.64-0.54-0.98-0.78c-0.31-0.22-0.73-0.48-0.92-0.58l-0.04-0.02
				c-0.53-0.28-0.91-0.75-1.08-1.29c-1.25-3.87-2.58-7.75-4.64-11.24l-0.72-1.34l-0.84-1.26c-0.57-0.83-1.09-1.7-1.71-2.49
				l-1.9-2.34c-0.63-0.79-1.39-1.45-2.08-2.19c-2.87-2.81-6.09-5.29-9.66-7.21c-3.56-1.92-7.37-3.41-11.31-4.51
				c-3.93-1.11-8-1.79-12.11-2.17c-4.1-0.38-8.25-0.47-12.39-0.31c-4.14,0.16-8.28,0.56-12.39,1.17c-4.09,0.61-8.24,1.42-12.14,2.49
				c-0.74,0.21-1.51-0.06-1.97-0.61l-0.03-0.03c-0.47-0.56-0.95-1.11-1.54-1.55c-0.57-0.46-1.2-0.86-1.88-1.17
				c-0.68-0.32-1.4-0.58-2.14-0.77c-0.72-0.18-1.57-0.31-2.17-0.33l-0.04,0c-1.01-0.04-1.8-0.89-1.76-1.9
				c0.03-0.8,0.57-1.46,1.28-1.68c3.31-1.03,6.69-2.42,9.9-3.96c3.22-1.56,6.35-3.32,9.31-5.3c5.9-3.96,11.22-8.9,14.8-14.92
				c3.6-5.99,5.23-13.05,4.56-20.05c-0.01-0.88-0.22-1.74-0.33-2.61c-0.13-0.87-0.25-1.74-0.48-2.6l-0.62-2.58l-0.83-2.53
				l-0.41-1.27l-0.5-1.24l-1.01-2.49c-0.37-0.82-0.77-1.62-1.15-2.43c-0.38-0.81-0.76-1.62-1.21-2.39l-1.3-2.35
				c-0.44-0.78-0.94-1.53-1.41-2.29c-0.92-1.54-2-2.98-3.02-4.46c-2.16-2.87-4.41-5.69-6.91-8.29c-4.9-5.29-10.45-9.98-16.29-14.26
				c-5.87-4.25-12.07-8.06-18.5-11.44c-6.42-3.36-13.09-6.4-19.88-8.78l-0.03-0.01c-0.44-0.16-0.73-0.55-0.78-0.99
				c-0.72-6.87-2.1-13.67-4.17-20.26c-0.5-1.65-1.11-3.27-1.69-4.89c-0.65-1.6-1.25-3.22-1.98-4.78c-1.38-3.16-2.99-6.23-4.75-9.19
				c-3.5-5.96-7.76-11.45-12.57-16.4c-2.41-2.47-4.98-4.79-7.68-6.94c-2.7-2.12-5.56-4.15-8.53-5.75l-0.03-0.02
				c-0.28-0.15-0.44-0.43-0.44-0.72c-0.07-3.21,0.6-6.24,1.35-9.22c0.78-2.97,1.73-5.88,2.8-8.74c1.06-2.86,2.2-5.69,3.43-8.48
				c1.23-2.79,2.5-5.55,3.87-8.29c0.16-0.32,0.54-0.48,0.87-0.37c20.08,6.29,40.82,10.7,61.85,12.2c20.98,1.5,42.31,0.11,62.62-5.55
				c10.13-2.84,19.98-6.8,29.04-12.17c4.52-2.69,8.84-5.72,12.84-9.14c3.99-3.42,7.63-7.25,10.82-11.44
				c3.12-4.22,5.81-8.79,7.68-13.7c1.93-4.89,3.04-10.09,3.32-15.33c0.15-2.62,0.02-5.25-0.24-7.86c-0.33-2.6-0.8-5.19-1.51-7.73
				C847.61,511.32,845.42,506.49,842.75,501.96z M843.11,501.74c2.7,4.55,4.91,9.41,6.32,14.52c0.72,2.55,1.2,5.16,1.54,7.79
				c0.26,2.64,0.4,5.29,0.25,7.94c-0.27,5.29-1.39,10.55-3.33,15.48c-1.88,4.96-4.59,9.58-7.73,13.84
				c-3.2,4.22-6.87,8.09-10.88,11.54c-4.02,3.44-8.36,6.51-12.91,9.22c-9.09,5.43-18.98,9.45-29.14,12.35
				c-10.18,2.9-20.65,4.69-31.18,5.62c-10.54,0.89-21.15,0.93-31.7,0.24c-21.12-1.35-41.99-5.63-62.21-11.8l0.87-0.37
				c-2.64,5.42-5.05,10.99-7.11,16.65c-1.04,2.83-1.95,5.7-2.69,8.61c-0.72,2.89-1.33,5.86-1.23,8.74l-0.48-0.74
				c6.31,3.43,11.77,7.93,16.77,12.92c4.96,5.02,9.36,10.61,12.98,16.68c1.82,3.02,3.49,6.15,4.93,9.37
				c0.76,1.59,1.39,3.25,2.07,4.88c0.61,1.66,1.24,3.31,1.77,4.99c2.17,6.72,3.63,13.67,4.43,20.68l-0.81-1
				c7.05,2.41,13.75,5.41,20.32,8.78c6.56,3.38,12.89,7.2,18.91,11.49c5.99,4.32,11.71,9.08,16.81,14.48
				c2.59,2.66,4.95,5.55,7.2,8.51c1.07,1.52,2.2,3.01,3.17,4.6c0.49,0.79,1.02,1.56,1.49,2.37l1.37,2.44
				c0.48,0.8,0.88,1.65,1.29,2.49c0.41,0.84,0.83,1.67,1.22,2.53l1.08,2.59l0.53,1.3l0.45,1.34l0.9,2.68l0.69,2.75
				c0.26,0.91,0.4,1.85,0.54,2.79c0.13,0.94,0.35,1.87,0.38,2.83c0.81,7.59-0.94,15.5-4.86,22.07c-3.89,6.62-9.57,11.9-15.75,16.11
				c-3.1,2.11-6.36,3.97-9.72,5.61c-3.38,1.64-6.77,3.07-10.44,4.24l-0.52-3.58c0.63,0.01,1.07,0.06,1.59,0.14
				c0.5,0.07,0.98,0.17,1.47,0.28c0.97,0.24,1.92,0.57,2.83,1c0.92,0.42,1.8,0.96,2.6,1.6c0.83,0.62,1.53,1.39,2.19,2.19l-2-0.65
				c4.23-1.19,8.38-2.01,12.63-2.68c4.24-0.65,8.51-1.1,12.8-1.28c4.29-0.18,8.61-0.11,12.91,0.28c4.3,0.39,8.6,1.08,12.79,2.25
				c4.2,1.16,8.3,2.74,12.18,4.81c3.88,2.07,7.44,4.76,10.59,7.84c0.76,0.8,1.59,1.54,2.29,2.39l2.1,2.56
				c0.68,0.87,1.25,1.81,1.88,2.72l0.92,1.37l0.79,1.45c2.26,3.8,3.7,7.95,5.05,12.09l-1.12-1.31c0.68,0.34,1.08,0.62,1.57,0.95
				c0.45,0.33,0.9,0.67,1.31,1.04c0.84,0.72,1.59,1.52,2.27,2.36c0.36,0.41,0.67,0.86,0.97,1.3c0.31,0.45,0.62,0.89,0.87,1.37
				l0.78,1.42l0.63,1.47c1.64,3.96,2.12,8.21,2.01,12.31c-0.13,2.04-0.24,4.09-0.62,6.08c-0.28,1.98-0.74,4.08-1.45,6.06
				c-0.74,1.97-1.65,3.9-2.82,5.66c-1.17,1.75-2.5,3.4-4,4.86c-1.51,1.45-3.13,2.76-4.85,3.91c-1.73,1.13-3.53,2.14-5.38,3.01
				c-3.72,1.71-7.62,2.93-11.59,3.72c-3.97,0.79-8,1.2-12.04,1.19c-4.04,0.01-8.1-0.41-12.11-1.36l1.81-0.37
				c-0.39,0.28-0.71,0.48-1.04,0.69c-0.33,0.22-0.67,0.41-1,0.6c-0.67,0.38-1.33,0.76-2.02,1.08c-1.35,0.7-2.73,1.28-4.12,1.86
				c-1.39,0.57-2.81,1.02-4.22,1.53l-4.3,1.23c-5.78,1.45-11.67,2.17-17.57,2.52c-11.81,0.48-23.57-1.06-34.96-3.77l-8.49-2.25
				l-8.33-2.75c-5.54-1.88-10.98-4.08-16.27-6.62c-10.58-5.05-20.65-11.3-29.56-19.03c-4.46-3.86-8.64-8.06-12.35-12.69
				c-0.91-1.17-1.86-2.31-2.7-3.54l-1.29-1.82l-1.21-1.88c-0.84-1.23-1.53-2.57-2.29-3.85c-0.67-1.34-1.41-2.65-1.99-4.04
				c-1.26-2.73-2.27-5.61-2.93-8.62c-0.66-3-1-6.14-0.63-9.35c0.36-3.18,1.53-6.49,3.79-9.11c0.6-0.59,1.23-1.25,1.84-1.74
				c0.62-0.47,1.22-0.98,1.86-1.4c0.63-0.45,1.27-0.87,1.93-1.26c0.65-0.41,1.31-0.77,1.98-1.14c5.34-2.87,10.87-4.76,16.18-6.89
				c5.32-2.1,10.49-4.39,15.19-7.38c4.71-2.96,8.94-6.6,12.41-10.91c3.52-4.27,6.23-9.19,8.41-14.34l1,2.81
				c-6.99-3.68-14.32-7.02-21.67-10.14c-7.37-3.12-14.84-6-22.4-8.6c-15.12-5.18-30.59-9.44-46.34-12.05
				c-3.93-0.71-7.89-1.18-11.84-1.7l-5.95-0.58c-1.98-0.21-3.97-0.25-5.96-0.39c-7.94-0.38-15.92-0.4-23.8,0.45
				c-1.98,0.12-3.94,0.45-5.9,0.72c-1.96,0.28-3.93,0.52-5.86,0.97c-1.93,0.41-3.89,0.75-5.8,1.23l-5.72,1.57
				c-7.55,2.33-14.82,5.45-21.66,9.37l0.5-3.08c5.57,6.32,11.36,12.53,17.28,18.55c5.93,6.02,12.04,11.87,18.53,17.13
				c3.25,2.57,6.63,5.16,10.16,6.75l1.57,0.81c0.28,0.17,0.6,0.3,0.85,0.5l0.76,0.6c0.53,0.39,0.95,0.86,1.36,1.34
				c0.2,0.24,0.43,0.47,0.61,0.72l0.5,0.77c1.31,2.07,2.16,4.35,2.5,6.66c0.77,4.62,0.02,9.29-1.54,13.53
				c-1.63,4.23-4.14,8.04-7.12,11.34c-6.04,6.58-13.8,11.08-21.8,14.4c-8.07,3.23-16.52,5.24-25.01,6.58
				c-8.5,1.36-17.08,1.85-25.63,2.02c-8.56,0.22-17.1-0.27-25.62-0.8l1.14-0.31c-2.37,1.56-4.72,2.82-7.19,4.01
				c-2.45,1.18-4.98,2.2-7.57,3.06c-5.17,1.73-10.64,2.77-16.19,2.73c-2.77,0-5.55-0.36-8.26-1.02c-2.71-0.66-5.36-1.62-7.81-2.97
				l-0.93-0.49l-0.89-0.56c-0.58-0.38-1.2-0.72-1.76-1.14c-1.11-0.84-2.25-1.65-3.25-2.61c-2.11-1.81-3.89-3.93-5.6-6.08l1.34,0.66
				c-2.46-0.06-4.69-0.38-6.98-0.87c-2.26-0.5-4.49-1.18-6.65-2.09c-4.3-1.79-8.3-4.54-11.36-8.15c-1.54-1.79-2.84-3.8-3.84-5.92
				c-0.55-1.04-0.93-2.16-1.36-3.25c-0.34-1.12-0.73-2.23-0.96-3.37c-1.06-4.54-1.26-9.2-0.92-13.75l0.37,1.13
				c-0.5-0.63-0.8-1.14-1.13-1.72c-0.3-0.58-0.58-1.16-0.8-1.77c-0.47-1.2-0.74-2.47-0.9-3.75c-0.28-2.57,0.16-5.14,0.98-7.51
				c1.79-4.72,5.05-8.48,8.58-11.66c0.91-0.77,1.79-1.58,2.72-2.31l2.87-2.08c1.89-1.42,4.05-2.59,6.2-3.64
				c4.36-1.99,8.98-3.26,13.63-4.07c9.32-1.57,18.76-1.41,28.04-0.56c9.3,0.93,18.46,2.54,27.53,4.95l-0.96,2.34
				c-2.82-1.63-5.38-3.47-7.87-5.46c-2.47-2.01-4.81-4.18-6.94-6.57c-2.14-2.38-4.05-4.99-5.61-7.82c-1.57-2.82-2.73-5.91-3.29-9.14
				c-0.57-3.22-0.53-6.56,0.18-9.75c0.7-3.2,1.93-6.19,3.43-9.02c3.01-5.67,7.1-10.59,11.44-15.15
				c8.81-9.06,18.97-16.57,29.45-23.43c10.52-6.83,21.5-12.91,32.74-18.43l-0.23,1.46c-7.78-7.76-15.17-15.85-22.32-24.15
				c-7.13-8.32-14.01-16.87-20.47-25.73c-3.24-4.42-6.36-8.93-9.35-13.53c-3-4.59-5.85-9.29-8.5-14.1
				c-2.67-4.8-5.14-9.71-7.29-14.78c-2.15-5.06-4.03-10.25-5.42-15.59l-0.01-0.06c-0.59-2.58-1.88-5.17-3.34-7.53
				c-1.5-2.36-3.24-4.57-5.18-6.6c-2.03-2.16-3.52-4.68-4.9-7.21l-0.99-1.92l-0.9-1.96c-0.62-1.3-1.13-2.64-1.68-3.97
				c-2.1-5.34-3.74-10.85-4.96-16.46c-1.2-5.6-2.02-11.35-1.55-17.17l1.11,0.55c-6.35,5.75-13.07,10.99-20.03,15.92
				c-6.98,4.89-14.21,9.46-21.79,13.41c-3.78,1.99-7.64,3.82-11.6,5.43c-3.95,1.63-7.98,3.08-12.12,4.21
				c-8.23,2.33-16.89,3.45-25.48,2.59l0.74-0.78c0.67,4.8,0.57,9.61-0.24,14.36c-0.84,4.72-2.48,9.4-5.35,13.34
				c-1.42,1.97-3.12,3.74-5.03,5.24c-1.91,1.52-4.07,2.66-6.29,3.62c-4.5,1.82-9.33,2.61-14.11,2.73l0.72-0.7l-0.38,6.93l-1.07-0.72
				c1.85-0.8,3.69-1.32,5.62-1.65c1.92-0.32,3.88-0.46,5.84-0.29c1.95,0.17,3.89,0.61,5.73,1.33c0.88,0.43,1.82,0.79,2.63,1.35
				c0.42,0.28,0.84,0.49,1.25,0.82c0.4,0.36,0.85,0.7,1.13,1.13c1.29,1.64,1.99,3.51,2.55,5.38c0.52,1.88,0.84,3.79,1.04,5.71
				c0.37,3.84,0.21,7.7-0.38,11.5c-0.6,3.79-1.63,7.54-3.23,11.06c-1.6,3.52-3.75,6.82-6.49,9.59c-2.73,2.78-6.04,4.99-9.65,6.45
				c-3.61,1.46-7.47,2.24-11.33,2.43c-0.96,0.05-1.93,0.02-2.89,0.03c-0.48-0.01-0.97,0.02-1.45-0.02l-1.44-0.12
				c-0.96-0.09-1.92-0.12-2.87-0.27l-2.84-0.45c-0.95-0.12-1.89-0.36-2.82-0.58c-0.93-0.23-1.88-0.41-2.8-0.68
				c-1.83-0.6-3.69-1.12-5.45-1.95c-3.55-1.52-6.96-3.53-9.82-6.24c-2.86-2.68-5.16-5.97-6.71-9.57c-1.57-3.59-2.43-7.45-2.76-11.3
				c-0.34-3.86-0.17-7.74,0.31-11.55c1.01-7.64,3.1-15.01,6.19-22.11l0.08,1.18c-2.34-3.32-5.2-6.49-8.15-9.43
				c-2.97-2.95-6.14-5.72-9.43-8.32c-3.28-2.62-6.77-4.98-10.31-7.23c-3.54-2.2-7.3-4.33-10.86-6.69
				c-7.17-4.68-13.99-10.02-19.86-16.4c-5.85-6.36-10.62-13.88-13.3-22.22c-2.72-8.32-3.18-17.28-1.93-25.87
				c0.66-4.31,1.72-8.48,3.06-12.66c1.5-4.32,4.41-8.19,8.31-10.71c1.96-1.24,4.12-2.18,6.46-2.61c2.33-0.45,4.8-0.3,7.08,0.38
				c2.28,0.67,4.33,1.86,6.14,3.25c0.91,0.68,1.75,1.47,2.55,2.23c0.78,0.76,1.54,1.55,2.28,2.34c2.96,3.21,5.59,6.8,7.61,10.74
				c1.01,1.96,1.85,4.03,2.58,6.05c0.37,1,0.72,2,1.09,2.83c0.19,0.4,0.39,0.74,0.55,0.92c0.17,0.18,0.2,0.18,0.35,0.22l-1.36,0.31
				c0.35-0.24,0.54-0.34,0.8-0.48c0.25-0.14,0.49-0.23,0.73-0.35c0.49-0.2,0.97-0.39,1.47-0.53c0.99-0.31,1.99-0.47,2.98-0.59
				c2-0.21,3.98-0.05,5.9,0.3c1.93,0.32,3.75,0.96,5.53,1.64c0.87,0.38,1.73,0.77,2.6,1.17l2.49,1.34l-2.31,2.67
				c-1.67-2.17-3.01-4.34-4.29-6.65c-1.24-2.31-2.35-4.69-3.23-7.18c-1.76-4.96-2.72-10.37-2.01-15.79c0.35-2.7,1.14-5.35,2.33-7.81
				c1.19-2.46,2.77-4.7,4.59-6.69c1.75-1.98,4-3.81,6.55-5.03c2.55-1.24,5.49-1.79,8.32-1.56c2.84,0.21,5.53,1.12,7.95,2.38
				c2.43,1.26,4.6,2.89,6.55,4.71c3.92,3.62,7.02,7.98,9.44,12.64c2.39,4.68,4.1,9.73,4.84,15c0.33,2.63,0.5,5.31,0.26,7.99
				c-0.24,2.68-0.79,5.35-1.73,7.91l-1.76-2.56c0.43,0.02,0.67,0.05,0.97,0.09c0.29,0.04,0.56,0.11,0.84,0.17
				c0.54,0.14,1.08,0.31,1.59,0.54c1.03,0.44,1.99,1.02,2.84,1.75c0.83,0.73,1.59,1.55,2.18,2.45c0.33,0.44,0.55,0.92,0.82,1.38
				c0.24,0.47,0.44,0.96,0.65,1.44l-3.44-0.18c3.69-6.85,7.8-13.3,12.19-19.62c4.4-6.3,9.13-12.38,14.18-18.19
				c5.08-5.79,10.58-11.22,16.43-16.27c5.93-4.97,12.35-9.38,19.21-13.07l-0.76,0.74c3.68-6.5,7.71-12.65,12.02-18.66
				c4.32-5.99,8.95-11.77,13.94-17.25c5.01-5.45,10.38-10.63,16.31-15.15c2.96-2.27,6.08-4.34,9.33-6.22
				c0.81-0.47,1.66-0.88,2.49-1.32c0.83-0.44,1.66-0.87,2.54-1.23l2.59-1.14l2.67-0.95c3.59-1.17,7.33-2.07,11.15-2.24l1.43-0.11
				c0.48,0,0.96,0.02,1.43,0.03l2.85,0.08l5.42,0.19c3.6,0.21,7.27,0.05,10.91,0.02l5.47-0.08l5.48-0.23l10.96-0.47l10.96-0.63
				c7.31-0.38,14.62-0.96,21.92-1.43c29.23-2.08,58.43-4.63,87.62-7.31c29.19-2.71,58.36-5.58,87.52-8.62l-0.22,0.06
				c5.39-2.36,11.08-3.63,16.85-4.2c2.89-0.29,5.79-0.29,8.69-0.16c1.44,0.12,2.89,0.23,4.32,0.43c1.43,0.26,2.87,0.4,4.27,0.78
				c5.66,1.26,11.1,3.44,16.07,6.39c4.98,2.95,9.49,6.62,13.55,10.72c7.97,8.36,14.23,18.21,19.03,28.65
				c4.86,10.43,8.52,21.37,11.51,32.45l-0.21-0.21c4.38,1.34,8.53,3.2,12.6,5.22l3.03,1.55c1,0.54,1.98,1.12,2.96,1.68
				c0.98,0.57,1.99,1.1,2.94,1.71l2.87,1.83c7.64,4.92,14.76,10.6,21.45,16.73c3.23,3.19,6.57,6.27,9.55,9.7l2.3,2.51
				c0.76,0.84,1.55,1.66,2.25,2.56l4.3,5.28c0.71,0.89,1.45,1.74,2.13,2.65l1.99,2.76l3.99,5.52c0.69,0.9,1.26,1.88,1.88,2.83
				l1.83,2.87L843.11,501.74z"/>
			<path class="st4" d="M692.23,493.63c0.07-0.02,0.23-0.03,0.35,0.03c0.09,0.04,0.11,0.03,0.16,0.05l0.28,0.07l0.55,0.16
				c0.37,0.1,0.71,0.23,1.07,0.35c0.71,0.24,1.39,0.51,2.06,0.81c1.34,0.58,2.62,1.24,3.86,1.94c1.26,0.68,2.43,1.47,3.51,2.43
				c1.08,0.93,2.17,1.95,3.37,2.52l0.17,0.08c0.35,0.16,0.5,0.58,0.34,0.93c-0.11,0.23-0.32,0.37-0.56,0.4
				c-1.61,0.18-3.15,0.51-4.7,0.97c-1.54,0.46-3.09,1.03-4.68,1.4c-1.59,0.39-3.22,0.53-4.85,0.7c-1.64,0.14-3.31,0.14-4.98-0.08
				l-1.11-4.01c-0.03,0.03,0.07-0.04,0.12-0.09l0.19-0.16c0.14-0.11,0.27-0.24,0.41-0.36c0.26-0.27,0.55-0.54,0.79-0.85
				c0.51-0.61,1-1.27,1.42-2.01c0.41-0.74,0.81-1.53,1.15-2.38c0.18-0.42,0.32-0.86,0.49-1.31c0.08-0.22,0.17-0.64,0.28-0.91
				C692.04,494.02,692.17,493.81,692.23,493.63z M692.43,494c0.07,0.3,0.19,0.56,0.31,0.75c0.11,0.22,0.22,0.27,0.27,0.52
				c0.08,0.5,0.22,1.02,0.23,1.54c0.11,1.05,0.01,2.11-0.17,3.18c-0.23,1.06-0.58,2.12-1.11,3.12c-0.26,0.5-0.57,0.98-0.91,1.45
				c-0.18,0.23-0.36,0.46-0.56,0.69c-0.1,0.11-0.2,0.23-0.32,0.34c-0.13,0.12-0.21,0.2-0.43,0.38l-1.11-4.01
				c1.48,0.05,2.97,0.17,4.49,0.27c1.52,0.11,3.05,0.1,4.61,0.19c1.56,0.09,3.15,0.28,4.73,0.27c1.58-0.01,3.15-0.22,4.63-0.71
				l-0.05,1.41c-1.55-0.35-3.03-0.7-4.48-1.16c-1.44-0.47-2.76-1.17-3.96-2.02c-1.21-0.84-2.36-1.75-3.44-2.77
				c-0.54-0.51-1.06-1.04-1.55-1.61c-0.24-0.29-0.5-0.56-0.72-0.88l-0.34-0.46l-0.16-0.24c-0.02-0.03-0.08-0.09-0.06-0.11
				C692.35,494.13,692.43,494.08,692.43,494z"/>
		</g>
	</g>
	<ellipse class="st5" cx="532.21" cy="400.01" rx="78.55" ry="63.65"/>
	<g>
		<path class="st4" d="M610.97,400.01c0.02,9.38-2.52,18.7-7,26.98c-2.24,4.14-4.96,8.04-8.05,11.62
			c-3.09,3.58-6.59,6.82-10.34,9.73c-7.51,5.82-16.13,10.25-25.23,13.03c-9.09,2.85-18.65,4.12-28.14,4.03
			c-9.5-0.2-18.95-1.75-27.94-4.68c-4.49-1.47-8.87-3.28-13.06-5.46c-4.2-2.15-8.22-4.63-12-7.44
			c-7.57-5.59-14.16-12.58-18.92-20.75c-2.37-4.08-4.28-8.45-5.63-13c-1.34-4.55-2.07-9.3-2.16-14.07
			c-0.18-9.54,2.26-19.17,6.96-27.54c4.64-8.41,11.28-15.65,18.98-21.33c7.69-5.71,16.4-9.99,25.52-12.83
			c9.13-2.85,18.7-4.17,28.24-4.2c9.54,0.11,19.09,1.45,28.19,4.36c9.1,2.85,17.72,7.31,25.22,13.15
			c7.52,5.81,13.9,13.09,18.38,21.39C608.48,381.3,611.02,390.63,610.97,400.01z M610.55,400.01c-0.04-4.65-0.69-9.29-1.97-13.75
			c-1.31-4.45-3.16-8.73-5.57-12.68c-4.77-7.94-11.47-14.55-19.02-19.72c-7.58-5.17-16.01-8.96-24.76-11.51
			c-8.77-2.51-17.89-3.79-27.01-3.75c-9.12,0.03-18.22,1.34-26.96,3.91c-8.73,2.56-17.08,6.52-24.46,11.83
			c-7.37,5.31-13.81,11.96-18.42,19.79c-2.29,3.91-4.13,8.08-5.44,12.43c-1.29,4.35-2.01,8.88-2.11,13.45
			c-0.15,9.13,2.18,18.33,6.72,26.36c4.49,8.07,10.98,14.97,18.48,20.36c3.76,2.7,7.78,5.02,11.95,6.99
			c4.19,1.95,8.54,3.53,12.98,4.77c8.88,2.48,18.1,3.56,27.26,3.42c9.17-0.15,18.29-1.5,27.06-4.07c1.09-0.35,2.19-0.66,3.27-1.03
			l3.23-1.16l3.19-1.26l3.14-1.39c4.13-1.96,8.15-4.18,11.93-6.78c7.54-5.2,14.24-11.81,19.01-19.76c2.41-3.95,4.26-8.24,5.56-12.69
			C609.88,409.3,610.52,404.66,610.55,400.01z"/>
	</g>
	<g>
		<path class="st3" d="M482.43,229.71c0,0-11.53-7.86-19.09-21.21c-7.57-13.35-21.33-17.67-28.73-9.04
			c-7.4,8.63-6.37,21.16-6.37,21.16s-5.96,1.23-19.52,2.05c-13.56,0.82-28.35,10.27-14.18,29.17c14.18,18.9,54.44-1.19,62.46-24.02
			c0,0-3.09,12.12,4.8,18.62C469.68,252.95,490.34,236.48,482.43,229.71z"/>
		<g>
			<path class="st4" d="M482.3,229.88c-5.92-4.19-11.19-9.29-15.77-14.99c-0.57-0.71-1.13-1.44-1.66-2.19
				c-0.54-0.74-1.07-1.49-1.56-2.27c-0.5-0.77-1.01-1.55-1.5-2.26c-0.49-0.72-0.96-1.46-1.53-2.12c-2.14-2.74-4.76-5.07-7.65-6.77
				c-2.89-1.72-6.17-2.61-9.28-2.37c-0.39,0.02-0.76,0.14-1.14,0.19l-0.57,0.1c-0.18,0.05-0.36,0.12-0.54,0.18
				c-0.36,0.13-0.73,0.23-1.08,0.37l-1.01,0.53c-0.35,0.15-0.64,0.41-0.95,0.63c-0.3,0.24-0.64,0.42-0.9,0.71
				c-0.53,0.57-1.12,1.05-1.61,1.75c-4.14,5.17-5.85,12.31-6.11,19.15l-0.01,0.23c-0.02,0.54-0.43,0.98-0.95,1.05l0,0
				c-3.01,0.37-5.9,0.56-8.84,0.79l-8.76,0.58c-1.47,0.09-2.92,0.13-4.32,0.34c-1.42,0.19-2.83,0.47-4.2,0.86
				c-2.74,0.8-5.38,1.98-7.59,3.7c-2.2,1.71-3.94,4-4.56,6.62c-0.64,2.61-0.29,5.38,0.68,7.94c0.93,2.58,2.43,4.99,4.11,7.24
				c0.43,0.56,0.85,1.14,1.31,1.61c0.45,0.5,0.88,1,1.4,1.41l0.75,0.65c0.25,0.22,0.54,0.38,0.8,0.58l0.81,0.57l0.87,0.47
				c2.33,1.24,4.95,1.94,7.64,2.18c2.7,0.23,5.47,0.07,8.21-0.41c5.48-0.96,10.81-3.05,15.79-5.72c4.96-2.73,9.66-6.01,13.73-9.97
				c2.04-1.97,3.94-4.08,5.6-6.37c0.84-1.14,1.58-2.34,2.29-3.56l0.97-1.88c0.29-0.64,0.74-1.2,1.83-1.59l0,0l0,0
				c-0.28,2.24-0.26,4.49-0.05,6.68c0.22,2.19,0.75,4.33,1.63,6.28c0.9,1.93,2.17,3.67,3.81,4.99c1.49,1.24,3.64,1.45,5.72,1.17
				c2.09-0.33,4.17-1.06,6.11-2.08c1.95-1,3.77-2.3,5.41-3.78c1.6-1.51,3.09-3.23,3.88-5.3c0.4-1.02,0.61-2.13,0.4-3.2
				C483.73,231.53,483.11,230.58,482.3,229.88z M482.55,229.55c0.9,0.77,1.56,1.81,1.76,2.98c0.2,1.16,0.01,2.34-0.37,3.43
				c-0.8,2.17-2.17,4.05-3.74,5.72c-1.59,1.64-3.38,3.11-5.35,4.31c-1.96,1.2-4.11,2.19-6.47,2.63c-1.17,0.22-2.41,0.28-3.64,0.07
				c-1.23-0.2-2.47-0.68-3.48-1.5c-1.84-1.55-3.28-3.55-4.13-5.76c-1.73-4.43-1.47-9.28-0.14-13.58l0,0l0,0
				c1.04,1.95-0.22,3.14-0.71,4.55c-0.67,1.35-1.4,2.68-2.22,3.94c-1.62,2.54-3.5,4.9-5.54,7.1c-2.05,2.19-4.32,4.17-6.67,6.03
				c-2.36,1.86-4.86,3.54-7.49,4.99c-2.62,1.47-5.34,2.77-8.17,3.85c-2.83,1.05-5.77,1.87-8.78,2.38c-3.01,0.51-6.12,0.72-9.23,0.37
				c-3.1-0.33-6.23-1.22-8.99-2.85c-0.34-0.2-0.69-0.4-1.03-0.61l-0.96-0.72c-0.31-0.25-0.65-0.47-0.94-0.74l-0.86-0.84
				c-0.6-0.54-1.08-1.17-1.57-1.79c-0.52-0.62-0.93-1.25-1.35-1.87c-1.66-2.52-3.14-5.22-4.02-8.2c-0.91-2.94-1.14-6.24-0.19-9.28
				c0.95-3.04,3.07-5.56,5.54-7.3c4.99-3.54,11.13-4.7,16.95-4.94c5.78-0.45,11.66-1.11,17.2-2.47l0,0l-0.96,1.28
				c-0.46-3.82-0.18-7.55,0.65-11.28c0.43-1.86,1.06-3.67,1.83-5.45c0.83-1.75,1.78-3.46,3.02-4.99c0.55-0.79,1.32-1.52,2.05-2.24
				c0.36-0.37,0.82-0.64,1.23-0.96c0.42-0.3,0.83-0.63,1.31-0.85l1.4-0.71c0.48-0.19,0.99-0.34,1.48-0.5
				c0.25-0.08,0.5-0.17,0.75-0.23l0.77-0.12c0.51-0.07,1.03-0.18,1.54-0.2c1.03-0.01,2.06-0.05,3.06,0.13
				c1.02,0.09,1.98,0.38,2.94,0.64c0.49,0.1,0.93,0.34,1.39,0.51c0.45,0.2,0.93,0.35,1.36,0.58c0.85,0.49,1.75,0.88,2.53,1.46
				c3.24,2.13,5.84,4.99,7.93,8.1c0.56,0.76,0.99,1.59,1.46,2.4c0.48,0.82,0.89,1.6,1.32,2.37c0.41,0.79,0.87,1.55,1.34,2.31
				c0.45,0.77,0.94,1.52,1.44,2.25C471.79,219.89,476.79,225.22,482.55,229.55z"/>
		</g>
		<path class="st6" d="M513.49,192.12c0,0,2.51,18.89-2.32,28.25c-4.83,9.36,22.57,17.77,28.86-7.11
			c6.3-24.88,1.53-34.75-7.32-33.56C523.87,180.89,513.49,192.12,513.49,192.12z"/>
		<path class="st7" d="M513.49,192.12c0,0,2.51,18.89-2.32,28.25c-4.83,9.36,22.57,17.77,28.86-7.11
			c6.3-24.88,1.53-34.75-7.32-33.56C523.87,180.89,513.49,192.12,513.49,192.12z"/>
		<path class="st3" d="M490.42,228.13c0,0-14.16,0.39-22.14,11.74c0,0-9.87-8.37-17.11,4.06c-9.84,16.9-5.43,54.92,3.11,69.96
			L442.2,353.3h142.07c0,0,82.05-30.09,17.34-106.85c0,0-13.99-27.6-38.29-36.15c0,0-5.34-7.71-7.18-24.24
			c-1.84-16.54-4.65-40.42-21.8-38.21s-23.16,18.74-23.16,18.74s-25.23-7.72-36.99-1.84c-11.76,5.88-13.23,35.64,12.86,37.85
			c26.09,2.2,47.28-14.7,47.28-14.7s-2.09,24.99-11.64,25.35C522.7,213.25,504.48,211.53,490.42,228.13z"/>
		<path class="st8" d="M463.35,325.26c0,0-13.83-19.93-8.44-47.11c5.39-27.19,20.56-3.96,20.55,14.96
			c-0.01,14.61,0.69,29.97,0.69,29.97S474.16,340.01,463.35,325.26z"/>
		<g>
			<path class="st4" d="M463.27,325.32c-0.75-1.1-1.39-2.25-2.04-3.41c-0.63-1.16-1.25-2.33-1.82-3.53
				c-1.17-2.38-2.23-4.81-3.13-7.32c-1.83-5-3.02-10.27-3.36-15.61c-0.36-5.34,0.08-10.72,1.23-15.92c0.49-2.61,1.18-5.19,2.13-7.69
				c0.24-0.62,0.52-1.23,0.8-1.84c0.34-0.58,0.61-1.2,1.03-1.74c0.74-1.11,1.73-2.2,3.11-2.66c1.39-0.48,2.91-0.08,4.09,0.62
				c1.2,0.7,2.2,1.66,3.09,2.69c1.72,2.09,3.1,4.43,4.21,6.88c2.19,4.91,3.53,10.19,3.85,15.6l0.31,15.84
				c0.08,5.27,0.21,10.54,0.19,15.81l0,0.08l0,0.05c-0.33,1.78-0.83,3.45-1.64,5.06c-0.41,0.79-0.9,1.57-1.57,2.22
				c-0.66,0.64-1.57,1.12-2.52,1.16c-0.95,0.05-1.83-0.31-2.58-0.76c-0.76-0.45-1.44-1-2.05-1.6
				C465.36,328.04,464.27,326.71,463.27,325.32z M463.44,325.2c1.03,1.35,2.11,2.68,3.38,3.8c0.63,0.56,1.32,1.06,2.05,1.44
				c0.73,0.38,1.54,0.62,2.3,0.51c1.57-0.19,2.55-1.71,3.13-3.18c0.59-1.51,0.93-3.18,1.08-4.78l0,0.13
				c-0.47-5.27-0.68-10.55-0.85-15.83c-0.08-2.64-0.11-5.28-0.14-7.92l0.01-3.96c0.02-1.33,0.03-2.65,0-3.91
				c-0.2-5.13-1.32-10.27-3.18-15.1c-0.93-2.42-2.1-4.75-3.63-6.81c-0.78-1.01-1.67-1.95-2.71-2.64c-1.03-0.68-2.29-1.02-3.45-0.67
				c-1.17,0.35-2.09,1.32-2.8,2.37c-0.4,0.5-0.64,1.11-0.96,1.67c-0.26,0.6-0.52,1.19-0.75,1.8c-0.87,2.45-1.42,5.03-1.72,7.63
				c-0.81,5.18-0.77,10.43-0.41,15.6c0.4,5.18,1.21,10.34,2.53,15.41c0.3,1.28,0.74,2.51,1.11,3.77c0.44,1.24,0.86,2.48,1.37,3.69
				C460.82,320.64,462.01,323,463.44,325.2z"/>
		</g>
		<path class="st4" d="M471.25,297.85c-3,0.68-3.88,8.02-1.97,16.38c1.32,5.81,3.65,10.58,5.95,12.73c0.71-1.98,0.94-3.89,0.94-3.89
			s-0.48-10.57-0.64-22.51C474.08,298.59,472.57,297.55,471.25,297.85z"/>
		<path class="st8" d="M496.4,324.3c0,0-9.59-33.8,4.57-55.15c14.15-21.35,26.21-18.08,27.97-5.27c1.76,12.81-9.25,43.52-7.77,54.29
			C522.66,328.93,514.6,354.34,496.4,324.3z"/>
		<g>
			<path class="st4" d="M496.3,324.35c-2.45-7.95-3.68-16.22-3.89-24.56c-0.05-2.08,0.02-4.17,0.13-6.26
				c0.16-2.08,0.36-4.17,0.71-6.24c0.63-4.14,1.8-8.22,3.48-12.09c1.73-3.86,4.14-7.36,6.75-10.58c1.3-1.63,2.71-3.17,4.21-4.63
				c1.49-1.46,3.09-2.82,4.85-3.97c1.74-1.16,3.67-2.09,5.77-2.49c1.05-0.19,2.13-0.24,3.2-0.06c1.07,0.18,2.09,0.6,2.99,1.2
				c1.81,1.22,3.05,3.08,3.85,5.04c0.82,1.98,1.18,4.08,1.31,6.2c0.1,1.06,0.02,2.1,0.04,3.15c-0.02,1.05-0.13,2.09-0.19,3.13
				c-0.19,2.08-0.44,4.15-0.78,6.2c-0.64,4.11-1.44,8.17-2.31,12.22c-0.84,4.05-1.73,8.08-2.5,12.12
				c-0.75,4.03-1.53,8.09-1.72,12.08c-0.1,1.01-0.01,1.96,0.04,2.92c0.01,0.47,0.11,1.07,0.13,1.6c0.02,0.54,0.05,1.09,0.04,1.62
				c-0.01,2.15-0.27,4.28-0.76,6.36c-0.49,2.08-1.14,4.13-2.15,6.05c-1.01,1.9-2.32,3.79-4.35,4.97c-1.01,0.55-2.17,0.95-3.34,0.9
				c-1.16-0.03-2.29-0.29-3.28-0.78c-2.01-0.93-3.63-2.36-5.1-3.86C500.56,331.5,498.32,327.99,496.3,324.35z M496.5,324.26
				c2.28,3.4,4.76,6.75,7.69,9.56c1.47,1.38,3.09,2.64,4.88,3.35c1.78,0.76,3.72,0.7,5.26-0.27c1.56-0.95,2.69-2.62,3.54-4.37
				c0.85-1.77,1.41-3.7,1.81-5.66c0.38-1.96,0.6-3.96,0.59-5.94c0.01-0.5-0.03-0.98-0.05-1.47c-0.03-0.51-0.11-0.92-0.15-1.49
				c-0.08-1.1-0.18-2.21-0.1-3.26c0.2-4.27,0.98-8.36,1.81-12.43c0.85-4.06,1.81-8.08,2.72-12.11c0.91-4.03,1.84-8.04,2.6-12.08
				c0.72-4.03,1.47-8.1,1.42-12.15c-0.03-2.01-0.3-4.04-1-5.92c-0.66-1.88-1.79-3.64-3.42-4.75c-0.81-0.56-1.73-0.95-2.7-1.13
				c-0.97-0.17-1.98-0.15-2.96,0.02c-1.98,0.34-3.83,1.29-5.51,2.42c-3.36,2.32-6.09,5.45-8.51,8.74
				c-2.43,3.31-4.56,6.79-6.06,10.55c-3.03,7.53-4.21,15.72-4.3,23.89c-0.04,4.09,0.13,8.2,0.57,12.29
				C495.05,316.15,495.64,320.26,496.5,324.26z"/>
		</g>
		<path class="st4" d="M520.38,293.11c-4.39,0-7.95,10.15-7.95,22.68c0,8.77,1.75,16.36,4.3,20.14c3.69-4.2,5.15-12.64,4.44-17.76
			c-0.65-4.67,1.07-13.11,3.06-22.21C523.09,294.15,521.78,293.11,520.38,293.11z"/>
		<g>
			<path class="st4" d="M490.51,228.32c-0.23,0.04-0.35,0.04-0.48,0.05l-0.4,0.04c-0.27,0.03-0.53,0.06-0.79,0.1
				c-0.53,0.07-1.06,0.17-1.58,0.28c-1.05,0.21-2.08,0.48-3.11,0.78c-2.04,0.62-4.02,1.44-5.89,2.43c-0.95,0.48-1.83,1.06-2.72,1.63
				c-0.43,0.3-0.85,0.63-1.27,0.95l-0.63,0.48l-0.59,0.53c-1.63,1.35-2.94,3.01-4.17,4.7c-0.24,0.33-0.71,0.4-1.04,0.16l0,0
				l-0.02-0.02c-2.85-2.15-6.84-3.21-10-1.73c-0.41,0.14-0.78,0.38-1.14,0.62c-0.37,0.23-0.74,0.45-1.06,0.78
				c-0.32,0.3-0.67,0.57-0.98,0.89l-0.87,1.03c-0.31,0.33-0.56,0.71-0.8,1.1l-0.74,1.15c-0.45,0.81-0.9,1.62-1.25,2.48
				c-1.53,3.4-2.42,7.1-3.05,10.82c-0.6,3.74-0.87,7.54-0.94,11.34c-0.14,7.61,0.62,15.24,1.95,22.73
				c0.68,3.74,1.55,7.44,2.64,11.06c1.12,3.6,2.45,7.15,4.25,10.32c0.25,0.43,0.28,0.94,0.15,1.38l-11.94,39.46l-1.81-2.45
				c11.84,0.01,23.68,0,35.52,0.1c11.84,0.05,23.68,0.24,35.52,0.35l35.52,0.42c11.84,0.18,23.68,0.2,35.52,0.28l-0.26,0.05
				c10.1-4.02,19.59-10.07,27.22-17.89c3.8-3.92,7.11-8.33,9.58-13.18c2.47-4.85,4.1-10.14,4.63-15.55c0.56-5.41,0.11-10.88-1-16.21
				l-1.01-3.96c-0.14-0.67-0.38-1.31-0.61-1.95l-0.68-1.93c-0.81-2.61-2.04-5.06-3.12-7.56l-0.42-0.93l-0.49-0.9l-0.97-1.8
				c-0.65-1.2-1.28-2.41-1.96-3.6c-1.48-2.3-2.88-4.66-4.42-6.92c-1.62-2.21-3.17-4.47-4.84-6.64l-5.18-6.39
				c-0.05-0.06-0.1-0.13-0.13-0.2l-0.01-0.02c-2.09-3.82-4.55-7.57-7.2-11.1c-2.66-3.54-5.56-6.89-8.69-10.01
				c-3.11-3.14-6.56-5.9-10.17-8.39l-2.78-1.76c-0.92-0.59-1.93-1.02-2.88-1.56c-0.48-0.26-0.96-0.52-1.43-0.8
				c-0.48-0.27-0.98-0.48-1.46-0.74c-0.98-0.5-1.94-1.04-2.89-1.68l-0.27-0.18c-0.02-0.02-0.04-0.04-0.05-0.06l0-0.01
				c-2.46-3.88-3.98-8.08-5.22-12.37c-1.24-4.29-2.02-8.71-2.56-13.11c-0.55-4.37-1.14-8.72-1.99-13c-0.85-4.27-1.93-8.5-3.62-12.4
				c-0.85-1.94-1.86-3.79-3.1-5.41c-1.25-1.6-2.76-2.94-4.46-3.82c-1.72-0.85-3.64-1.22-5.61-1.15c-0.49,0-0.99,0.09-1.48,0.12
				c-0.5,0.06-1.01,0.2-1.51,0.29l-1.52,0.3l-1.47,0.47c-0.48,0.17-0.99,0.28-1.46,0.5l-1.4,0.63l-0.7,0.31l-0.67,0.39l-1.33,0.77
				c-1.7,1.14-3.35,2.39-4.77,3.89c-1.45,1.46-2.75,3.09-3.87,4.83c-0.57,0.87-1.09,1.76-1.57,2.68c-0.47,0.89-0.94,1.9-1.24,2.72
				c-0.39,1.08-1.54,1.66-2.63,1.36l-0.06-0.02l0,0c-5.46-1.56-11.19-2.68-16.83-3.4c-5.63-0.63-11.44-0.84-16.51,0.62l-1.78,0.7
				c-0.32,0.1-0.53,0.27-0.79,0.41c-0.26,0.13-0.5,0.31-0.73,0.49c-0.95,0.71-1.82,1.6-2.54,2.65c-0.72,1.05-1.32,2.21-1.82,3.43
				c-0.46,1.24-0.83,2.52-1.08,3.84c-0.94,5.27,0.02,10.99,3.06,15.35c1.51,2.18,3.55,3.97,5.88,5.31c2.33,1.35,4.99,2.16,7.72,2.63
				c5.54,0.72,11.37,0.63,17-0.32c5.66-0.93,11.2-2.62,16.51-4.88c2.66-1.11,5.25-2.41,7.78-3.81c2.52-1.4,5-2.95,7.27-4.63
				l0.05-0.04c0.47-0.35,1.13-0.25,1.48,0.22c0.16,0.22,0.23,0.49,0.2,0.74c-0.27,2.52-0.66,4.97-1.15,7.42
				c-0.49,2.45-1.09,4.88-1.88,7.28c-0.79,2.39-1.75,4.75-3.16,6.93c-0.72,1.08-1.57,2.11-2.65,2.94c-1.07,0.83-2.43,1.4-3.84,1.43
				l-0.09,0l-0.01,0c-2.92-0.2-5.99,0.08-8.94,0.68c-2.96,0.6-5.87,1.49-8.62,2.77c-2.74,1.27-5.41,2.76-7.81,4.64
				c-1.26,0.86-2.35,1.93-3.5,2.93C492.63,226.02,491.59,227.22,490.51,228.32z M490.32,227.94c1.03-1.12,1.95-2.28,3.06-3.35
				c1.13-1.04,2.21-2.15,3.46-3.07c2.38-1.98,5.06-3.57,7.83-4.95c2.78-1.38,5.74-2.38,8.77-3.09c3.04-0.69,6.12-1.09,9.32-0.95
				l-0.1,0c2.18-0.11,3.94-1.85,5.17-3.81c1.23-2,2.11-4.27,2.82-6.58c0.7-2.32,1.24-4.7,1.66-7.1c0.42-2.39,0.75-4.84,0.95-7.23
				l1.73,0.92c-2.4,1.87-4.87,3.48-7.44,4.98c-2.57,1.5-5.2,2.89-7.92,4.1c-5.42,2.45-11.13,4.34-17.02,5.44
				c-5.91,1.11-11.92,1.38-18.01,0.71c-3.05-0.45-6.11-1.3-8.9-2.83c-2.79-1.51-5.31-3.63-7.19-6.23
				c-3.81-5.23-5.05-11.93-4.08-18.18c0.25-1.57,0.66-3.12,1.19-4.64c0.57-1.51,1.3-2.98,2.22-4.36c0.92-1.38,2.09-2.65,3.47-3.7
				c0.35-0.27,0.69-0.53,1.09-0.74c0.38-0.21,0.77-0.48,1.15-0.61l2.3-0.94c3.11-0.96,6.23-1.3,9.3-1.42
				c3.07-0.05,6.09,0.16,9.08,0.49c5.99,0.72,11.78,1.98,17.58,3.69l0,0l-2.69,1.34c0.49-1.24,1-2.21,1.58-3.26
				c0.57-1.02,1.19-2.02,1.86-2.97c1.32-1.93,2.84-3.72,4.54-5.34c1.66-1.66,3.59-3.05,5.58-4.29l1.56-0.84l0.78-0.42l0.82-0.34
				l1.63-0.67c0.54-0.23,1.12-0.35,1.68-0.53l1.7-0.49l1.73-0.3c0.58-0.09,1.14-0.22,1.74-0.27c0.61-0.03,1.2-0.11,1.82-0.1
				c2.44-0.02,4.96,0.53,7.16,1.71c2.19,1.21,3.98,2.94,5.39,4.85c1.39,1.93,2.44,4.01,3.3,6.13c1.7,4.25,2.67,8.66,3.42,13.05
				c0.74,4.4,1.2,8.81,1.63,13.21c0.41,4.36,1.04,8.68,2.13,12.9c1.07,4.19,2.5,8.42,4.67,12.07l0.01,0.01l-0.32-0.24
				c1.13,0.2,2.24,0.52,3.34,0.87c1.12,0.31,2.16,0.8,3.17,1.33c1.02,0.53,2.06,1.02,3.02,1.63l2.89,1.85
				c3.75,2.61,7.3,5.5,10.49,8.75c3.2,3.23,6.16,6.68,8.86,10.32c2.69,3.66,5.18,7.42,7.32,11.5l-0.14-0.22l5.16,6.54
				c1.66,2.22,3.21,4.54,4.82,6.8c1.54,2.32,2.93,4.73,4.4,7.09c0.67,1.22,1.3,2.47,1.94,3.7l0.97,1.85l0.48,0.93l0.42,0.96
				c1.08,2.57,2.3,5.08,3.1,7.77l0.67,1.98c0.22,0.66,0.46,1.32,0.6,2l0.99,4.08c1.08,5.48,1.47,11.13,0.83,16.7
				c-0.64,5.56-2.28,11.02-4.85,16c-2.55,4.99-5.95,9.5-9.84,13.48c-3.89,4-8.28,7.46-12.9,10.55c-4.65,3.06-9.52,5.74-14.73,7.84
				c-0.07,0.03-0.15,0.04-0.23,0.05h-0.03c-11.84,0.08-23.68,0.11-35.52,0.28l-35.52,0.42c-11.84,0.11-23.68,0.3-35.52,0.35
				c-11.84,0.09-23.68,0.08-35.52,0.1c-1.04,0-1.89-0.84-1.9-1.88c0-0.19,0.03-0.39,0.08-0.57l12.21-39.37l0.15,1.38
				c-1.96-3.57-3.29-7.32-4.41-11.09c-1.09-3.78-1.93-7.61-2.59-11.47c-1.27-7.72-1.81-15.54-1.51-23.35
				c0.16-3.91,0.53-7.81,1.24-11.68c0.74-3.86,1.75-7.7,3.48-11.32c0.4-0.91,0.91-1.78,1.42-2.65l0.85-1.26
				c0.28-0.42,0.56-0.84,0.92-1.21l1.02-1.15c0.37-0.36,0.79-0.68,1.18-1.02c0.38-0.35,0.84-0.62,1.3-0.88
				c0.45-0.27,0.9-0.54,1.42-0.7c1.97-0.82,4.2-0.9,6.21-0.4c2.03,0.5,3.83,1.43,5.46,2.74l-1.07,0.14
				c1.37-1.74,2.82-3.44,4.57-4.79l0.63-0.53l0.68-0.48c0.45-0.31,0.9-0.64,1.36-0.94c0.95-0.56,1.88-1.13,2.88-1.59
				c1.97-0.96,4.04-1.71,6.15-2.24c1.06-0.25,2.13-0.48,3.2-0.64c0.54-0.08,1.08-0.15,1.62-0.2c0.27-0.03,0.54-0.05,0.81-0.07
				l0.41-0.02C490.14,227.93,490.28,227.91,490.32,227.94z"/>
		</g>
		<path class="st9" d="M458.33,327.08c0,0,23-11.25,56.76,2.94c0,0,5.17-31.05,49.27-17.9c0,0,23.79-6.67,30.99-12.24
			c7.21-5.57,15.1-32.62,6.25-53.43c0,0,17.05,4.37,26.76,7.24c9.71,2.88,50.58,11.13,49.53,65.62
			c-1.05,54.49-41.92,82.26-86.45,74.92c0,0-35.17,75.26-74.72,38.09c0,0-32.8,6.96-45.73-20.87c0,0-28.95,6.46-42.44-13.21
			c-13.49-19.67-2.45-50.5,25.71-84.37C454.27,313.89,455.18,319.66,458.33,327.08z"/>
		<g>
			<path class="st4" d="M458.4,326.89c-0.18-0.05,0-0.05,0.04-0.09l0.21-0.1l0.42-0.19l0.85-0.36c0.57-0.23,1.14-0.45,1.72-0.65
				c1.15-0.41,2.32-0.77,3.5-1.1c2.36-0.66,4.76-1.15,7.18-1.51c4.85-0.73,9.77-0.89,14.67-0.65c4.9,0.29,9.79,0.96,14.56,2.13
				c4.78,1.15,9.47,2.67,14.02,4.52l-1.69,0.93c0.52-2.69,1.46-5.05,2.68-7.37c1.22-2.29,2.77-4.43,4.59-6.31
				c3.64-3.78,8.44-6.38,13.47-7.67c5.05-1.3,10.27-1.46,15.34-1c5.09,0.47,10.06,1.55,14.91,2.95l-0.99-0.01
				c7.1-2.08,14.21-4.4,21.01-7.19c1.7-0.7,3.37-1.45,4.99-2.25c1.6-0.8,3.2-1.7,4.44-2.68c1.12-0.93,2.15-2.36,3.01-3.86
				c0.87-1.51,1.62-3.13,2.28-4.8c1.32-3.34,2.26-6.87,2.93-10.44c0.68-3.57,1.09-7.2,1.17-10.84c0.18-7.26-0.85-14.58-3.55-21.28
				l-0.02-0.05c-0.32-0.8,0.06-1.71,0.86-2.03c0.33-0.13,0.67-0.15,0.99-0.06c10.05,2.72,20.1,5.53,30.04,8.57
				c5.03,1.48,10.01,3.33,14.69,5.76c4.69,2.42,9.08,5.44,12.98,9c7.83,7.12,13.27,16.63,16.04,26.75
				c2.79,10.14,3.33,20.76,2.53,31.18c-0.41,5.22-1.24,10.42-2.52,15.51c-1.24,5.1-2.98,10.09-5.21,14.86
				c-4.45,9.55-11.03,18.16-19.29,24.83c-8.24,6.67-18.08,11.39-28.44,13.75c-10.36,2.4-21.18,2.59-31.67,0.95l2-1.06
				c-1.83,3.88-3.86,7.52-6.01,11.16c-2.16,3.62-4.46,7.15-6.93,10.58c-4.95,6.83-10.51,13.34-17.26,18.7
				c-3.37,2.67-7.07,5.02-11.13,6.74c-4.05,1.72-8.51,2.75-13.03,2.63c-4.51-0.08-8.98-1.28-12.93-3.29
				c-4-1.95-7.49-4.66-10.67-7.59l2.01,0.56c-2.47,0.47-4.74,0.67-7.11,0.78c-2.35,0.09-4.71,0.05-7.06-0.15
				c-4.7-0.41-9.39-1.44-13.81-3.25c-4.42-1.81-8.55-4.46-11.99-7.84c-3.45-3.36-6.15-7.41-8.14-11.72l2.38,1.17
				c-3.13,0.62-6.08,0.86-9.14,0.96c-3.04,0.09-6.08-0.05-9.11-0.44c-6.03-0.8-12.09-2.63-17.29-6.1
				c-5.22-3.43-9.32-8.46-11.75-14.14c-2.47-5.7-3.23-11.98-2.77-18.01c0.44-6.06,2.02-11.91,4.07-17.51
				c2.11-5.59,4.72-10.94,7.67-16.07c2.93-5.15,6.22-10.07,9.71-14.83c3.49-4.76,7.19-9.35,11.03-13.82l0.01-0.01
				c0.18-0.21,0.5-0.23,0.7-0.05c0.09,0.08,0.15,0.19,0.17,0.3c0.35,2.23,0.91,4.47,1.53,6.67c0.32,1.1,0.66,2.2,1.04,3.28
				c0.18,0.55,0.38,1.08,0.58,1.62C458.11,325.92,458.25,326.35,458.4,326.89z M458.26,327.28c-0.28-0.53-0.6-1.16-0.81-1.71
				c-0.22-0.54-0.45-1.07-0.65-1.61c-0.43-1.08-0.82-2.17-1.19-3.26c-0.73-2.2-1.37-4.42-1.82-6.74l0.88,0.24
				c-7.32,9.16-14.05,18.81-19.62,29.06c-2.78,5.13-5.2,10.43-7.1,15.9c-1.84,5.47-3.2,11.13-3.46,16.82
				c-0.29,5.67,0.48,11.38,2.8,16.45c2.28,5.08,5.99,9.47,10.66,12.43c4.65,3.01,10.17,4.61,15.76,5.25
				c2.81,0.31,5.65,0.4,8.49,0.27c2.81-0.13,5.73-0.45,8.36-0.99l0.03-0.01c0.98-0.2,1.94,0.31,2.35,1.18
				c1.83,3.89,4.26,7.46,7.32,10.4c3.04,2.95,6.68,5.25,10.64,6.84c3.96,1.6,8.21,2.49,12.52,2.85c2.16,0.18,4.33,0.23,6.5,0.14
				c2.14-0.09,4.39-0.3,6.36-0.68l0.03-0.01c0.74-0.14,1.47,0.1,1.98,0.57c2.93,2.7,6.09,5.14,9.58,6.85
				c3.46,1.76,7.23,2.74,11.04,2.87c3.81,0.13,7.65-0.7,11.26-2.19c3.62-1.49,7.03-3.59,10.2-6.06
				c6.35-4.94,11.78-11.15,16.63-17.73c4.82-6.6,9.15-13.7,12.77-20.98l0.03-0.06c0.37-0.75,1.19-1.14,1.98-1
				c10.03,1.73,20.39,1.71,30.34-0.43c9.94-2.14,19.47-6.34,27.55-12.59c8.1-6.21,14.65-14.41,19.17-23.62
				c2.27-4.6,4.07-9.45,5.39-14.43c1.31-4.98,2.15-10.09,2.6-15.23c0.44-5.14,0.54-10.33,0.2-15.48c-0.34-5.15-1.1-10.28-2.52-15.23
				c-1.39-4.96-3.41-9.74-6.05-14.14c-2.66-4.39-5.99-8.36-9.82-11.76c-3.82-3.41-8.18-6.2-12.78-8.44
				c-4.61-2.25-9.47-3.92-14.45-5.24c-10.03-2.78-20.08-5.33-30.18-7.8l1.84-2.14c3.09,7.12,4.37,14.9,4.25,22.57
				c-0.11,7.68-1.41,15.33-4.19,22.58c-0.71,1.81-1.52,3.59-2.51,5.32c-1.01,1.72-2.13,3.43-3.9,4.9c-1.7,1.33-3.41,2.23-5.15,3.1
				c-1.74,0.85-3.49,1.61-5.25,2.33c-7.05,2.83-14.2,5.11-21.46,7.19c-0.34,0.1-0.68,0.09-0.99-0.01
				c-4.66-1.42-9.42-2.51-14.22-3.02c-4.79-0.5-9.64-0.4-14.24,0.72c-4.59,1.08-8.9,3.29-12.25,6.59c-1.68,1.64-3.11,3.53-4.28,5.59
				c-1.15,2.03-2.09,4.33-2.56,6.51l-0.02,0.07c-0.14,0.66-0.79,1.07-1.45,0.93c-0.08-0.02-0.15-0.04-0.22-0.07
				c-8.81-3.81-18.17-6.39-27.75-7.29c-4.79-0.41-9.62-0.43-14.41,0.1c-2.4,0.26-4.78,0.66-7.13,1.19c-1.18,0.26-2.35,0.56-3.5,0.91
				c-0.58,0.17-1.15,0.36-1.72,0.56l-0.85,0.31l-0.42,0.17l-0.21,0.09C458.53,327.2,458.57,327.26,458.26,327.28z"/>
		</g>
		<path class="st4" d="M472.77,353.86c0,0,3.87,2.01,8.36-1.08c4.49-3.1,5.88-6.4,12.85-8.23c6.96-1.83,4.95-16.22-14.39-16.69
			C460.23,327.4,448,341.79,472.77,353.86z"/>
		<ellipse class="st8" cx="476.16" cy="336.63" rx="9.71" ry="4.55"/>
		<g>
			<path class="st4" d="M478.84,322.9c-3.76,0.43-7.5,0.98-11.15,1.87c-1.83,0.42-3.64,0.91-5.39,1.53
				c-1.73,0.63-3.5,1.31-4.96,2.27c-1.46,1.03-2.73,2.32-3.86,3.72c-1.05,1.46-2,3.02-2.66,4.7c-1.41,3.32-1.85,7.02-1.32,10.55
				c0.49,3.55,2.19,6.87,4.5,9.63c2.3,2.78,5.38,4.88,8.68,6.53c3.32,1.63,6.89,2.8,10.54,3.66c3.64,0.9,7.38,1.44,11.15,1.74
				c-3.79,0.18-7.59-0.16-11.36-0.73c-3.76-0.63-7.49-1.61-11.03-3.18c-3.53-1.54-6.88-3.74-9.5-6.73
				c-2.57-2.97-4.47-6.64-5.06-10.6c-0.55-3.94-0.03-8.03,1.57-11.65c0.77-1.82,1.85-3.5,3.05-5.06c1.27-1.52,2.72-2.89,4.42-3.96
				c1.76-1.04,3.58-1.65,5.43-2.2c1.85-0.53,3.72-0.93,5.6-1.23C471.26,323.2,475.05,322.86,478.84,322.9z"/>
		</g>
		<path class="st4" d="M533.44,342.97c0,0,5.37,36.19-32.68,32.68c0,0,2.57,6.77,2.33,14.24c-0.23,7.47-4.41,24.98,14.14,22.41
			c18.55-2.57,36.6-25.65,33.15-57.8C550.38,354.5,548.22,346.21,533.44,342.97z"/>
		<g>
			<path class="st4" d="M533.51,343.04c0.03,0.02,0.05,0.01,0.05,0.01l0.02,0.11l0.04,0.21l0.06,0.43l0.11,0.86
				c0.07,0.57,0.12,1.14,0.15,1.72c0.07,1.15,0.08,2.3,0.07,3.46c-0.04,2.31-0.3,4.62-0.81,6.89c-0.98,4.53-2.98,8.99-6.29,12.43
				c-1.62,1.74-3.57,3.17-5.67,4.27c-2.09,1.11-4.33,1.96-6.63,2.45c-4.6,1.07-9.33,1.07-13.92,0.52l0.77-1.01
				c1.57,4.91,2.3,9.99,2,15.08c-0.19,2.53-0.51,5.01-0.59,7.5c-0.08,2.49,0.06,5,0.75,7.35c0.35,1.17,0.86,2.29,1.58,3.25
				c0.72,0.96,1.66,1.73,2.73,2.26c1.06,0.54,2.24,0.85,3.43,1.02c1.21,0.12,2.42,0.16,3.64,0.04c4.9-0.38,9.59-2.21,13.67-4.9
				c4.09-2.7,7.61-6.22,10.5-10.18c1.44-1.98,2.75-4.08,3.86-6.27c1.14-2.18,2.15-4.43,2.99-6.74c3.41-9.25,4.45-19.32,3.6-29.22
				l0.02,0.11c-0.19-0.68-0.59-1.49-1.03-2.19c-0.43-0.72-0.97-1.39-1.53-2.03c-1.15-1.28-2.51-2.36-3.97-3.3
				c-1.45-0.97-3.04-1.72-4.66-2.43c-0.82-0.32-1.66-0.61-2.48-0.91L533.51,343.04z M533.36,342.89c0.85,0.17,1.78,0.32,2.72,0.52
				c0.86,0.25,1.73,0.48,2.58,0.75c1.69,0.6,3.39,1.24,4.95,2.17c1.57,0.9,3.07,1.97,4.37,3.28c0.64,0.66,1.26,1.36,1.79,2.13
				c0.54,0.79,1,1.55,1.34,2.57c0.01,0.02,0.01,0.04,0.01,0.06l0.01,0.05c1.23,10.05,0.52,20.5-3,30.15
				c-1.77,4.8-4.15,9.41-7.28,13.49c-3.1,4.08-6.82,7.75-11.22,10.45c-2.19,1.35-4.53,2.47-6.98,3.28
				c-2.46,0.79-5.02,1.24-7.59,1.33c-1.29,0.06-2.58-0.03-3.87-0.21c-1.28-0.23-2.55-0.62-3.71-1.26c-2.35-1.27-3.9-3.65-4.57-6.12
				c-0.7-2.49-0.76-5.06-0.7-7.58c0.06-2.53,0.35-5.04,0.44-7.52c0.12-4.95-0.93-9.94-2.62-14.51c-0.14-0.39,0.06-0.82,0.45-0.97
				c0.1-0.04,0.21-0.05,0.31-0.05l0.02,0c4.5,0.3,9.03,0.12,13.35-0.87c1.09-0.21,2.13-0.59,3.19-0.91
				c0.52-0.17,1.02-0.41,1.53-0.61l0.76-0.32l0.73-0.39c1.95-1,3.76-2.29,5.3-3.85c3.11-3.11,5.22-7.18,6.38-11.51
				c0.58-2.17,0.95-4.4,1.18-6.66c0.1-1.13,0.17-2.26,0.18-3.4l-0.01-1.71l-0.03-0.85l-0.02-0.43l-0.02-0.21l-0.01-0.11
				C533.33,343.03,533.34,342.94,533.36,342.89z"/>
		</g>
		<path class="st10" d="M550.17,371.67C550.17,371.67,550.17,371.67,550.17,371.67c-20.04-6.95-29.28,9.76-29.28,9.76
			c-14.4-1.65-17.8,8.46-17.8,8.46c-0.23,7.47-4.41,24.98,14.14,22.41C532.27,410.22,546.98,394.64,550.17,371.67z"/>
		<g>
			<path class="st4" d="M550.08,371.73c0.11,0.09,0.03,0.02,0.05,0.04l-0.01,0l-0.02,0l-0.03-0.01l-0.06-0.01l-0.13-0.03l-0.26-0.06
				l-0.51-0.11l-1.02-0.22c-0.68-0.14-1.34-0.36-2.03-0.42l-2.06-0.22c-0.34-0.03-0.68-0.09-1.02-0.09l-1.03,0.01
				c-0.68,0.01-1.37-0.01-2.05,0.03l-2.02,0.26c-0.68,0.04-1.33,0.27-1.98,0.42c-0.66,0.16-1.31,0.32-1.93,0.59
				c-2.55,0.87-4.9,2.26-6.97,3.98l-1.5,1.35c-0.46,0.49-0.95,0.96-1.39,1.47c-0.9,0.99-1.72,2.11-2.4,3.18l-0.02,0.02
				c-0.2,0.31-0.55,0.47-0.89,0.44l-2.56-0.22c-0.85,0.02-1.71-0.05-2.56,0.03c-1.7,0.11-3.37,0.45-4.97,1.04
				c-1.58,0.63-3.06,1.51-4.34,2.66c-1.25,1.15-2.34,2.58-2.96,4.14l0.02-0.1c-0.23,3.72-0.71,7.39-0.44,11.05
				c0.16,1.81,0.47,3.62,1.15,5.25c0.67,1.63,1.75,3.05,3.19,3.94c1.42,0.92,3.14,1.33,4.87,1.46c1.74,0.12,3.54-0.04,5.3-0.34
				c3.51-0.59,6.91-1.9,9.96-3.77c6.12-3.73,11.21-9.13,14.9-15.38C546.18,385.95,548.54,378.82,550.08,371.73z M550.26,371.62
				l-0.3,2.77l-0.18,1.44c-0.07,0.47-0.17,0.92-0.26,1.38l-0.55,2.75l-0.75,2.7l-0.38,1.35l-0.47,1.32
				c-0.32,0.88-0.61,1.77-0.96,2.64c-0.77,1.71-1.5,3.45-2.44,5.08c-0.86,1.68-1.94,3.23-2.98,4.81l-1.72,2.25
				c-0.57,0.75-1.25,1.42-1.87,2.14c-2.57,2.79-5.54,5.23-8.84,7.15c-3.3,1.91-6.98,3.23-10.78,3.78c-1.89,0.28-3.82,0.37-5.76,0.16
				c-1.92-0.24-3.92-0.75-5.54-1.98c-1.65-1.18-2.79-2.93-3.41-4.76c-0.64-1.83-0.85-3.74-0.91-5.61c-0.13-3.75,0.46-7.45,0.6-11.11
				l0-0.02c0-0.03,0.01-0.06,0.02-0.08c0.68-1.73,1.71-3.24,3-4.54c1.27-1.32,2.8-2.38,4.46-3.17c1.68-0.75,3.47-1.24,5.29-1.48
				c0.91-0.14,1.83-0.14,2.74-0.2l2.74,0.13l-0.91,0.47c1.53-2.58,3.47-4.71,5.73-6.54c2.25-1.83,4.86-3.23,7.63-4.07
				c0.68-0.26,1.39-0.39,2.1-0.52c0.71-0.12,1.41-0.32,2.14-0.33l2.15-0.14c0.72,0.01,1.43,0.09,2.14,0.13l1.07,0.08
				c0.35,0.04,0.7,0.14,1.05,0.2l2.08,0.44c0.7,0.13,1.35,0.43,2.02,0.63l1,0.35l0.5,0.18l0.25,0.09l0.12,0.04l0.06,0.02l0.03,0.01
				l0.02,0.01l0.01,0C550.22,371.59,550.14,371.53,550.26,371.62z"/>
		</g>
		<g>
			<path class="st4" d="M476.16,361.57c3.1,3.49,6.74,6.4,10.69,8.66c1.97,1.14,4.07,2.02,6.2,2.77c1.09,0.29,2.14,0.71,3.26,0.9
				l1.65,0.35l1.68,0.2c4.51,0.53,9.15,0.52,13.64-0.13c2.25-0.35,4.48-0.88,6.59-1.73c2.12-0.83,4.16-1.95,5.91-3.51
				c-1.41,1.89-3.38,3.32-5.47,4.45c-2.11,1.11-4.39,1.9-6.72,2.41c-2.33,0.53-4.71,0.76-7.08,0.89c-2.38,0.04-4.73,0.02-7.12-0.28
				l-1.79-0.24l-1.76-0.4c-1.18-0.22-2.31-0.66-3.46-1.02c-2.22-0.9-4.42-1.89-6.39-3.25C482.03,369,478.57,365.6,476.16,361.57z"/>
		</g>
		<g>
			<path class="st4" d="M525.78,341.55c2.12-0.12,4.25,0.19,6.34,0.55c1.05,0.2,2.06,0.42,3.11,0.6c1.04,0.22,2.09,0.49,3.11,0.82
				c2.06,0.63,4.06,1.52,5.95,2.63c1.86,1.15,3.6,2.58,5.01,4.34c0.35,0.44,0.67,0.9,0.97,1.39l0.81,1.35
				c0.54,0.88,1.11,1.72,1.71,2.54c1.18,1.6,2.64,3.22,3.95,4.82c0.67,0.8,1.37,1.58,2.05,2.36c0.67,0.79,1.43,1.5,2.13,2.36
				c1.34,1.7,2.38,3.76,2.39,5.9c-0.48-2.06-1.71-3.8-3.16-5.21c-0.71-0.69-1.56-1.35-2.34-2.09c-0.79-0.72-1.54-1.47-2.28-2.22
				c-0.75-0.75-1.48-1.52-2.19-2.3c-0.7-0.77-1.44-1.55-2.13-2.42c-0.68-0.85-1.28-1.75-1.87-2.66l-0.84-1.34
				c-0.25-0.41-0.55-0.8-0.85-1.19c-2.44-3.1-6.06-5.22-9.85-6.73c-0.95-0.39-1.93-0.7-2.92-1.03c-1-0.29-2.02-0.62-3.01-0.93
				C529.87,342.47,527.86,341.89,525.78,341.55z"/>
		</g>
		<g>
			<path class="st4" d="M573.32,379.32c2.99,2.9,5.96,5.66,9.08,8.04c1.58,1.17,3.18,2.23,4.84,3.11l1.25,0.6
				c0.41,0.2,0.85,0.32,1.27,0.49c0.42,0.18,0.84,0.29,1.27,0.39c0.43,0.11,0.83,0.24,1.33,0.3c3.84,0.71,7.82,1.08,11.83,1.41
				c4.03,0.31,8.09,0.56,12.24,0.97c-3.97,1.34-8.09,2.01-12.25,2.34c-4.16,0.29-8.38,0.2-12.6-0.58c-0.51-0.07-1.09-0.25-1.65-0.4
				c-0.57-0.15-1.13-0.3-1.64-0.55c-0.52-0.23-1.07-0.43-1.56-0.69l-1.47-0.82c-1.88-1.18-3.56-2.58-5.06-4.11
				C577.26,386.73,574.88,383.21,573.32,379.32z"/>
		</g>
		<g>
			<path class="st4" d="M466.29,399.04c1.91,4.18,3.86,8.23,6.27,11.83c2.45,3.71,5.08,7.12,8.22,10.04
				c3.12,2.92,6.64,5.41,10.55,7.33c3.89,1.96,8.1,3.39,12.52,4.72c-4.59,0.42-9.31-0.15-13.8-1.66c-4.49-1.49-8.68-4.04-12.16-7.32
				c-3.51-3.25-6.21-7.31-8.21-11.47C467.65,408.22,466.51,403.65,466.29,399.04z"/>
		</g>
		<g>
			<path class="st4" d="M511.14,422.51c1.32,1.9,2.62,3.75,4.08,5.38c0.74,0.81,1.5,1.53,2.37,2.24c0.84,0.72,1.71,1.41,2.6,2.08
				c1.77,1.35,3.6,2.63,5.48,3.84c1.89,1.2,3.8,2.36,5.93,3.25c-2.34-0.03-4.62-0.84-6.72-1.81c-2.13-0.97-4.09-2.22-5.97-3.61
				c-1.81-1.45-3.62-2.96-4.99-4.99C512.6,426.93,511.67,424.77,511.14,422.51z"/>
		</g>
		<g>
			<path class="st4" d="M550.17,309.18c3.39-0.41,6.76-0.27,10.1,0.16c0.84,0.11,1.67,0.24,2.51,0.41c0.85,0.17,1.63,0.32,2.54,0.6
				c1.93,0.59,3.39,1.5,4.87,2.43c2.89,1.9,5.43,4.11,7.78,6.49c2.34,2.4,4.51,4.96,6.3,7.88c-2.99-1.64-5.73-3.48-8.43-5.34
				c-2.69-1.86-5.33-3.76-7.95-5.5c-1.29-0.85-2.65-1.7-3.85-2.19c-1.38-0.55-2.99-1.05-4.5-1.57
				C556.45,311.52,553.31,310.49,550.17,309.18z"/>
		</g>
		<g>
			<path class="st4" d="M572.93,309.5c2.98-1.89,6.03-3.44,9.07-4.96c3.03-1.51,6.11-2.93,8.99-4.45c0.74-0.36,1.41-0.77,2.09-1.16
				l2.12-1.38c1.63-0.97,3.33-1.67,5.06-2.18c3.45-1,6.98-1.41,10.5-1.07c-3.23,1.39-6.37,2.66-9.28,4.15
				c-1.45,0.75-2.85,1.53-4.08,2.43c-0.3,0.25-0.57,0.44-0.92,0.7l-1.16,0.85c-0.78,0.48-1.57,0.97-2.36,1.38
				c-3.17,1.67-6.44,2.84-9.77,3.81C579.85,308.56,576.45,309.27,572.93,309.5z"/>
		</g>
		<g>
			<path class="st4" d="M497,163.79c2.79-0.2,5.46-0.06,8.11,0.16c2.64,0.23,5.25,0.56,7.83,0.96c2.59,0.41,5.14,0.85,7.7,1.33
				c2.58,0.48,5.07,1,7.83,1.27c-0.59,0.34-1.24,0.67-1.9,0.92c-0.66,0.22-1.34,0.43-2.02,0.59c-0.68,0.13-1.37,0.25-2.06,0.35
				c-0.69,0.08-1.37,0.13-2.06,0.17c-2.74,0.12-5.47-0.05-8.14-0.48c-2.67-0.42-5.29-1.05-7.86-1.89
				C501.88,166.32,499.37,165.29,497,163.79z"/>
		</g>
		<g>
			<path class="st4" d="M480.26,242.42c1.15-4.49,3.35-8.65,6.01-12.47c2.71-3.79,5.98-7.25,9.81-10.04
				c3.8-2.81,8.15-4.94,12.73-6.13c4.57-1.2,9.36-1.39,13.88-0.53c-4.52,0.9-8.82,1.98-12.84,3.68c-4.03,1.66-7.79,3.81-11.28,6.38
				c-3.5,2.54-6.71,5.52-9.74,8.73C485.81,235.26,482.98,238.71,480.26,242.42z"/>
		</g>
		<g>
			<path class="st4" d="M500.75,242.42c1.14-3.65,2.99-7.07,5.21-10.25c2.27-3.14,5.04-6.03,8.38-8.25
				c3.31-2.27,7.25-3.72,11.31-4.22c2.03-0.22,4.09-0.25,6.11,0.01c1.02,0.07,2,0.33,3,0.49l1.51,0.41l0.76,0.21l0.74,0.29
				c1.99,0.72,3.87,1.91,5.46,3.39c1.57,1.5,2.86,3.32,3.67,5.27c1.65,3.92,2.03,8.04,1.76,11.96c-0.24,3.94-1.07,7.75-2.18,11.43
				c-1.16,3.66-2.55,7.24-4.39,10.59c0.96-3.68,1.8-7.36,2.38-11.06c0.31-1.84,0.56-3.69,0.7-5.53c0.13-1.84,0.27-3.68,0.21-5.49
				c-0.06-1.81-0.21-3.61-0.52-5.34c-0.33-1.72-0.84-3.38-1.58-4.88c-0.71-1.51-1.69-2.83-2.89-3.9c-1.19-1.07-2.56-1.96-4.14-2.51
				l-0.57-0.24l-0.61-0.17l-1.22-0.35c-0.87-0.14-1.72-0.38-2.59-0.45c-1.73-0.28-3.48-0.26-5.22-0.17
				c-3.48,0.22-6.86,1.35-9.99,3.05c-3.11,1.75-5.97,4.07-8.5,6.77C505,236.16,502.73,239.17,500.75,242.42z"/>
		</g>
		<g>
			<path class="st4" d="M471,247.31c-0.49-1.79-1.08-3.49-1.95-4.92c-0.45-0.71-0.94-1.34-1.53-1.85c-0.57-0.51-1.29-0.93-2.03-1.29
				c-1.48-0.72-3.14-1.2-4.81-1.38c-1.68-0.17-3.39-0.01-5.02,0.92c1.03-1.61,3.1-2.46,5.03-2.56c0.98-0.1,1.97,0,2.93,0.19
				c0.96,0.19,1.9,0.51,2.79,0.94c0.89,0.44,1.75,0.98,2.48,1.75c0.73,0.76,1.27,1.65,1.62,2.57
				C471.24,243.51,471.38,245.47,471,247.31z"/>
		</g>
		<g>
			<path class="st4" d="M428.13,219.57c1.36,0.03,2.77,0.02,4.16-0.03c1.4-0.05,2.79-0.14,4.19-0.27c-1.32,0.48-2.67,0.92-4.02,1.31
				c-1.36,0.4-2.72,0.77-4.13,1.09c-0.57,0.13-1.14-0.23-1.27-0.8c-0.13-0.57,0.23-1.14,0.8-1.27c0.09-0.02,0.17-0.03,0.26-0.03
				L428.13,219.57z"/>
		</g>
	</g>
	<path class="st11" d="M501.98,455.15c-2.24,4.16-9.46,8.35-14.19,5.8c-4.73-2.55-5.19-10.88-2.94-15.04
		c2.24-4.16,7.9-5.46,12.63-2.91C502.21,445.55,504.22,450.99,501.98,455.15z"/>
	<g>
		<path class="st4" d="M502.05,455.19c-1.3,2.26-3.22,4.15-5.5,5.56c-1.14,0.7-2.4,1.26-3.75,1.52c-1.35,0.27-2.81,0.23-4.16-0.25
			c-1.35-0.49-2.48-1.45-3.25-2.57c-0.78-1.13-1.25-2.4-1.57-3.67c-0.63-2.56-0.74-5.23-0.2-7.85c0.28-1.3,0.77-2.64,1.66-3.73
			c0.86-1.11,2.04-1.97,3.33-2.51c2.59-1.1,5.6-1.04,8.16,0.06c2.55,1.08,4.74,3.13,5.71,5.72
			C503.47,450.01,503.29,452.89,502.05,455.19z M501.91,455.11c0.59-1.14,0.87-2.43,0.76-3.69c-0.1-1.26-0.51-2.46-1.13-3.52
			c-1.28-2.1-3.19-3.72-5.41-4.61c-2.2-0.9-4.73-1.07-6.96-0.24c-1.1,0.42-2.13,1.06-2.93,1.94c-0.8,0.88-1.39,1.95-1.78,3.14
			c-0.77,2.37-0.87,5.06-0.14,7.49c0.7,2.42,2.46,4.57,4.73,5.13c2.26,0.62,4.75,0.04,7.06-0.89
			C498.38,458.89,500.66,457.38,501.91,455.11z"/>
	</g>
	<path class="st11" d="M567.69,449.02c1.76,4.39,0.37,12.61-4.62,14.61s-11.68-2.97-13.44-7.36c-1.76-4.39,0.86-9.56,5.84-11.57
		S565.93,444.64,567.69,449.02z"/>
	<g>
		<path class="st4" d="M567.76,448.99c0.9,2.45,1.13,5.13,0.76,7.78c-0.19,1.32-0.57,2.65-1.24,3.86c-0.65,1.21-1.62,2.31-2.85,3.03
			c-1.24,0.72-2.7,0.98-4.06,0.85c-1.37-0.13-2.64-0.58-3.83-1.14c-2.37-1.15-4.49-2.77-6.16-4.87c-0.82-1.05-1.53-2.28-1.81-3.66
			c-0.3-1.37-0.21-2.82,0.2-4.16c0.81-2.7,2.79-4.97,5.26-6.24c2.46-1.26,5.44-1.64,8.04-0.73
			C564.7,444.58,566.79,446.57,567.76,448.99z M567.62,449.05c-0.49-1.18-1.31-2.22-2.35-2.94c-1.03-0.72-2.22-1.19-3.43-1.39
			c-2.43-0.36-4.9,0.07-7,1.21c-2.1,1.12-3.85,2.95-4.63,5.2c-0.38,1.12-0.55,2.32-0.38,3.49c0.17,1.17,0.61,2.32,1.28,3.38
			c1.33,2.11,3.33,3.9,5.66,4.9c2.31,1.02,5.09,1.04,6.97-0.36c1.92-1.34,3.07-3.63,3.83-5.99
			C568.26,454.18,568.56,451.47,567.62,449.05z"/>
	</g>
	<path class="st11" d="M605.55,409.22c3.17,2.19,5.46,9.08,2.4,13.5c-3.06,4.42-10.31,4.7-13.48,2.5c-3.17-2.19-3.26-7.56-0.2-11.98
		C597.33,408.83,602.38,407.02,605.55,409.22z"/>
	<g>
		<g>
			<path class="st4" d="M605.59,409.15c0.98,0.69,1.73,1.63,2.4,2.61c0.67,0.99,1.19,2.1,1.57,3.26c0.75,2.31,0.69,5.04-0.6,7.27
				c-0.64,1.11-1.59,2-2.63,2.66c-1.05,0.66-2.19,1.09-3.35,1.39c-1.16,0.31-2.35,0.47-3.55,0.48c-1.2,0-2.41-0.08-3.6-0.44
				c-1.18-0.32-2.39-1.01-3.16-2.08c-0.8-1.04-1.24-2.31-1.36-3.58c-0.26-2.55,0.46-5.08,1.76-7.2c1.31-2.1,3.2-3.91,5.53-4.8
				c1.15-0.44,2.38-0.72,3.59-0.66C603.42,408.13,604.61,408.47,605.59,409.15z M605.5,409.28c-0.97-0.64-2.15-0.9-3.28-0.77
				c-1.13,0.13-2.2,0.56-3.15,1.15c-1.87,1.21-3.44,2.84-4.55,4.74c-1.1,1.88-1.84,4.05-1.72,6.2c0.09,2.14,1.21,4.16,3.33,4.97
				c2.06,0.86,4.52,0.96,6.71,0.28c2.19-0.68,4.08-2.22,4.96-4.18c0.92-1.95,1.07-4.19,0.79-6.43c-0.16-1.12-0.48-2.23-0.96-3.28
				C607.15,410.92,606.44,409.96,605.5,409.28z"/>
		</g>
	</g>
	<g>
		<path class="st4" d="M221.77,495.3c0.09,0.33,0.34,0.9,0.55,1.35c0.23,0.48,0.46,0.97,0.73,1.45c0.51,0.97,1.1,1.91,1.7,2.85
			c1.22,1.87,2.61,3.66,4.08,5.39c1.46,1.74,3.06,3.37,4.7,4.98c0.82,0.8,1.68,1.56,2.53,2.35l2.63,2.25l-2.95-1.83
			c-0.96-0.65-1.93-1.28-2.88-1.96c-1.88-1.36-3.76-2.76-5.52-4.31c-1.77-1.54-3.49-3.16-5.09-4.94c-0.79-0.9-1.57-1.81-2.3-2.79
			c-0.37-0.48-0.72-0.99-1.07-1.5c-0.35-0.55-0.66-1-1.02-1.73l-0.03-0.07c-0.52-1.05-0.08-2.32,0.97-2.84
			c1.05-0.52,2.32-0.08,2.84,0.97C221.69,495.05,221.74,495.18,221.77,495.3z"/>
	</g>
	<g>
		<path class="st4" d="M241.33,496.84c1.53,0.99,2.98,1.99,4.44,3.02c1.45,1.03,2.88,2.08,4.3,3.14c2.83,2.13,5.59,4.36,8.23,6.7
			c-3.05-1.77-6.16-3.39-9.32-4.9c-1.58-0.76-3.17-1.49-4.77-2.2c-1.59-0.7-3.22-1.39-4.8-2.02l-0.01,0
			c-1.09-0.43-1.62-1.66-1.19-2.75c0.43-1.09,1.66-1.62,2.75-1.19C241.09,496.7,241.22,496.77,241.33,496.84z"/>
	</g>
	<g>
		<path class="st4" d="M408.1,510.25c-1-6.17-1.1-12.47-0.67-18.72c0.21-3.13,0.61-6.25,1.15-9.34c0.56-3.09,1.3-6.16,2.19-9.18
			c1.85-6.02,4.43-11.86,7.97-17.09c1.72-2.65,3.79-5.05,5.96-7.32c2.2-2.25,4.66-4.21,7.24-5.96c-2.29,2.12-4.53,4.26-6.47,6.66
			c-1.95,2.38-3.79,4.86-5.34,7.51c-3.17,5.26-5.57,10.94-7.34,16.82c-1.79,5.88-2.97,11.94-3.72,18.07
			C408.33,497.83,407.97,504.02,408.1,510.25z"/>
	</g>
	<path class="st8" d="M443.38,575.17c-2.12-4.66-4.63-9.11-7.6-13.29c-7.8-10.98-23.12-37.71-15.94-70.58
		c9.46-43.32,27.24-47.76,44.27-31.84c17.03,15.92,15.55,28.78,70.23,19.27c54.68-9.5,66.85-13.29,75.05,23.94
		c8.2,37.24-14.07,105.13-13.65,142.75c0.43,37.63,1.27,61.49-24.58,62.27C546.27,708.46,474.69,644.16,443.38,575.17z"/>
	<g>
		<path class="st4" d="M443.18,575.26c-1.6-3.51-3.44-6.9-5.52-10.15c-1.04-1.63-2.17-3.18-3.27-4.78c-1.09-1.6-2.14-3.23-3.14-4.89
			c-4.04-6.62-7.3-13.71-9.77-21.08c-2.42-7.39-3.95-15.1-4.35-22.91c-0.04-0.98-0.15-1.95-0.13-2.93l0.04-2.93
			c0.03-0.98-0.02-1.96,0.08-2.93l0.25-2.93c0.1-0.97,0.14-1.96,0.28-2.93l0.47-2.9l0.47-2.91l0.61-2.86
			c1.69-7.6,3.79-15.19,7.28-22.34c1.74-3.57,3.84-7.03,6.65-10.06c1.43-1.48,2.98-2.9,4.82-3.99c1.82-1.1,3.86-1.93,6-2.31
			c4.31-0.79,8.74,0.24,12.38,2.14c3.69,1.87,6.9,4.43,9.73,7.2c2.88,2.72,5.46,5.68,8.03,8.54c2.55,2.87,5.12,5.59,8.13,7.63
			c3,2.02,6.35,3.51,9.98,4.31l0.67,0.18l0.69,0.11l1.38,0.22c0.93,0.13,1.84,0.32,2.78,0.41c1.89,0.1,3.76,0.3,5.66,0.32
			c7.6,0.19,15.27-0.72,22.9-1.66c7.62-1.05,15.25-2.35,22.89-3.55c7.64-1.22,15.28-2.47,23.02-3.18c3.87-0.35,7.77-0.56,11.68-0.3
			c3.9,0.24,7.87,1.06,11.4,2.97c1.75,0.97,3.32,2.24,4.71,3.67c1.37,1.46,2.51,3.09,3.51,4.79c1.97,3.43,3.3,7.14,4.44,10.86
			c0.57,1.86,1.06,3.75,1.53,5.63l0.67,2.84l0.56,2.88c0.67,3.85,1.12,7.73,1.29,11.62c0.39,7.78,0.02,15.57-0.62,23.3
			c-1.35,15.47-3.79,30.79-6.39,46.03c-1.28,7.62-2.59,15.24-3.75,22.86c-1.15,7.62-2.27,15.24-2.9,22.86
			c-0.34,3.81-0.55,7.62-0.56,11.41c-0.01,3.79,0.11,7.7,0.14,11.56c0.08,7.75,0.15,15.52-0.46,23.38
			c-0.32,3.92-0.82,7.88-1.83,11.81c-0.51,1.96-1.13,3.92-1.99,5.83c-0.85,1.9-1.87,3.78-3.23,5.46c-1.34,1.69-2.95,3.19-4.76,4.4
			c-1.81,1.21-3.81,2.06-5.83,2.69c-2.03,0.66-4.09,0.93-6.14,1.17l-1.53,0.09c-0.51,0.03-1.01,0.07-1.58,0.03
			c-1.09-0.06-2.21-0.07-3.23-0.31c-4.17-0.73-7.94-2.24-11.53-3.95c-3.56-1.78-7.02-3.69-10.31-5.85c-6.62-4.23-12.85-8.97-18.8-14
			c-5.97-5.02-11.66-10.33-17.13-15.85c-5.49-5.5-10.73-11.24-15.81-17.11c-5.09-5.86-9.91-11.94-14.6-18.11
			c-4.69-6.17-9.17-12.5-13.39-18.99C457.29,602.83,449.6,589.35,443.18,575.26z M443.57,575.09c3.25,7.01,6.82,13.86,10.68,20.55
			c3.87,6.68,8.06,13.17,12.51,19.48c4.42,6.32,9.09,12.47,13.95,18.45c4.86,5.98,9.89,11.83,15.14,17.46
			c10.5,11.27,21.61,21.95,33.46,31.68c5.95,4.83,12.08,9.43,18.52,13.48c3.2,2.07,6.53,3.86,9.89,5.52
			c3.38,1.59,6.89,2.92,10.34,3.49c0.87,0.21,1.7,0.17,2.54,0.23c0.4,0.04,0.86,0.01,1.32-0.02l1.36-0.08
			c1.78-0.21,3.58-0.45,5.23-0.99c1.66-0.52,3.26-1.19,4.66-2.13c1.4-0.94,2.65-2.1,3.72-3.43c1.08-1.32,1.93-2.87,2.66-4.49
			c0.74-1.62,1.29-3.35,1.75-5.13c0.91-3.56,1.46-7.29,1.79-11.06c0.66-7.56,0.67-15.26,0.66-22.97c0-3.87-0.08-7.68-0.04-11.63
			c0.05-3.94,0.3-7.85,0.68-11.74c1.51-15.54,4.53-30.75,7.31-45.95c2.78-15.2,5.7-30.36,7.38-45.67c0.8-7.65,1.32-15.34,1.1-23.01
			c-0.09-3.83-0.44-7.65-1.03-11.43l-0.52-2.82l-0.64-2.81c-0.45-1.87-0.91-3.73-1.46-5.57c-1.09-3.67-2.37-7.29-4.23-10.59
			c-0.95-1.63-2.01-3.19-3.29-4.56c-1.29-1.35-2.74-2.54-4.37-3.46c-1.64-0.88-3.39-1.58-5.23-2.02c-1.84-0.42-3.72-0.7-5.62-0.79
			c-3.8-0.23-7.64-0.01-11.47,0.36c-15.32,1.66-30.39,5.19-45.7,7.7c-7.67,1.16-15.39,2.27-23.26,2.29
			c-1.96,0.02-3.94-0.13-5.92-0.19c-0.99-0.06-1.98-0.24-2.97-0.35l-1.49-0.2l-0.74-0.1l-0.74-0.18l-2.95-0.72
			c-0.5-0.1-0.97-0.3-1.45-0.47l-1.43-0.54c-0.48-0.19-0.96-0.35-1.43-0.56l-1.36-0.72c-0.9-0.49-1.83-0.94-2.64-1.57
			c-3.43-2.27-6.25-5.2-8.86-8.06c-2.65-2.84-5.16-5.71-7.91-8.29c-2.69-2.62-5.62-4.91-8.84-6.53c-3.19-1.64-6.7-2.46-10.03-1.88
			c-3.34,0.55-6.4,2.52-8.87,5.14c-1.28,1.27-2.37,2.76-3.44,4.26c-1.01,1.55-1.98,3.15-2.83,4.83c-3.42,6.7-5.8,14.02-7.7,21.44
			l-0.7,2.79l-0.55,2.8l-0.55,2.8c-0.18,0.94-0.24,1.89-0.37,2.83l-0.34,2.84c-0.13,0.95-0.11,1.9-0.17,2.85l-0.13,2.86
			c-0.05,0.95,0.03,1.91,0.03,2.86c0.14,7.64,1.38,15.27,3.54,22.64c0.55,1.84,1.17,3.66,1.8,5.48c0.71,1.79,1.36,3.6,2.18,5.34
			c1.52,3.54,3.31,6.96,5.24,10.29c0.96,1.67,2,3.3,3.07,4.9c1.08,1.59,2.22,3.17,3.25,4.81
			C440.15,568.13,441.98,571.56,443.57,575.09z"/>
	</g>
	<path class="st3" d="M691.23,506.93c0,0-23.69,2.35-60.55-2.76c-36.85-5.12-53.18-8.05-85.43,29.22c0,0-73.84,25.1-42.36,63.98
		c0,0-8.05,26.08,6.73,32.48c14.79,6.4,28.37-8.69,38.33-16.54c9.96-7.85,26.56-8.45,26.56-8.45s0,14.49-2.72,23.24
		c-2.72,8.75,1.27,22.94,19.95,18.71c18.68-4.23,32.46-36.8,32.04-59.36c0,0,22.56-3.34,22.97-38.43"/>
	<g>
		<path class="st4" d="M688.48,504.47c-3.15,0.86-6.33,1.47-9.54,1.94c-3.21,0.5-6.44,0.83-9.67,1.09
			c-6.47,0.5-12.98,0.6-19.47,0.41c-6.5-0.19-12.97-0.77-19.43-1.47c-6.4-0.75-12.77-1.59-19.1-2.11
			c-6.32-0.49-12.6-0.71-18.66,0.17c-6.06,0.86-11.83,2.87-17.19,5.85c-5.31,3.04-10.41,6.69-15.03,11l-1.79,1.55
			c-0.58,0.53-1.14,1.1-1.71,1.64l-3.42,3.31c-2.23,2.26-4.41,4.6-6.62,6.9l-0.11,0.12c-0.23,0.24-0.51,0.4-0.8,0.5
			c-3.52,1.13-7.11,2.5-10.59,3.96c-3.5,1.47-6.94,3.08-10.29,4.85c-3.36,1.77-6.63,3.69-9.74,5.85c-3.11,2.15-6.11,4.48-8.8,7.11
			c-2.68,2.64-5.1,5.55-6.98,8.77c-1.86,3.22-3.07,6.8-3.36,10.47c-0.31,3.66,0.39,7.37,1.83,10.77c1.39,3.43,3.51,6.55,5.9,9.41
			c0.27,0.32,0.35,0.73,0.25,1.1l-0.02,0.09c-1.09,4.21-1.75,8.68-1.8,13.02c-0.03,2.18,0.12,4.34,0.51,6.42
			c0.39,2.08,1.04,4.07,2.05,5.78c0.48,0.87,1.1,1.63,1.74,2.34c0.69,0.66,1.4,1.29,2.24,1.75c1.6,0.94,3.62,1.61,5.56,1.85
			c3.92,0.53,7.94-0.51,11.65-2.43c3.73-1.92,7.22-4.53,10.61-7.37c1.7-1.41,3.37-2.9,5.08-4.38l2.6-2.24
			c0.89-0.75,1.75-1.48,2.81-2.22c2.01-1.51,4.19-2.67,6.4-3.68c2.21-1.03,4.49-1.77,6.77-2.46c2.29-0.67,4.6-1.17,6.93-1.59
			c1.16-0.21,2.33-0.38,3.51-0.53c1.19-0.15,2.31-0.27,3.62-0.34c1.72-0.1,3.2,1.22,3.3,2.94c0,0.06,0.01,0.12,0.01,0.18l0,0.06
			c-0.02,5.6-0.29,11.03-1.06,16.63c-0.2,1.4-0.44,2.79-0.75,4.2c-0.17,0.71-0.3,1.41-0.52,2.12l-0.3,1.07
			c-0.11,0.37-0.14,0.55-0.21,0.84c-0.53,2.08-0.59,4.38-0.14,6.48c0.43,2.1,1.39,3.97,2.8,5.28c1.41,1.3,3.21,2.24,5.39,2.54
			c0.52,0.13,1.11,0.1,1.66,0.16l0.84,0.07l0.88-0.05l1.76-0.09l1.79-0.3c0.59-0.1,1.22-0.17,1.74-0.34
			c0.55-0.13,1.09-0.28,1.62-0.5c0.27-0.1,0.54-0.19,0.81-0.3l0.79-0.37c0.53-0.22,1.04-0.52,1.56-0.81
			c4.1-2.38,7.68-6.06,10.7-10.16c3.04-4.11,5.53-8.71,7.63-13.49c2.12-4.77,3.78-9.77,5.01-14.87c1.18-5.1,2.01-10.31,2.06-15.5
			l0-0.14c0.01-1,0.77-1.83,1.75-1.93c0.12-0.01,0.36-0.07,0.57-0.11c0.21-0.03,0.43-0.1,0.64-0.16c0.44-0.1,0.87-0.25,1.3-0.4
			c0.44-0.13,0.87-0.31,1.29-0.49c0.42-0.19,0.86-0.34,1.27-0.57l1.25-0.64c0.41-0.22,0.8-0.49,1.2-0.74
			c0.82-0.47,1.55-1.06,2.3-1.65c2.97-2.36,5.35-5.44,7.26-8.81c0.45-0.86,0.92-1.72,1.36-2.59l1.09-2.73
			c0.17-0.46,0.38-0.91,0.53-1.38l0.4-1.42l0.81-2.86c0.41-1.94,0.73-3.91,1.09-5.87l0.6-5.98l0-0.03c0.02-0.17,0.17-0.3,0.35-0.28
			c0.16,0.02,0.28,0.16,0.28,0.32l-0.03,6.09c-0.17,2.02-0.37,4.06-0.63,6.09l-0.61,3.02l-0.31,1.51c-0.12,0.5-0.3,0.99-0.44,1.48
			l-0.92,2.97c-0.39,0.96-0.82,1.91-1.23,2.87c-1.75,3.79-4.21,7.33-7.37,10.22c-0.8,0.71-1.6,1.43-2.49,2.03
			c-0.44,0.31-0.86,0.64-1.32,0.93l-1.39,0.83c-0.46,0.29-0.96,0.5-1.45,0.74c-0.49,0.24-0.98,0.47-1.5,0.66
			c-0.51,0.21-1.02,0.4-1.56,0.56c-0.27,0.08-0.52,0.17-0.81,0.24c-0.29,0.07-0.54,0.15-0.91,0.21l1.75-2.07
			c0.39,11.21-2.03,22.22-6.04,32.58c-2.06,5.17-4.6,10.19-7.84,14.86c-3.23,4.64-7.15,9.07-12.37,12.19
			c-0.66,0.38-1.31,0.77-2.01,1.09l-1.04,0.5c-0.35,0.15-0.72,0.28-1.08,0.42c-0.72,0.3-1.47,0.52-2.23,0.73
			c-0.77,0.24-1.48,0.34-2.22,0.48l-2.19,0.39l-2.28,0.16l-1.14,0.07l-1.18-0.06c-0.79-0.07-1.57-0.04-2.37-0.21
			c-3.17-0.41-6.51-1.84-9.01-4.25c-0.63-0.59-1.15-1.28-1.71-1.94c-0.49-0.7-0.92-1.43-1.36-2.16c-0.34-0.76-0.7-1.52-0.99-2.3
			c-0.22-0.79-0.5-1.57-0.66-2.37c-0.66-3.19-0.57-6.42,0.23-9.56l0.29-1.12l0.25-0.88c0.18-0.57,0.3-1.2,0.44-1.8
			c0.27-1.23,0.49-2.49,0.71-3.76c0.81-5.08,1.18-10.44,1.3-15.63l3.3,3.18c-2,0.08-4.24,0.33-6.34,0.66
			c-2.13,0.34-4.25,0.75-6.31,1.32c-4.1,1.12-8.11,2.67-11.39,5c-0.81,0.53-1.69,1.25-2.54,1.93l-2.58,2.13
			c-1.73,1.45-3.49,2.9-5.3,4.33c-3.63,2.85-7.46,5.64-11.88,7.67c-2.2,1.03-4.56,1.82-7.03,2.28c-2.47,0.47-5.07,0.47-7.57,0.01
			c-0.63-0.1-1.24-0.29-1.86-0.43c-0.6-0.2-1.21-0.37-1.79-0.61c-1.14-0.46-2.35-1.01-3.43-1.76c-1.11-0.7-2.07-1.62-2.95-2.58
			c-0.83-1-1.58-2.06-2.14-3.2c-1.17-2.26-1.8-4.67-2.12-7.05c-0.33-2.38-0.38-4.75-0.25-7.09c0.28-4.69,1.14-9.2,2.52-13.68
			l0.23,1.19c-1.18-1.58-2.33-3.18-3.32-4.89c-1.02-1.69-1.92-3.47-2.62-5.33c-1.45-3.7-2.11-7.76-1.76-11.74
			c0.34-3.99,1.72-7.83,3.68-11.25c1.95-3.44,4.45-6.5,7.2-9.27c5.51-5.55,11.93-10.03,18.58-14.02c6.71-3.94,13.6-7.41,20.94-10.28
			l-0.91,0.61c2.12-2.47,4.17-5,6.36-7.41l3.36-3.58c0.56-0.59,1.11-1.2,1.69-1.78l1.78-1.7c1.21-1.12,2.39-2.27,3.62-3.36
			l3.85-3.15l0.96-0.79c0.33-0.25,0.68-0.48,1.02-0.72l2.07-1.43l2.08-1.41l2.21-1.23c1.48-0.82,2.93-1.68,4.52-2.3l2.34-1.01
			c0.77-0.37,1.58-0.62,2.4-0.87c3.23-1.09,6.58-1.81,9.92-2.25c6.72-0.85,13.41-0.6,19.9,0.14c6.49,0.75,12.88,1.72,19.24,2.74
			c6.31,1,12.65,1.76,19.02,2.35c6.37,0.55,12.76,0.84,19.16,0.86c6.39-0.05,12.83-0.27,19.16-1.23l0.02,0
			c0.17-0.03,0.33,0.09,0.36,0.26C688.73,504.28,688.63,504.43,688.48,504.47z"/>
	</g>
	<g>
		<path class="st4" d="M502.9,597.37c0.38-3.9,1.51-7.65,2.98-11.26c1.5-3.6,3.41-7.05,5.75-10.22c2.34-3.17,5.15-6.05,8.4-8.36
			c1.64-1.13,3.39-2.12,5.22-2.88c1.86-0.71,3.76-1.27,5.71-1.45c-1.65,1.07-3.22,2.09-4.68,3.24c-1.45,1.16-2.83,2.37-4.14,3.65
			c-2.6,2.57-4.94,5.36-7.13,8.31c-2.18,2.95-4.22,6.04-6.2,9.21C506.83,590.8,504.92,594.04,502.9,597.37z"/>
	</g>
	<g>
		<path class="st4" d="M567.8,589.44c2.21,0.9,3.99,2.51,5.45,4.37c1.45,1.87,2.49,4.12,2.98,6.53c0.12,0.6,0.22,1.21,0.25,1.82
			l0.05,0.92c-0.01,0.31-0.01,0.62-0.04,0.92l-0.06,0.92c-0.03,0.28-0.07,0.55-0.11,0.82c-0.08,0.55-0.17,1.09-0.27,1.64
			c-0.42,2.18-0.97,4.35-1.94,6.51c-0.78-2.23-1.14-4.45-1.37-6.65c-0.05-0.55-0.1-1.1-0.13-1.65l-0.04-0.82l-0.07-0.73
			c-0.03-0.24-0.03-0.48-0.05-0.72l-0.11-0.72l-0.09-0.72l-0.15-0.71c-0.38-1.9-0.96-3.79-1.71-5.71
			C569.64,593.52,568.77,591.57,567.8,589.44z"/>
	</g>
	<g>
		<path class="st4" d="M617.42,554.68c1.58,1.99,2.68,4.29,3.69,6.61c0.97,2.34,1.75,4.75,2.36,7.21c0.62,2.45,1.06,4.94,1.38,7.45
			c0.33,2.5,0.48,5.02,0.55,7.54l-0.04-0.32c0.36,2.3,0.43,4.39,0.4,6.57c-0.05,2.16-0.24,4.31-0.62,6.43
			c-0.36,2.12-0.87,4.21-1.59,6.23c-0.68,2.02-1.58,3.97-2.64,5.81c0.27-2.11,0.61-4.15,0.77-6.21c0.2-2.05,0.3-4.09,0.34-6.12
			c0.04-2.03,0-4.05-0.13-6.06c-0.12-1.98-0.32-4.06-0.64-5.87c-0.02-0.1-0.03-0.19-0.03-0.29l0-0.03l-0.19-3.63l-0.25-3.62
			c-0.2-2.41-0.42-4.82-0.72-7.23c-0.31-2.4-0.64-4.81-1.07-7.22C618.59,559.5,618.08,557.1,617.42,554.68z"/>
	</g>
	<g>
		<path class="st4" d="M416.11,789.85c-6.73,1.05-13.24,2.34-19.43,4.25c-6.16,1.91-12.02,4.52-16.67,8.36
			c-2.33,1.91-4.34,4.13-5.86,6.69c-1.55,2.54-2.64,5.38-3.42,8.39c-1.38,6.08-1.31,12.72-0.82,19.53
			c-3.02-6.12-4.65-13.08-4.08-20.32c0.38-3.6,1.38-7.22,3.1-10.55c0.46-0.81,0.92-1.63,1.43-2.42l1.67-2.26
			c0.61-0.7,1.26-1.37,1.9-2.06c0.65-0.67,1.37-1.25,2.06-1.87c5.75-4.72,12.73-7.18,19.58-8.32c3.45-0.55,6.92-0.78,10.36-0.7
			c1.72,0.04,3.44,0.15,5.14,0.37C412.75,789.14,414.45,789.41,416.11,789.85z"/>
	</g>
	<g>
		<path class="st4" d="M405.83,859.88c-3.34-1.46-6.25-3.82-8.76-6.58c-2.5-2.79-4.47-6.14-5.72-9.8c-0.27-0.92-0.66-1.83-0.8-2.79
			c-0.19-0.95-0.37-1.91-0.53-2.87c-0.14-1.93-0.33-3.89-0.13-5.81c0.03-1.96,0.47-3.83,0.82-5.72c0.13-0.94,0.52-1.92,0.79-2.87
			c0.36-0.94,0.71-1.9,1.17-2.8c0.89-1.83,2.08-3.5,3.37-5.06c1.37-1.49,2.85-2.86,4.47-4c3.25-2.27,6.84-3.8,10.48-4.75
			c3.64-0.96,7.34-1.4,11-1.44c3.66,0.01,7.3,0.26,10.82,1.15c-7.12,1.01-14.01,2.46-20.24,5.01c-6.2,2.52-11.59,6.41-14.22,11.91
			c-0.36,0.67-0.62,1.39-0.92,2.1c-0.21,0.75-0.51,1.43-0.66,2.25l-0.55,2.38c-0.24,0.79-0.23,1.6-0.36,2.4
			c-0.3,1.61-0.21,3.2-0.29,4.83c0.15,1.6,0.21,3.22,0.58,4.81c0.62,3.19,1.8,6.33,3.45,9.3C401.2,854.5,403.32,857.3,405.83,859.88
			z"/>
	</g>
	<g>
		<path class="st4" d="M727.28,844.05c6.01-3.08,12.51-5.19,19.2-6.62c6.7-1.31,13.72-1.88,20.74-0.66c7,1.09,14,4.47,19.08,9.91
			c2.52,2.72,4.52,5.86,6.04,9.16c1.46,3.33,2.58,6.72,3.18,10.35c0.62,3.6,0.66,7.41-0.09,11.13c-0.77,3.71-2.34,7.27-4.55,10.27
			c-2.19,3.02-4.9,5.54-7.8,7.64c-2.89,2.11-6.02,3.78-9.21,5.17c-6.38,2.82-13.07,4.5-19.76,5.66c-6.71,1.07-13.48,1.65-20.22,1.45
			c6.63-1.18,13.17-2.57,19.55-4.43c6.37-1.82,12.59-4.1,18.32-7.07c5.65-3.03,10.96-6.79,14.25-11.81c1.63-2.49,2.81-5.2,3.33-8.08
			c0.51-2.88,0.51-5.88-0.04-8.88c-0.5-2.99-1.45-6.03-2.67-8.84c-0.63-1.4-1.32-2.76-2.12-4.05c-0.81-1.28-1.71-2.49-2.69-3.63
			c-1.95-2.29-4.32-4.2-6.97-5.71c-1.32-0.76-2.72-1.4-4.17-1.94c-1.44-0.56-2.94-1.04-4.47-1.42c-3.06-0.77-6.26-1.15-9.49-1.31
			c-3.24-0.18-6.52-0.08-9.8,0.21C740.35,841.06,733.78,842.32,727.28,844.05z"/>
	</g>
	<g>
		<path class="st4" d="M775.19,829.89c4.12-0.13,8.21,0.29,12.29,0.84c4.07,0.59,8.12,1.48,12.1,2.64
			c7.93,2.37,15.8,5.81,22.46,11.51c1.64,1.44,3.2,3.01,4.59,4.76c1.37,1.76,2.61,3.67,3.56,5.73c1.94,4.12,2.69,8.8,2.22,13.21
			c-0.2,2.21-0.72,4.35-1.41,6.39c-0.67,2.05-1.57,3.99-2.58,5.83c-2.07,3.66-4.54,7-7.44,9.92c1.75-3.72,3.43-7.38,4.59-11.15
			c0.59-1.87,1.09-3.75,1.4-5.64c0.32-1.88,0.51-3.75,0.47-5.59c-0.07-3.68-0.94-7.19-2.63-10.32c-1.67-3.14-4.09-5.94-6.92-8.37
			c-5.68-4.89-12.72-8.51-19.98-11.62C790.61,834.94,783,832.36,775.19,829.89z"/>
	</g>
	<g>
		<path class="st4" d="M701.06,819.87c3.57-1.98,7.22-3.61,10.89-5.16c3.67-1.54,7.37-2.96,11.1-4.31c3.72-1.36,7.45-2.65,11.2-3.9
			c3.75-1.28,7.47-2.46,11.23-4c-0.7,0.72-1.43,1.47-2.23,2.11c-0.8,0.62-1.62,1.26-2.46,1.83c-0.85,0.55-1.71,1.11-2.58,1.63
			c-0.88,0.5-1.76,0.99-2.66,1.47c-3.59,1.86-7.29,3.45-11.06,4.82c-3.77,1.36-7.61,2.53-11.5,3.49
			C709.08,818.78,705.13,819.56,701.06,819.87z"/>
	</g>
	<g>
		<path class="st4" d="M750.64,812.04c-4.51,1.43-8.93,2.67-13.28,4.16c-2.17,0.73-4.3,1.56-6.43,2.42
			c-2.1,0.91-4.16,1.91-6.27,3.02c1.56-1.79,3.48-3.26,5.53-4.49c2.06-1.2,4.26-2.15,6.49-2.94c2.26-0.73,4.55-1.33,6.89-1.7
			C745.9,812.13,748.26,811.9,750.64,812.04z"/>
	</g>
	<g>
		<path class="st4" d="M685.83,782.89c0.4-2.09,0.79-3.96,1.19-5.81l1.23-5.45c0.38-1.81,0.85-3.61,1.28-5.47
			c0.27-0.92,0.45-1.86,0.76-2.81c0.29-0.95,0.55-1.92,0.99-2.92c0.47,0.96,0.82,1.95,1.08,2.95c0.21,1.01,0.43,2.03,0.47,3.05
			c0.17,2.06-0.05,4.12-0.48,6.14c-0.47,2.01-1.22,3.96-2.27,5.75C689.01,780.09,687.68,781.77,685.83,782.89z"/>
	</g>
	<g>
		<path class="st4" d="M428.74,756.59c4.03,5.17,8.34,9.8,12.88,14.15c1.14,1.08,2.25,2.18,3.45,3.2c1.2,1.01,2.29,2.13,3.54,3.07
			c1.23,0.97,2.39,2,3.63,2.95l3.74,2.8c1.22,0.97,2.57,1.76,3.84,2.66l1.92,1.34c0.64,0.44,1.34,0.8,1.99,1.23
			c1.33,0.83,2.67,1.63,3.98,2.49c1.37,0.76,2.75,1.51,4.12,2.29l2.06,1.18c0.68,0.4,1.41,0.7,2.12,1.07
			c1.42,0.71,2.83,1.44,4.25,2.19c2.85,1.46,5.81,2.7,8.72,4.32c-1.63-0.12-3.26-0.33-4.89-0.55c-0.82-0.1-1.63-0.23-2.45-0.36
			l-1.22-0.2l-1.2-0.29c-1.59-0.4-3.19-0.82-4.78-1.27c-0.79-0.23-1.6-0.43-2.37-0.71l-2.32-0.88c-1.54-0.6-3.09-1.2-4.61-1.86
			c-1.49-0.73-2.96-1.5-4.44-2.26c-0.74-0.39-1.48-0.76-2.19-1.19l-2.11-1.33l-2.09-1.36c-0.7-0.45-1.4-0.9-2.05-1.42
			c-5.41-3.89-10.22-8.6-14.32-13.82C433.89,768.81,430.45,762.99,428.74,756.59z"/>
	</g>
	<g>
		<path class="st4" d="M270.69,595.94c1.8,0.49,3.57,0.71,5.32,0.75c1.75,0.05,3.46-0.07,5.14-0.35c1.68-0.28,3.33-0.68,4.94-1.2
			c1.75-0.55,3.58-1.08,5.45-1.43c3.71-0.69,7.79-0.92,11.68,0.52c1.92,0.71,3.72,1.99,4.89,3.65c1.17,1.66,1.79,3.55,1.93,5.41
			c-1.03-1.58-2.09-2.99-3.43-3.99c-1.3-1.01-2.78-1.62-4.35-1.91c-3.14-0.59-6.54-0.18-9.94,0.45c-1.71,0.3-3.4,0.73-5.16,1.13
			c-1.89,0.45-3.85,0.68-5.8,0.66c-1.95-0.03-3.89-0.32-5.73-0.92C273.83,598.09,272.06,597.26,270.69,595.94z"/>
	</g>
	<g>
		<path class="st4" d="M292.65,581.85c-1.16,0.97-2.04,2-2.71,3.14c-0.66,1.14-1.12,2.38-1.43,3.66c-0.09,0.32-0.15,0.64-0.2,0.96
			c-0.07,0.33-0.09,0.59-0.13,0.98c-0.08,0.72-0.17,1.44-0.3,2.15c-0.24,1.43-0.55,2.86-1.06,4.28c-0.36-1.47-0.5-2.92-0.58-4.37
			c-0.05-0.73-0.05-1.45-0.06-2.17c0-0.33,0.02-0.79,0.06-1.18c0.06-0.39,0.12-0.78,0.22-1.16c0.38-1.51,1.07-2.99,2.17-4.15
			C289.7,582.83,291.15,582,292.65,581.85z"/>
	</g>
	<g>
		<path class="st4" d="M662.36,587.8c-1.27,4.78-2.71,9.3-4.13,13.79c-1.43,4.49-2.83,8.93-4.17,13.37
			c-1.31,4.45-2.49,8.9-3.61,13.41c-1.06,4.53-1.85,9.09-2.75,13.98c-1.73-4.63-2.32-9.67-2.18-14.62
			c0.23-4.94,1.07-9.86,2.48-14.57c1.43-4.7,3.33-9.25,5.68-13.53C656.07,595.37,658.82,591.28,662.36,587.8z"/>
	</g>
	<g>
		<path class="st4" d="M640.73,574.37c3.58,3.01,7.66,5.01,11.75,6.93c1.02,0.48,2.05,0.95,3.1,1.37c1.05,0.42,2.06,0.92,3.14,1.3
			l3.16,1.24l3.2,1.15c1.06,0.42,2.13,0.78,3.22,1.13l3.23,1.12c2.18,0.69,4.35,1.41,6.52,2.14c2.2,0.66,4.37,1.44,6.57,2.15
			c2.2,0.73,4.41,1.44,6.6,2.34c-2.35,0.02-4.68-0.16-7.03-0.32c-2.32-0.25-4.64-0.59-6.95-0.96c-2.3-0.43-4.58-0.97-6.86-1.52
			c-2.25-0.67-4.52-1.27-6.73-2.11l-3.31-1.25l-3.23-1.46c-1.08-0.47-2.12-1.06-3.16-1.62c-0.52-0.29-1.05-0.55-1.55-0.86
			l-1.51-0.95c-2.02-1.24-3.9-2.74-5.69-4.29C643.49,578.25,641.78,576.52,640.73,574.37z"/>
	</g>
	<g>
		<path class="st4" d="M483.55,657.34c4.04,3.13,7.83,6.46,11.59,9.8c3.74,3.36,7.41,6.77,11.07,10.19l10.93,10.28
			c3.65,3.42,7.31,6.81,11.13,10.2c-4.77-1.89-9.1-4.68-13.24-7.64c-4.13-2.99-8-6.29-11.7-9.76c-3.71-3.46-7.21-7.12-10.54-10.95
			C489.47,665.61,486.29,661.65,483.55,657.34z"/>
	</g>
	<g>
		<path class="st4" d="M647.55,382.79c-1.22,2.98-2.43,5.71-3.72,8.45c-1.24,2.73-3.05,5.19-4.44,7.92
			c-0.71,1.35-1.36,2.73-2.01,4.12c-0.68,1.38-1.27,2.79-1.91,4.2l-1.82,4.26c-0.55,1.44-1.13,2.88-1.72,4.32l0,0.01
			c-0.04,0.11-0.17,0.16-0.28,0.12c-0.09-0.04-0.15-0.14-0.13-0.23c0.28-1.53,0.57-3.06,0.88-4.59l1.07-4.57
			c0.43-1.5,0.81-3.03,1.29-4.52c0.49-1.49,0.98-2.99,1.54-4.46c0.53-1.49,1.08-2.97,1.64-4.47c0.31-0.73,0.64-1.46,1-2.17
			c0.37-0.7,0.81-1.38,1.24-2.05c0.92-1.32,1.93-2.58,3.1-3.71c1.15-1.14,2.43-2.2,3.97-2.92c0.11-0.05,0.24,0,0.29,0.11
			c0.03,0.06,0.03,0.12,0,0.18L647.55,382.79z"/>
	</g>
	<g>
		<path class="st4" d="M675.16,481.01c2.74,1.74,5.45,3.51,8.21,5.2c2.74,1.72,5.47,3.43,8.22,5.1c1.37,0.85,2.8,1.59,4.21,2.36
			c1.41,0.76,2.76,1.62,4.05,2.55c1.29,0.95,2.56,1.91,3.8,2.95c0.63,0.5,1.24,1.05,1.86,1.59c0.61,0.54,1.24,1.09,1.83,1.73
			l0.01,0.01c0.08,0.09,0.08,0.23-0.01,0.32c-0.05,0.04-0.11,0.06-0.17,0.06c-0.86-0.07-1.69-0.24-2.53-0.4
			c-0.82-0.2-1.62-0.44-2.41-0.71c-1.58-0.53-3.11-1.19-4.57-1.95c-1.47-0.75-2.84-1.65-4.14-2.65l-3.83-3.07
			c-1.29-1-2.56-2.02-3.83-3.04l-3.73-3.15c-2.44-2.16-4.88-4.29-7.21-6.57c-0.08-0.08-0.09-0.22,0-0.3
			C674.96,480.96,675.08,480.95,675.16,481.01z"/>
	</g>
</g>
</svg>
